BrisaSans[wght].glyphspackage
{
glyphname = exclam;
layers = (
{
layerId = "F976A6FE-4F5D-4CD4-867C-EF90278DFFCC";
shapes = (
{
closed = 1;
nodes = (
(240,715,l),
(63,700,l),
(63,237,l),
(240,237,l)
);
},
{
closed = 1;
nodes = (
(260,146,o),
(211,176,o),
(153,176,cs),
(98,176,o),
(47,145,o),
(47,83,cs),
(47,21,o),
(97,-10,o),
(153,-10,cs),
(213,-10,o),
(260,20,o),
(260,83,cs)
);
}
);
width = 307;
},
{
layerId = "ECD81CFE-BAA5-49B6-8B8C-C1187BD9FB4D";
shapes = (
{
closed = 1;
nodes = (
(216,715,l),
(74,703,l),
(74,226,l),
(216,226,l)
);
},
{
closed = 1;
nodes = (
(235,123,o),
(196,150,o),
(146,150,cs),
(98,150,o),
(57,122,o),
(57,70,cs),
(57,18,o),
(98,-10,o),
(146,-10,cs),
(196,-10,o),
(235,17,o),
(235,70,cs)
);
}
);
width = 292;
},
{
layerId = "05C01135-6C20-4612-9616-E32239DF772F";
shapes = (
{
closed = 1;
nodes = (
(180,715,l),
(91,707,l),
(91,209,l),
(180,209,l)
);
},
{
closed = 1;
nodes = (
(198,89,o),
(173,111,o),
(135,111,cs),
(98,111,o),
(72,88,o),
(72,50,cs),
(72,13,o),
(99,-10,o),
(135,-10,cs),
(171,-10,o),
(198,13,o),
(198,50,cs)
);
}
);
width = 270;
},
{
layerId = "E82A1E35-09AC-49BD-B418-47901BDD1DB1";
shapes = (
{
closed = 1;
nodes = (
(132,715,l),
(96,711,l),
(96,217,l),
(132,217,l)
);
},
{
closed = 1;
nodes = (
(146,44,o),
(134,58,o),
(114,58,cs),
(94,58,o),
(82,44,o),
(82,24,cs),
(82,4,o),
(94,-10,o),
(114,-10,cs),
(134,-10,o),
(146,4,o),
(146,24,cs)
);
}
);
width = 228;
}
);
unicode = 33;
}
{
glyphname = numbersign;
layers = (
{
layerId = "B6DF85F1-EBFC-49D5-83CF-7D86C417AD4B";
shapes = (
{
closed = 1;
nodes = (
(693,160,l),
(554,160,l),
(521,0,l),
(377,0,l),
(410,160,l),
(281,160,l),
(248,0,l),
(104,0,l),
(137,160,l),
(32,160,l),
(46,288,l),
(164,288,l),
(189,408,l),
(63,408,l),
(77,537,l),
(216,537,l),
(249,697,l),
(392,697,l),
(360,537,l),
(489,537,l),
(522,697,l),
(665,697,l),
(633,537,l),
(738,537,l),
(724,408,l),
(606,408,l),
(581,288,l),
(707,288,l)
);
},
{
closed = 1;
nodes = (
(437,288,l),
(462,408,l),
(333,408,l),
(308,288,l)
);
}
);
width = 770;
},
{
layerId = "D243B678-AA35-4622-BFB2-DA5F5B4AAB22";
shapes = (
{
closed = 1;
nodes = (
(681,169,l),
(533,169,l),
(497,0,l),
(377,0,l),
(413,169,l),
(276,169,l),
(240,0,l),
(120,0,l),
(156,169,l),
(39,169,l),
(50,276,l),
(179,276,l),
(210,417,l),
(74,417,l),
(85,524,l),
(233,524,l),
(269,693,l),
(389,693,l),
(353,524,l),
(490,524,l),
(526,693,l),
(646,693,l),
(610,524,l),
(727,524,l),
(716,417,l),
(587,417,l),
(556,276,l),
(692,276,l)
);
},
{
closed = 1;
nodes = (
(436,276,l),
(467,417,l),
(330,417,l),
(299,276,l)
);
}
);
width = 766;
},
{
layerId = "7D45EC82-E8BB-4AC3-AEF4-676BB722768B";
shapes = (
{
closed = 1;
nodes = (
(663,183,l),
(502,183,l),
(461,0,l),
(377,0,l),
(418,183,l),
(269,183,l),
(228,0,l),
(144,0,l),
(185,183,l),
(49,183,l),
(56,258,l),
(202,258,l),
(241,430,l),
(90,430,l),
(97,505,l),
(258,505,l),
(299,687,l),
(384,687,l),
(342,505,l),
(491,505,l),
(532,687,l),
(617,687,l),
(575,505,l),
(711,505,l),
(704,430,l),
(558,430,l),
(519,258,l),
(670,258,l)
);
},
{
closed = 1;
nodes = (
(435,258,l),
(474,430,l),
(325,430,l),
(286,258,l)
);
}
);
width = 760;
},
{
layerId = "0550E5A5-F26C-45AF-9FA2-5FA21B0BB434";
shapes = (
{
closed = 1;
nodes = (
(638,197,l),
(468,197,l),
(425,0,l),
(391,0,l),
(434,197,l),
(235,197,l),
(192,0,l),
(158,0,l),
(201,197,l),
(54,197,l),
(57,228,l),
(208,228,l),
(259,458,l),
(94,458,l),
(97,489,l),
(266,489,l),
(309,687,l),
(343,687,l),
(299,489,l),
(499,489,l),
(542,687,l),
(576,687,l),
(532,489,l),
(681,489,l),
(678,458,l),
(525,458,l),
(475,228,l),
(641,228,l)
);
},
{
closed = 1;
nodes = (
(441,228,l),
(492,458,l),
(292,458,l),
(242,228,l)
);
}
);
width = 735;
}
);
unicode = 35;
}
{
glyphname = dollar;
layers = (
{
layerId = "BC1C0262-B179-41F2-9022-DD18C3300059";
shapes = (
{
closed = 1;
nodes = (
(341,-116,l),
(228,-126,l),
(228,-6,l),
(145,4,o),
(68,30,o),
(13,59,c),
(69,174,l),
(95,156,o),
(161,133,o),
(228,124,c),
(228,299,l),
(134,331,o),
(16,375,o),
(16,510,cs),
(16,622,o),
(95,691,o),
(228,704,c),
(228,798,l),
(341,808,l),
(341,702,l),
(399,695,o),
(462,677,o),
(522,646,c),
(467,531,l),
(434,547,o),
(389,563,o),
(341,570,c),
(341,409,l),
(428,386,o),
(553,322,o),
(553,186,cs),
(553,83,o),
(476,10,o),
(341,-7,c)
);
},
{
closed = 1;
nodes = (
(228,572,l),
(189,563,o),
(171,547,o),
(171,517,cs),
(171,484,o),
(192,463,o),
(228,446,c)
);
},
{
closed = 1;
nodes = (
(341,126,l),
(384,137,o),
(398,162,o),
(398,187,cs),
(398,221,o),
(370,245,o),
(341,259,c)
);
}
);
width = 564;
},
{
layerId = "022C621B-D9C5-4075-856F-99776A9BB9BC";
shapes = (
{
closed = 1;
nodes = (
(334,-117,l),
(237,-126,l),
(237,-7,l),
(158,0,o),
(79,23,o),
(16,60,c),
(64,158,l),
(107,131,o),
(174,110,o),
(237,103,c),
(237,307,l),
(138,342,o),
(27,384,o),
(27,512,cs),
(27,625,o),
(113,690,o),
(237,701,c),
(237,799,l),
(334,808,l),
(334,699,l),
(395,692,o),
(460,673,o),
(515,642,c),
(468,544,l),
(429,563,o),
(382,580,o),
(334,587,c),
(334,400,l),
(433,368,o),
(542,314,o),
(542,187,cs),
(542,82,o),
(467,9,o),
(334,-7,c)
);
},
{
closed = 1;
nodes = (
(237,589,l),
(192,582,o),
(156,562,o),
(156,519,cs),
(156,478,o),
(189,453,o),
(237,433,c)
);
},
{
closed = 1;
nodes = (
(334,105,l),
(387,116,o),
(413,145,o),
(413,184,cs),
(413,227,o),
(381,252,o),
(334,272,c)
);
}
);
width = 568;
},
{
layerId = "F46EB350-572D-40B6-8F96-70923BCB3D86";
shapes = (
{
closed = 1;
nodes = (
(324,-119,l),
(250,-126,l),
(250,-9,l),
(177,-6,o),
(96,13,o),
(20,61,c),
(56,134,l),
(125,94,o),
(194,75,o),
(250,71,c),
(250,319,l),
(144,359,o),
(44,398,o),
(44,515,cs),
(44,630,o),
(140,688,o),
(250,696,c),
(250,801,l),
(324,808,l),
(324,694,l),
(389,687,o),
(457,667,o),
(505,636,c),
(470,563,l),
(421,587,o),
(371,605,o),
(324,613,c),
(324,386,l),
(441,341,o),
(526,302,o),
(526,189,cs),
(526,81,o),
(453,8,o),
(324,-7,c)
);
},
{
closed = 1;
nodes = (
(250,615,l),
(197,610,o),
(134,584,o),
(134,522,cs),
(134,469,o),
(185,438,o),
(250,413,c)
);
},
{
closed = 1;
nodes = (
(324,74,l),
(392,85,o),
(435,120,o),
(435,180,cs),
(435,236,o),
(397,263,o),
(324,291,c)
);
}
);
width = 574;
},
{
layerId = "7900522D-7321-4A46-8482-E4D00C1490A1";
shapes = (
{
closed = 1;
nodes = (
(292,-122,l),
(257,-126,l),
(257,-10,l),
(177,-9,o),
(98,11,o),
(23,54,c),
(39,84,l),
(115,41,o),
(189,24,o),
(257,24,c),
(257,338,l),
(134,381,o),
(47,416,o),
(47,519,cs),
(47,625,o),
(138,687,o),
(257,692,c),
(257,804,l),
(292,808,l),
(292,692,l),
(355,689,o),
(418,672,o),
(478,641,c),
(462,610,l),
(406,637,o),
(348,655,o),
(292,658,c),
(292,364,l),
(401,324,o),
(499,282,o),
(499,167,cs),
(499,56,o),
(409,-1,o),
(292,-9,c)
);
},
{
closed = 1;
nodes = (
(257,658,l),
(165,653,o),
(85,609,o),
(85,522,cs),
(85,440,o),
(156,412,o),
(257,377,c)
);
},
{
closed = 1;
nodes = (
(292,25,l),
(388,33,o),
(461,81,o),
(461,166,cs),
(461,253,o),
(387,288,o),
(292,325,c)
);
}
);
width = 544;
}
);
unicode = 36;
}
{
glyphname = percent;
layers = (
{
layerId = "D43100D0-4BF9-44C0-ADDC-79172AF58462";
shapes = (
{
closed = 1;
nodes = (
(374,0,l),
(223,0,l),
(562,697,l),
(713,697,l)
);
},
{
closed = 1;
nodes = (
(778,101,o),
(778,169,o),
(778,197,cs),
(778,224,o),
(777,293,o),
(736,293,cs),
(696,293,o),
(694,224,o),
(694,197,cs),
(694,169,o),
(696,101,o),
(736,101,cs)
);
},
{
closed = 1;
nodes = (
(613,-10,o),
(556,83,o),
(556,197,cs),
(556,311,o),
(614,404,o),
(736,404,cs),
(859,404,o),
(916,312,o),
(916,197,cs),
(916,82,o),
(860,-10,o),
(736,-10,cs)
);
},
{
closed = 1;
nodes = (
(242,404,o),
(242,472,o),
(242,500,cs),
(242,527,o),
(241,596,o),
(200,596,cs),
(160,596,o),
(158,527,o),
(158,500,cs),
(158,472,o),
(160,404,o),
(200,404,cs)
);
},
{
closed = 1;
nodes = (
(77,293,o),
(20,386,o),
(20,500,cs),
(20,614,o),
(78,707,o),
(200,707,cs),
(323,707,o),
(380,615,o),
(380,500,cs),
(380,385,o),
(324,293,o),
(200,293,cs)
);
}
);
width = 936;
},
{
layerId = "B5AFC12C-DAB2-4B68-A31B-D6136A1B144F";
shapes = (
{
alignment = -1;
pos = (406,0);
ref = fraction;
},
{
alignment = -1;
pos = (529,0);
ref = zero.inferior;
},
{
alignment = -1;
pos = (6,299);
ref = zero.inferior;
}
);
width = 936;
},
{
layerId = "5166C0C3-C3D2-4F7F-8540-ACBC385E7743";
shapes = (
{
alignment = -1;
pos = (414,0);
ref = fraction;
},
{
alignment = -1;
pos = (519,0);
ref = zero.inferior;
},
{
alignment = -1;
pos = (16,293);
ref = zero.inferior;
}
);
width = 936;
},
{
layerId = "64AEFF5A-033C-4F54-96AE-A64261A50D57";
shapes = (
{
alignment = -1;
pos = (415,0);
ref = fraction;
},
{
alignment = -1;
pos = (513,0);
ref = zero.inferior;
},
{
alignment = -1;
pos = (23,288);
ref = zero.inferior;
}
);
width = 936;
}
);
unicode = 37;
}
{
glyphname = ampersand;
layers = (
{
layerId = "F976A6FE-4F5D-4CD4-867C-EF90278DFFCC";
shapes = (
{
closed = 1;
nodes = (
(696,90,l),
(588,-10,l),
(498,76,l),
(424,19,o),
(347,-10,o),
(270,-10,cs),
(132,-10,o),
(46,72,o),
(46,177,cs),
(46,268,o),
(114,336,o),
(189,384,c),
(133,440,o),
(107,492,o),
(107,547,cs),
(107,648,o),
(195,717,o),
(309,717,cs),
(422,717,o),
(513,649,o),
(513,552,cs),
(513,478,o),
(462,424,o),
(400,380,c),
(503,279,l),
(525,305,o),
(547,331,o),
(570,362,c),
(688,273,l),
(659,235,o),
(634,206,o),
(607,177,c)
);
},
{
closed = 1;
nodes = (
(278,294,l),
(242,265,o),
(214,236,o),
(214,200,cs),
(214,164,o),
(243,143,o),
(287,143,cs),
(320,143,o),
(354,156,o),
(394,180,c)
);
},
{
closed = 1;
nodes = (
(340,490,o),
(359,516,o),
(359,545,cs),
(359,573,o),
(336,589,o),
(309,589,cs),
(282,589,o),
(261,573,o),
(261,545,cs),
(261,532,o),
(295,482,o),
(310,467,c)
);
}
);
width = 722;
},
{
layerId = "ECD81CFE-BAA5-49B6-8B8C-C1187BD9FB4D";
shapes = (
{
closed = 1;
nodes = (
(687,73,l),
(599,-10,l),
(506,82,l),
(430,21,o),
(352,-10,o),
(273,-10,cs),
(145,-10,o),
(56,65,o),
(56,173,cs),
(56,265,o),
(124,329,o),
(206,385,c),
(150,441,o),
(118,491,o),
(118,551,cs),
(118,645,o),
(198,717,o),
(308,717,cs),
(417,717,o),
(499,646,o),
(499,553,cs),
(499,478,o),
(444,424,o),
(383,379,c),
(512,248,l),
(537,275,o),
(560,301,o),
(583,332,c),
(675,258,l),
(648,223,o),
(623,194,o),
(596,165,c)
);
},
{
closed = 1;
nodes = (
(282,308,l),
(233,272,o),
(193,235,o),
(193,187,cs),
(193,139,o),
(232,115,o),
(284,115,cs),
(328,115,o),
(375,135,o),
(422,167,c)
);
},
{
closed = 1;
nodes = (
(347,485,o),
(370,514,o),
(370,549,cs),
(370,585,o),
(343,608,o),
(308,608,cs),
(273,608,o),
(247,585,o),
(247,549,cs),
(247,524,o),
(284,477,o),
(307,454,c)
);
}
);
width = 719;
},
{
layerId = "05C01135-6C20-4612-9616-E32239DF772F";
shapes = (
{
closed = 1;
nodes = (
(674,48,l),
(616,-10,l),
(518,91,l),
(439,24,o),
(359,-10,o),
(278,-10,cs),
(165,-10,o),
(71,55,o),
(71,167,cs),
(71,261,o),
(139,319,o),
(232,386,c),
(176,442,o),
(135,490,o),
(135,557,cs),
(135,641,o),
(202,717,o),
(306,717,cs),
(409,717,o),
(478,641,o),
(478,555,cs),
(478,478,o),
(417,424,o),
(357,378,c),
(526,202,l),
(555,230,o),
(579,256,o),
(603,287,c),
(656,236,l),
(632,205,o),
(606,176,o),
(579,147,c)
);
},
{
closed = 1;
nodes = (
(288,329,l),
(220,282,o),
(162,234,o),
(162,167,cs),
(162,102,o),
(216,73,o),
(280,73,cs),
(340,73,o),
(407,103,o),
(464,147,c)
);
},
{
closed = 1;
nodes = (
(358,477,o),
(387,511,o),
(387,555,cs),
(387,603,o),
(353,637,o),
(306,637,cs),
(259,637,o),
(226,603,o),
(226,555,cs),
(226,512,o),
(267,469,o),
(302,434,c)
);
}
);
width = 714;
},
{
layerId = "E82A1E35-09AC-49BD-B418-47901BDD1DB1";
shapes = (
{
closed = 1;
nodes = (
(651,19,l),
(626,-5,l),
(519,105,l),
(451,41,o),
(371,-10,o),
(276,-10,cs),
(169,-10,o),
(81,53,o),
(81,156,cs),
(81,247,o),
(152,307,o),
(253,379,c),
(182,450,o),
(145,501,o),
(145,565,cs),
(145,652,o),
(213,717,o),
(301,717,cs),
(393,717,o),
(454,649,o),
(454,569,cs),
(454,494,o),
(400,443,o),
(305,376,c),
(520,154,l),
(552,187,o),
(580,223,o),
(604,255,c),
(630,232,l),
(605,199,o),
(576,163,o),
(544,130,c)
);
},
{
closed = 1;
nodes = (
(276,355,l),
(180,286,o),
(119,233,o),
(119,157,cs),
(119,73,o),
(193,24,o),
(277,24,cs),
(360,24,o),
(432,69,o),
(495,129,c)
);
},
{
closed = 1;
nodes = (
(370,461,o),
(416,505,o),
(416,569,cs),
(416,637,o),
(366,683,o),
(301,683,cs),
(234,683,o),
(183,636,o),
(183,567,cs),
(183,525,o),
(232,451,o),
(282,400,c)
);
}
);
width = 697;
}
);
unicode = 38;
}
{
glyphname = quotesingle;
layers = (
{
layerId = "D43100D0-4BF9-44C0-ADDC-79172AF58462";
shapes = (
{
closed = 1;
nodes = (
(189,425,l),
(49,425,l),
(34,703,l),
(203,717,l)
);
}
);
width = 237;
},
{
layerId = "B5AFC12C-DAB2-4B68-A31B-D6136A1B144F";
shapes = (
{
closed = 1;
nodes = (
(167,431,l),
(56,431,l),
(41,701,l),
(181,713,l)
);
}
);
width = 222;
},
{
layerId = "5166C0C3-C3D2-4F7F-8540-ACBC385E7743";
shapes = (
{
closed = 1;
nodes = (
(134,440,l),
(66,440,l),
(51,698,l),
(148,707,l)
);
}
);
width = 199;
},
{
layerId = "64AEFF5A-033C-4F54-96AE-A64261A50D57";
shapes = (
{
closed = 1;
nodes = (
(93,455,l),
(63,455,l),
(58,698,l),
(98,702,l)
);
}
);
width = 156;
}
);
unicode = 39;
}
{
glyphname = parenleft;
layers = (
{
layerId = "B6DF85F1-EBFC-49D5-83CF-7D86C417AD4B";
shapes = (
{
closed = 1;
nodes = (
(184,-248,l),
(98,-98,o),
(52,76,o),
(52,234,cs),
(52,390,o),
(98,565,o),
(184,715,c),
(336,667,l),
(267,530,o),
(232,394,o),
(232,234,cs),
(232,71,o),
(267,-61,o),
(336,-200,c)
);
}
);
width = 357;
},
{
layerId = "D243B678-AA35-4622-BFB2-DA5F5B4AAB22";
shapes = (
{
closed = 1;
nodes = (
(194,-237,l),
(108,-87,o),
(63,98,o),
(63,256,cs),
(63,414,o),
(108,598,o),
(194,748,c),
(315,710,l),
(243,575,o),
(209,415,o),
(209,256,cs),
(209,96,o),
(243,-64,o),
(315,-199,c)
);
}
);
width = 340;
},
{
layerId = "7D45EC82-E8BB-4AC3-AEF4-676BB722768B";
shapes = (
{
closed = 1;
nodes = (
(209,-221,l),
(123,-71,o),
(80,131,o),
(80,289,cs),
(80,450,o),
(123,648,o),
(209,798,c),
(284,775,l),
(207,642,o),
(174,447,o),
(174,289,cs),
(174,133,o),
(207,-68,o),
(284,-198,c)
);
}
);
width = 315;
},
{
layerId = "0550E5A5-F26C-45AF-9FA2-5FA21B0BB434";
shapes = (
{
closed = 1;
nodes = (
(222,-238,l),
(138,-86,o),
(92,80,o),
(92,255,cs),
(92,430,o),
(138,596,o),
(222,748,c),
(252,734,l),
(175,586,o),
(130,422,o),
(130,255,cs),
(130,88,o),
(175,-76,o),
(252,-224,c)
);
}
);
width = 287;
}
);
unicode = 40;
}
{
glyphname = parenright;
layers = (
{
layerId = "F976A6FE-4F5D-4CD4-867C-EF90278DFFCC";
shapes = (
{
closed = 1;
nodes = (
(21,-200,l),
(91,-65,o),
(124,73,o),
(124,234,cs),
(124,392,o),
(91,532,o),
(21,667,c),
(173,715,l),
(259,565,o),
(305,390,o),
(305,234,cs),
(305,76,o),
(259,-98,o),
(173,-248,c)
);
}
);
width = 357;
},
{
layerId = "ECD81CFE-BAA5-49B6-8B8C-C1187BD9FB4D";
shapes = (
{
closed = 1;
nodes = (
(25,-199,l),
(97,-64,o),
(131,96,o),
(131,256,cs),
(131,415,o),
(97,575,o),
(25,710,c),
(146,748,l),
(232,598,o),
(277,414,o),
(277,256,cs),
(277,98,o),
(232,-87,o),
(146,-237,c)
);
}
);
width = 340;
},
{
layerId = "05C01135-6C20-4612-9616-E32239DF772F";
shapes = (
{
closed = 1;
nodes = (
(31,-198,l),
(106,-63,o),
(141,130,o),
(141,289,cs),
(141,449,o),
(106,639,o),
(31,775,c),
(106,798,l),
(192,648,o),
(235,450,o),
(235,289,cs),
(235,131,o),
(192,-71,o),
(106,-221,c)
);
}
);
width = 315;
},
{
layerId = "E82A1E35-09AC-49BD-B418-47901BDD1DB1";
shapes = (
{
closed = 1;
nodes = (
(35,-224,l),
(112,-76,o),
(157,88,o),
(157,255,cs),
(157,422,o),
(112,586,o),
(35,734,c),
(65,748,l),
(149,596,o),
(195,430,o),
(195,255,cs),
(195,80,o),
(149,-86,o),
(65,-238,c)
);
}
);
width = 287;
}
);
unicode = 41;
}
{
glyphname = asterisk;
layers = (
{
layerId = "F976A6FE-4F5D-4CD4-867C-EF90278DFFCC";
shapes = (
{
closed = 1;
nodes = (
(502,337,l),
(416,270,l),
(294,394,l),
(171,270,l),
(85,337,l),
(168,470,l),
(38,526,l),
(71,630,l),
(227,600,l),
(239,750,l),
(348,750,l),
(362,600,l),
(517,630,l),
(549,526,l),
(419,470,l)
);
}
);
width = 587;
},
{
layerId = "ECD81CFE-BAA5-49B6-8B8C-C1187BD9FB4D";
shapes = (
{
closed = 1;
nodes = (
(487,338,l),
(415,283,l),
(291,415,l),
(167,283,l),
(95,338,l),
(186,479,l),
(47,537,l),
(74,624,l),
(234,589,l),
(246,750,l),
(336,750,l),
(349,589,l),
(508,624,l),
(535,537,l),
(396,479,l)
);
}
);
width = 582;
},
{
layerId = "05C01135-6C20-4612-9616-E32239DF772F";
shapes = (
{
closed = 1;
nodes = (
(464,339,l),
(413,302,l),
(287,446,l),
(161,302,l),
(110,339,l),
(213,493,l),
(60,553,l),
(79,615,l),
(244,573,l),
(256,750,l),
(318,750,l),
(330,573,l),
(495,615,l),
(514,553,l),
(361,493,l)
);
}
);
width = 574;
},
{
layerId = "E82A1E35-09AC-49BD-B418-47901BDD1DB1";
shapes = (
{
closed = 1;
nodes = (
(439,341,l),
(418,324,l),
(286,478,l),
(153,324,l),
(132,341,l),
(257,500,l),
(67,574,l),
(76,599,l),
(268,533,l),
(272,737,l),
(299,737,l),
(303,533,l),
(495,599,l),
(504,574,l),
(314,500,l)
);
}
);
width = 571;
}
);
unicode = 42;
}
{
glyphname = plus;
layers = (
{
layerId = "BC1C0262-B179-41F2-9022-DD18C3300059";
shapes = (
{
closed = 1;
nodes = (
(522,282,l),
(353,282,l),
(353,113,l),
(222,113,l),
(222,282,l),
(52,282,l),
(52,414,l),
(222,414,l),
(222,583,l),
(353,583,l),
(353,414,l),
(522,414,l)
);
}
);
width = 575;
},
{
layerId = "022C621B-D9C5-4075-856F-99776A9BB9BC";
shapes = (
{
closed = 1;
nodes = (
(509,291,l),
(339,291,l),
(339,121,l),
(229,121,l),
(229,291,l),
(59,291,l),
(59,401,l),
(229,401,l),
(229,571,l),
(339,571,l),
(339,401,l),
(509,401,l)
);
}
);
width = 568;
},
{
layerId = "F46EB350-572D-40B6-8F96-70923BCB3D86";
shapes = (
{
closed = 1;
nodes = (
(489,304,l),
(318,304,l),
(318,133,l),
(240,133,l),
(240,304,l),
(69,304,l),
(69,382,l),
(240,382,l),
(240,553,l),
(318,553,l),
(318,382,l),
(489,382,l)
);
}
);
width = 558;
},
{
layerId = "7900522D-7321-4A46-8482-E4D00C1490A1";
shapes = (
{
closed = 1;
nodes = (
(470,325,l),
(290,325,l),
(290,139,l),
(255,139,l),
(255,325,l),
(74,325,l),
(74,357,l),
(255,357,l),
(255,543,l),
(290,543,l),
(290,357,l),
(470,357,l)
);
}
);
width = 544;
}
);
unicode = 43;
}
{
glyphname = comma;
layers = (
{
layerId = "7C3FA59E-6813-4975-9D6F-EC289EE60EF9";
name = "#instance";
shapes = (
{
closed = 1;
nodes = (
(-8,-124,l),
(35,-48,o),
(65,20,o),
(63,173,c),
(236,156,l),
(236,30,o),
(193,-100,o),
(111,-188,c)
);
}
);
width = 274;
},
{
layerId = "D222E232-D60B-4B2D-8951-17F11CA2060F";
shapes = (
{
closed = 1;
nodes = (
(-8,-124,l),
(35,-48,o),
(65,20,o),
(63,173,c),
(236,156,l),
(236,30,o),
(193,-100,o),
(111,-188,c)
);
}
);
width = 274;
},
{
layerId = "836ED3A4-1AF9-4FCB-B992-725D22F47718";
shapes = (
{
closed = 1;
nodes = (
(5,-124,l),
(48,-47,o),
(75,16,o),
(75,148,c),
(219,135,l),
(219,37,o),
(179,-92,o),
(102,-175,c)
);
}
);
width = 274;
},
{
layerId = "D4BE8965-D6E9-455E-8A03-697C08C086AB";
shapes = (
{
closed = 1;
nodes = (
(24,-124,l),
(67,-46,o),
(89,10,o),
(92,111,c),
(193,103,l),
(193,47,o),
(158,-80,o),
(88,-156,c)
);
}
);
width = 274;
},
{
layerId = "26E6130D-B3C9-45B2-A3C5-02C986E91ADD";
shapes = (
{
closed = 1;
nodes = (
(65,-123,l),
(98,-58,o),
(117,10,o),
(124,95,c),
(167,91,l),
(156,2,o),
(132,-72,o),
(93,-137,c)
);
}
);
width = 274;
}
);
unicode = 44;
}
{
glyphname = hyphen;
layers = (
{
layerId = "F976A6FE-4F5D-4CD4-867C-EF90278DFFCC";
shapes = (
{
closed = 1;
nodes = (
(411,198,l),
(34,198,l),
(34,329,l),
(411,329,l)
);
}
);
width = 445;
},
{
layerId = "ECD81CFE-BAA5-49B6-8B8C-C1187BD9FB4D";
shapes = (
{
closed = 1;
nodes = (
(395,207,l),
(41,207,l),
(41,316,l),
(395,316,l)
);
}
);
width = 436;
},
{
layerId = "05C01135-6C20-4612-9616-E32239DF772F";
shapes = (
{
closed = 1;
nodes = (
(371,220,l),
(51,220,l),
(51,296,l),
(371,296,l)
);
}
);
width = 422;
},
{
layerId = "E82A1E35-09AC-49BD-B418-47901BDD1DB1";
shapes = (
{
closed = 1;
nodes = (
(348,240,l),
(58,240,l),
(58,273,l),
(348,273,l)
);
}
);
width = 406;
}
);
unicode = 45;
}
{
glyphname = period;
layers = (
{
layerId = "B6DF85F1-EBFC-49D5-83CF-7D86C417AD4B";
shapes = (
{
closed = 1;
nodes = (
(243,146,o),
(195,176,o),
(137,176,cs),
(81,176,o),
(30,145,o),
(30,83,cs),
(30,21,o),
(81,-10,o),
(137,-10,cs),
(195,-10,o),
(243,21,o),
(243,83,cs)
);
}
);
width = 274;
},
{
layerId = "D243B678-AA35-4622-BFB2-DA5F5B4AAB22";
shapes = (
{
closed = 1;
nodes = (
(226,123,o),
(187,150,o),
(137,150,cs),
(89,150,o),
(48,122,o),
(48,70,cs),
(48,18,o),
(89,-10,o),
(137,-10,cs),
(187,-10,o),
(226,17,o),
(226,70,cs)
);
}
);
width = 274;
},
{
layerId = "7D45EC82-E8BB-4AC3-AEF4-676BB722768B";
shapes = (
{
closed = 1;
nodes = (
(200,89,o),
(175,111,o),
(137,111,cs),
(100,111,o),
(74,88,o),
(74,50,cs),
(74,13,o),
(101,-10,o),
(137,-10,cs),
(174,-10,o),
(200,11,o),
(200,50,cs)
);
}
);
width = 274;
},
{
layerId = "0550E5A5-F26C-45AF-9FA2-5FA21B0BB434";
shapes = (
{
closed = 1;
nodes = (
(169,44,o),
(157,58,o),
(137,58,cs),
(117,58,o),
(105,44,o),
(105,24,cs),
(105,4,o),
(117,-10,o),
(137,-10,cs),
(157,-10,o),
(169,4,o),
(169,24,cs)
);
}
);
width = 274;
}
);
unicode = 46;
}
{
glyphname = slash;
layers = (
{
layerId = "F976A6FE-4F5D-4CD4-867C-EF90278DFFCC";
shapes = (
{
closed = 1;
nodes = (
(180,-101,l),
(1,-101,l),
(363,795,l),
(542,795,l)
);
}
);
width = 543;
},
{
layerId = "ECD81CFE-BAA5-49B6-8B8C-C1187BD9FB4D";
shapes = (
{
closed = 1;
nodes = (
(146,-101,l),
(2,-101,l),
(363,795,l),
(507,795,l)
);
}
);
width = 509;
},
{
layerId = "05C01135-6C20-4612-9616-E32239DF772F";
shapes = (
{
closed = 1;
nodes = (
(95,-101,l),
(3,-101,l),
(363,795,l),
(455,795,l)
);
}
);
width = 458;
},
{
layerId = "E82A1E35-09AC-49BD-B418-47901BDD1DB1";
shapes = (
{
closed = 1;
nodes = (
(41,-101,l),
(3,-101,l),
(364,795,l),
(402,795,l)
);
}
);
width = 405;
}
);
unicode = 47;
}
{
glyphname = zero;
layers = (
{
layerId = "F976A6FE-4F5D-4CD4-867C-EF90278DFFCC";
shapes = (
{
closed = 1;
nodes = (
(330,160,o),
(338,172,o),
(344,192,c),
(359,226,o),
(367,282,o),
(367,353,cs),
(367,425,o),
(359,480,o),
(344,514,c),
(332,550,o),
(311,570,o),
(289,570,cs),
(265,570,o),
(243,550,o),
(230,514,c),
(219,480,o),
(211,425,o),
(211,353,cs),
(211,282,o),
(219,226,o),
(230,192,c),
(243,156,o),
(265,137,o),
(289,137,cs),
(306,137,o),
(322,151,q)
);
},
{
closed = 1;
nodes = (
(442,27,o),
(377,-10,o),
(289,-10,cs),
(199,-10,o),
(134,27,o),
(92,91,cs),
(49,155,o),
(29,246,o),
(29,353,cs),
(29,460,o),
(49,552,o),
(92,616,cs),
(134,680,o),
(199,717,o),
(289,717,cs),
(377,717,o),
(442,680,o),
(484,616,cs),
(526,552,o),
(549,460,o),
(549,353,cs),
(549,272,o),
(517,140,o),
(484,92,c)
);
}
);
width = 574;
},
{
layerId = "ECD81CFE-BAA5-49B6-8B8C-C1187BD9FB4D";
shapes = (
{
closed = 1;
nodes = (
(350,141,o),
(361,157,o),
(370,179,cs),
(388,220,o),
(396,281,o),
(396,353,cs),
(396,426,o),
(388,487,o),
(370,528,cs),
(353,570,o),
(325,595,o),
(288,595,cs),
(250,595,o),
(222,570,o),
(205,528,cs),
(188,487,o),
(180,426,o),
(180,353,cs),
(180,281,o),
(188,220,o),
(205,179,cs),
(222,137,o),
(250,112,o),
(288,112,cs),
(316,112,o),
(337,130,qs)
);
},
{
closed = 1;
nodes = (
(441,30,o),
(378,-10,o),
(288,-10,cs),
(198,-10,o),
(134,30,o),
(93,95,cs),
(51,160,o),
(32,251,o),
(32,353,cs),
(32,455,o),
(51,547,o),
(93,612,cs),
(134,677,o),
(198,717,o),
(288,717,cs),
(378,717,o),
(441,677,o),
(483,612,cs),
(524,547,o),
(544,455,o),
(544,353,cs),
(544,276,o),
(514,144,o),
(483,95,cs)
);
}
);
width = 574;
},
{
layerId = "05C01135-6C20-4612-9616-E32239DF772F";
shapes = (
{
closed = 1;
nodes = (
(380,113,o),
(396,134,o),
(409,160,cs),
(432,211,o),
(440,280,o),
(440,353,cs),
(440,427,o),
(432,497,o),
(409,549,cs),
(384,600,o),
(346,632,o),
(287,632,cs),
(228,632,o),
(190,600,o),
(167,549,cs),
(142,497,o),
(134,427,o),
(134,353,cs),
(134,280,o),
(142,211,o),
(167,160,cs),
(190,108,o),
(228,75,o),
(287,75,cs),
(331,75,o),
(360,98,qs)
);
},
{
closed = 1;
nodes = (
(440,34,o),
(379,-10,o),
(287,-10,cs),
(196,-10,o),
(134,34,o),
(94,101,cs),
(54,167,o),
(37,258,o),
(37,353,cs),
(37,448,o),
(54,539,o),
(94,606,cs),
(134,673,o),
(196,717,o),
(287,717,cs),
(379,717,o),
(440,673,o),
(481,606,cs),
(521,539,o),
(537,448,o),
(537,353,cs),
(537,282,o),
(510,150,o),
(481,100,cs)
);
}
);
width = 574;
},
{
layerId = "E82A1E35-09AC-49BD-B418-47901BDD1DB1";
shapes = (
{
closed = 1;
nodes = (
(405,69,o),
(426,94,o),
(441,124,cs),
(474,185,o),
(487,266,o),
(487,353,cs),
(487,441,o),
(474,523,o),
(441,584,cs),
(409,644,o),
(358,681,o),
(287,681,cs),
(213,681,o),
(165,644,o),
(133,584,cs),
(100,523,o),
(87,441,o),
(87,353,cs),
(87,266,o),
(100,185,o),
(133,124,cs),
(165,64,o),
(213,26,o),
(287,26,cs),
(341,26,o),
(379,52,qs)
);
},
{
closed = 1;
nodes = (
(432,32,o),
(371,-10,o),
(287,-10,cs),
(203,-10,o),
(142,32,o),
(103,100,cs),
(65,166,o),
(48,257,o),
(48,353,cs),
(48,450,o),
(65,541,o),
(103,608,cs),
(142,675,o),
(203,717,o),
(287,717,cs),
(371,717,o),
(432,675,o),
(470,608,cs),
(509,541,o),
(526,450,o),
(526,353,cs),
(526,281,o),
(499,149,o),
(470,98,cs)
);
}
);
width = 574;
}
);
unicode = 48;
}
{
glyphname = one;
layers = (
{
layerId = "BC1C0262-B179-41F2-9022-DD18C3300059";
shapes = (
{
closed = 1;
nodes = (
(436,0,l),
(256,0,l),
(256,532,l),
(98,472,l),
(59,604,l),
(314,707,l),
(436,707,l)
);
}
);
width = 574;
},
{
layerId = "022C621B-D9C5-4075-856F-99776A9BB9BC";
shapes = (
{
closed = 1;
nodes = (
(423,0,l),
(278,0,l),
(278,563,l),
(110,500,l),
(76,611,l),
(315,707,l),
(423,707,l)
);
}
);
width = 574;
},
{
layerId = "F46EB350-572D-40B6-8F96-70923BCB3D86";
shapes = (
{
closed = 1;
nodes = (
(404,0,l),
(311,0,l),
(311,610,l),
(128,542,l),
(101,622,l),
(317,707,l),
(404,707,l)
);
}
);
width = 574;
},
{
layerId = "7900522D-7321-4A46-8482-E4D00C1490A1";
shapes = (
{
closed = 1;
nodes = (
(379,0,l),
(341,0,l),
(341,674,l),
(112,584,l),
(100,617,l),
(328,707,l),
(379,707,l)
);
}
);
width = 574;
}
);
unicode = 49;
}
{
glyphname = two;
layers = (
{
layerId = "D43100D0-4BF9-44C0-ADDC-79172AF58462";
shapes = (
{
closed = 1;
nodes = (
(508,0,l),
(63,0,l),
(59,15,o),
(56,37,o),
(56,62,cs),
(56,164,o),
(96,245,o),
(213,343,cs),
(278,398,o),
(329,453,o),
(329,494,cs),
(329,536,o),
(293,570,o),
(244,570,cs),
(210,570,o),
(173,551,o),
(123,501,c),
(42,615,l),
(86,662,o),
(168,717,o),
(275,717,cs),
(405,717,o),
(513,633,o),
(513,496,cs),
(513,401,o),
(463,341,o),
(374,267,c),
(326,229,o),
(281,180,o),
(246,144,c),
(508,144,l)
);
}
);
width = 574;
},
{
layerId = "B5AFC12C-DAB2-4B68-A31B-D6136A1B144F";
shapes = (
{
closed = 1;
nodes = (
(501,0,l),
(60,0,l),
(56,16,o),
(54,36,o),
(54,57,cs),
(54,179,o),
(121,258,o),
(229,343,cs),
(299,397,o),
(357,448,o),
(357,504,cs),
(357,556,o),
(315,595,o),
(255,595,cs),
(210,595,o),
(166,572,o),
(116,524,c),
(48,620,l),
(101,673,o),
(180,717,o),
(274,717,cs),
(402,717,o),
(506,636,o),
(506,505,cs),
(506,401,o),
(441,342,o),
(353,273,cs),
(293,228,o),
(236,179,o),
(208,120,c),
(501,120,l)
);
}
);
width = 574;
},
{
layerId = "5166C0C3-C3D2-4F7F-8540-ACBC385E7743";
shapes = (
{
closed = 1;
nodes = (
(491,0,l),
(56,0,l),
(52,17,o),
(51,35,o),
(51,50,cs),
(51,202,o),
(158,278,o),
(253,343,cs),
(330,395,o),
(399,441,o),
(399,519,cs),
(399,586,o),
(348,632,o),
(271,632,cs),
(210,632,o),
(155,604,o),
(105,558,c),
(57,627,l),
(123,689,o),
(198,717,o),
(273,717,cs),
(398,717,o),
(496,640,o),
(496,518,cs),
(496,401,o),
(408,343,o),
(322,282,cs),
(244,226,o),
(168,177,o),
(151,84,c),
(491,84,l)
);
}
);
width = 574;
},
{
layerId = "64AEFF5A-033C-4F54-96AE-A64261A50D57";
shapes = (
{
closed = 1;
nodes = (
(473,0,l),
(68,0,l),
(67,16,o),
(67,21,o),
(67,29,cs),
(67,186,o),
(173,257,o),
(287,333,cs),
(373,391,o),
(440,433,o),
(440,525,cs),
(440,620,o),
(364,681,o),
(266,681,cs),
(204,681,o),
(144,657,o),
(90,615,c),
(70,643,l),
(124,689,o),
(198,717,o),
(268,717,cs),
(383,717,o),
(480,643,o),
(480,526,cs),
(480,416,o),
(399,365,o),
(313,307,cs),
(204,234,o),
(110,171,o),
(107,35,c),
(473,35,l)
);
}
);
width = 574;
}
);
unicode = 50;
}
{
glyphname = three;
layers = (
{
layerId = "F976A6FE-4F5D-4CD4-867C-EF90278DFFCC";
shapes = (
{
closed = 1;
nodes = (
(100,206,l),
(140,166,o),
(182,137,o),
(243,137,cs),
(305,137,o),
(339,169,o),
(339,213,cs),
(339,267,o),
(294,295,o),
(225,295,cs),
(184,295,l),
(184,434,l),
(213,434,ls),
(271,434,o),
(311,460,o),
(311,506,cs),
(311,546,o),
(287,570,o),
(243,570,cs),
(199,570,o),
(154,549,o),
(105,501,c),
(24,615,l),
(69,662,o),
(154,717,o),
(270,717,cs),
(408,717,o),
(495,636,o),
(495,539,cs),
(495,447,o),
(418,398,o),
(363,370,c),
(461,344,o),
(524,290,o),
(524,188,cs),
(524,58,o),
(413,-10,o),
(259,-10,cs),
(145,-10,o),
(81,25,o),
(17,92,c)
);
}
);
width = 574;
},
{
layerId = "ECD81CFE-BAA5-49B6-8B8C-C1187BD9FB4D";
shapes = (
{
closed = 1;
nodes = (
(89,183,l),
(129,143,o),
(185,112,o),
(250,112,cs),
(320,112,o),
(368,148,o),
(368,206,cs),
(368,271,o),
(310,307,o),
(234,307,cs),
(185,307,l),
(185,424,l),
(222,424,ls),
(288,424,o),
(338,455,o),
(338,513,cs),
(338,565,o),
(302,595,o),
(249,595,cs),
(201,595,o),
(151,572,o),
(101,524,c),
(33,620,l),
(86,673,o),
(167,717,o),
(266,717,cs),
(402,717,o),
(487,633,o),
(487,535,cs),
(487,450,o),
(423,400,o),
(361,370,c),
(451,343,o),
(517,287,o),
(517,189,cs),
(517,69,o),
(415,-10,o),
(260,-10,cs),
(162,-10,o),
(86,20,o),
(20,87,c)
);
}
);
width = 574;
},
{
layerId = "05C01135-6C20-4612-9616-E32239DF772F";
shapes = (
{
closed = 1;
nodes = (
(72,149,l),
(113,108,o),
(190,75,o),
(261,75,cs),
(342,75,o),
(411,117,o),
(411,196,cs),
(411,277,o),
(334,325,o),
(247,325,cs),
(187,325,l),
(187,409,l),
(236,409,ls),
(314,409,o),
(379,448,o),
(379,523,cs),
(379,593,o),
(324,632,o),
(258,632,cs),
(204,632,o),
(147,606,o),
(95,558,c),
(46,627,l),
(112,689,o),
(186,717,o),
(260,717,cs),
(393,717,o),
(475,628,o),
(475,529,cs),
(475,455,o),
(431,403,o),
(358,370,c),
(436,341,o),
(507,283,o),
(507,190,cs),
(507,85,o),
(418,-10,o),
(261,-10,cs),
(187,-10,o),
(94,13,o),
(24,80,c)
);
}
);
width = 574;
},
{
layerId = "E82A1E35-09AC-49BD-B418-47901BDD1DB1";
shapes = (
{
closed = 1;
nodes = (
(62,92,l),
(120,47,o),
(186,26,o),
(256,26,cs),
(369,26,o),
(455,84,o),
(455,187,cs),
(455,283,o),
(381,350,o),
(258,350,cs),
(196,350,l),
(196,386,l),
(242,386,ls),
(362,386,o),
(423,454,o),
(423,537,cs),
(423,624,o),
(352,681,o),
(261,681,cs),
(199,681,o),
(136,655,o),
(85,615,c),
(65,643,l),
(118,688,o),
(190,717,o),
(263,717,cs),
(378,717,o),
(462,643,o),
(462,536,cs),
(462,436,o),
(384,383,o),
(334,371,c),
(405,358,o),
(494,301,o),
(494,185,cs),
(494,63,o),
(397,-10,o),
(256,-10,cs),
(172,-10,o),
(100,16,o),
(42,64,c)
);
}
);
width = 574;
}
);
unicode = 51;
}
{
glyphname = four;
layers = (
{
layerId = "F976A6FE-4F5D-4CD4-867C-EF90278DFFCC";
shapes = (
{
closed = 1;
nodes = (
(487,0,l),
(333,0,l),
(333,141,l),
(29,141,l),
(19,230,l),
(343,707,l),
(487,707,l),
(487,276,l),
(556,276,l),
(556,141,l),
(487,141,l)
);
},
{
closed = 1;
nodes = (
(333,276,l),
(333,456,l),
(209,276,l)
);
}
);
width = 574;
},
{
layerId = "ECD81CFE-BAA5-49B6-8B8C-C1187BD9FB4D";
shapes = (
{
closed = 1;
nodes = (
(474,0,l),
(346,0,l),
(346,150,l),
(32,150,l),
(24,223,l),
(352,707,l),
(474,707,l),
(474,263,l),
(549,263,l),
(549,150,l),
(474,150,l)
);
},
{
closed = 1;
nodes = (
(346,263,l),
(346,501,l),
(184,263,l)
);
}
);
width = 574;
},
{
layerId = "05C01135-6C20-4612-9616-E32239DF772F";
shapes = (
{
closed = 1;
nodes = (
(455,0,l),
(365,0,l),
(365,164,l),
(36,164,l),
(31,213,l),
(365,707,l),
(455,707,l),
(455,244,l),
(538,244,l),
(538,164,l),
(455,164,l)
);
},
{
closed = 1;
nodes = (
(365,244,l),
(365,569,l),
(146,244,l)
);
}
);
width = 574;
},
{
layerId = "E82A1E35-09AC-49BD-B418-47901BDD1DB1";
shapes = (
{
closed = 1;
nodes = (
(433,0,l),
(395,0,l),
(395,174,l),
(40,174,l),
(36,208,l),
(380,707,l),
(433,707,l),
(433,209,l),
(519,209,l),
(519,174,l),
(433,174,l)
);
},
{
closed = 1;
nodes = (
(395,209,l),
(395,669,l),
(80,209,l)
);
}
);
width = 574;
}
);
unicode = 52;
}
{
glyphname = five;
layers = (
{
layerId = "F976A6FE-4F5D-4CD4-867C-EF90278DFFCC";
shapes = (
{
closed = 1;
nodes = (
(113,206,l),
(160,156,o),
(201,137,o),
(247,137,cs),
(306,137,o),
(349,173,o),
(349,232,cs),
(349,301,o),
(294,329,o),
(244,329,cs),
(216,329,o),
(190,323,o),
(170,309,c),
(77,367,l),
(89,707,l),
(485,707,l),
(485,563,l),
(246,563,l),
(241,451,l),
(266,455,o),
(286,458,o),
(308,458,cs),
(422,458,o),
(531,384,o),
(531,226,cs),
(531,79,o),
(403,-10,o),
(270,-10,cs),
(188,-10,o),
(87,25,o),
(30,92,c)
);
}
);
width = 574;
},
{
layerId = "ECD81CFE-BAA5-49B6-8B8C-C1187BD9FB4D";
shapes = (
{
closed = 1;
nodes = (
(106,183,l),
(154,135,o),
(200,112,o),
(256,112,cs),
(327,112,o),
(378,152,o),
(378,225,cs),
(378,306,o),
(315,341,o),
(253,341,cs),
(221,341,o),
(185,334,o),
(153,314,c),
(81,361,l),
(94,707,l),
(479,707,l),
(479,587,l),
(223,587,l),
(217,438,l),
(245,446,o),
(273,451,o),
(301,451,cs),
(417,451,o),
(526,373,o),
(526,222,cs),
(526,80,o),
(410,-10,o),
(271,-10,cs),
(189,-10,o),
(100,21,o),
(38,87,c)
);
}
);
width = 574;
},
{
layerId = "05C01135-6C20-4612-9616-E32239DF772F";
shapes = (
{
closed = 1;
nodes = (
(96,148,l),
(145,103,o),
(199,75,o),
(269,75,cs),
(358,75,o),
(421,120,o),
(421,214,cs),
(421,314,o),
(347,359,o),
(266,359,cs),
(229,359,o),
(178,351,o),
(128,322,c),
(87,352,l),
(101,707,l),
(470,707,l),
(470,623,l),
(189,623,l),
(181,419,l),
(213,432,o),
(253,440,o),
(290,440,cs),
(410,440,o),
(518,356,o),
(518,216,cs),
(518,81,o),
(421,-10,o),
(272,-10,cs),
(190,-10,o),
(119,15,o),
(50,80,c)
);
}
);
width = 574;
},
{
layerId = "E82A1E35-09AC-49BD-B418-47901BDD1DB1";
shapes = (
{
closed = 1;
nodes = (
(86,92,l),
(135,52,o),
(201,26,o),
(271,26,cs),
(378,26,o),
(462,85,o),
(462,207,cs),
(462,332,o),
(375,387,o),
(281,387,cs),
(223,387,o),
(170,366,o),
(127,341,c),
(101,360,l),
(115,707,l),
(460,707,l),
(460,672,l),
(151,672,l),
(141,380,l),
(185,406,o),
(233,423,o),
(287,423,cs),
(400,423,o),
(502,351,o),
(502,207,cs),
(502,67,o),
(406,-10,o),
(271,-10,cs),
(190,-10,o),
(120,18,o),
(66,63,c)
);
}
);
width = 574;
}
);
unicode = 53;
}
{
glyphname = six;
layers = (
{
layerId = "D43100D0-4BF9-44C0-ADDC-79172AF58462";
shapes = (
{
closed = 1;
nodes = (
(474,524,l),
(434,547,o),
(387,570,o),
(337,570,cs),
(254,570,o),
(223,534,o),
(213,420,c),
(252,443,o),
(293,457,o),
(339,457,cs),
(443,457,o),
(547,378,o),
(547,240,cs),
(547,100,o),
(461,-10,o),
(310,-10,cs),
(110,-10,o),
(44,156,o),
(44,343,cs),
(44,530,o),
(95,717,o),
(331,717,cs),
(405,717,o),
(469,691,o),
(525,656,c)
);
},
{
closed = 1;
nodes = (
(215,181,o),
(243,137,o),
(297,137,cs),
(346,137,o),
(377,182,o),
(377,235,cs),
(377,286,o),
(344,328,o),
(290,328,cs),
(248,328,o),
(246,321,o),
(212,303,c)
);
}
);
width = 574;
},
{
layerId = "B5AFC12C-DAB2-4B68-A31B-D6136A1B144F";
shapes = (
{
closed = 1;
nodes = (
(465,549,l),
(425,574,o),
(375,595,o),
(328,595,cs),
(231,595,o),
(195,523,o),
(187,401,c),
(229,433,o),
(278,453,o),
(332,453,cs),
(444,453,o),
(541,367,o),
(541,232,cs),
(541,93,o),
(450,-10,o),
(307,-10,cs),
(116,-10,o),
(48,157,o),
(48,342,cs),
(48,508,o),
(94,717,o),
(323,717,cs),
(390,717,o),
(452,696,o),
(510,659,c)
);
},
{
closed = 1;
nodes = (
(194,170,o),
(232,112,o),
(301,112,cs),
(363,112,o),
(400,165,o),
(400,229,cs),
(400,294,o),
(361,341,o),
(295,341,cs),
(238,341,o),
(228,331,o),
(187,298,c)
);
}
);
width = 574;
},
{
layerId = "5166C0C3-C3D2-4F7F-8540-ACBC385E7743";
shapes = (
{
closed = 1;
nodes = (
(452,587,l),
(411,615,o),
(357,632,o),
(315,632,cs),
(197,632,o),
(153,507,o),
(148,372,c),
(194,418,o),
(255,447,o),
(322,447,cs),
(446,447,o),
(532,350,o),
(532,220,cs),
(532,82,o),
(433,-10,o),
(302,-10,cs),
(125,-10,o),
(54,158,o),
(54,340,cs),
(54,475,o),
(93,717,o),
(311,717,cs),
(367,717,o),
(426,703,o),
(487,663,c)
);
},
{
closed = 1;
nodes = (
(162,154,o),
(216,75,o),
(307,75,cs),
(389,75,o),
(435,140,o),
(435,220,cs),
(435,306,o),
(386,361,o),
(303,361,cs),
(223,361,o),
(201,346,o),
(150,290,c)
);
}
);
width = 574;
},
{
layerId = "64AEFF5A-033C-4F54-96AE-A64261A50D57";
shapes = (
{
closed = 1;
nodes = (
(455,643,l),
(406,669,o),
(361,681,o),
(317,681,cs),
(160,681,o),
(100,531,o),
(100,327,c),
(139,371,o),
(204,427,o),
(310,427,cs),
(438,427,o),
(514,335,o),
(514,211,cs),
(514,79,o),
(426,-10,o),
(301,-10,cs),
(141,-10,o),
(61,134,o),
(61,346,cs),
(61,554,o),
(142,717,o),
(316,717,cs),
(370,717,o),
(419,703,o),
(469,675,c)
);
},
{
closed = 1;
nodes = (
(116,130,o),
(182,26,o),
(303,26,cs),
(408,26,o),
(475,107,o),
(475,211,cs),
(475,315,o),
(412,391,o),
(304,391,cs),
(216,391,o),
(165,365,o),
(102,284,c)
);
}
);
width = 574;
}
);
unicode = 54;
}
{
glyphname = seven;
layers = (
{
layerId = "BC1C0262-B179-41F2-9022-DD18C3300059";
shapes = (
{
closed = 1;
nodes = (
(136,0,l),
(136,101,o),
(157,205,o),
(188,300,c),
(220,396,o),
(262,486,o),
(307,563,c),
(45,563,l),
(45,707,l),
(513,707,l),
(525,617,l),
(476,535,o),
(424,442,o),
(381,339,c),
(340,233,o),
(308,118,o),
(308,0,c)
);
}
);
width = 574;
},
{
layerId = "022C621B-D9C5-4075-856F-99776A9BB9BC";
shapes = (
{
closed = 1;
nodes = (
(156,0,l),
(156,107,o),
(180,216,o),
(215,316,cs),
(251,416,o),
(297,508,o),
(342,587,c),
(49,587,l),
(49,707,l),
(510,707,l),
(519,629,l),
(467,541,o),
(413,445,o),
(370,340,cs),
(328,234,o),
(297,119,o),
(297,0,c)
);
}
);
width = 574;
},
{
layerId = "F46EB350-572D-40B6-8F96-70923BCB3D86";
shapes = (
{
closed = 1;
nodes = (
(186,0,l),
(186,116,o),
(215,233,o),
(256,340,cs),
(297,446,o),
(350,541,o),
(395,623,c),
(55,623,l),
(55,707,l),
(505,707,l),
(510,647,l),
(454,550,o),
(396,449,o),
(353,342,cs),
(310,235,o),
(280,120,o),
(280,0,c)
);
}
);
width = 574;
},
{
layerId = "7900522D-7321-4A46-8482-E4D00C1490A1";
shapes = (
{
closed = 1;
nodes = (
(218,0,l),
(218,134,o),
(247,254,o),
(292,364,cs),
(337,474,o),
(396,573,o),
(455,672,c),
(68,672,l),
(68,707,l),
(496,707,l),
(498,677,l),
(432,569,o),
(372,464,o),
(327,353,cs),
(283,243,o),
(255,128,o),
(255,0,c)
);
}
);
width = 574;
}
);
unicode = 55;
}
{
glyphname = eight;
layers = (
{
layerId = "B6DF85F1-EBFC-49D5-83CF-7D86C417AD4B";
shapes = (
{
closed = 1;
nodes = (
(422,-10,o),
(545,52,o),
(545,200,cs),
(545,283,o),
(500,339,o),
(425,371,c),
(488,401,o),
(528,457,o),
(528,527,cs),
(528,661,o),
(407,717,o),
(289,717,cs),
(165,717,o),
(47,669,o),
(47,526,cs),
(47,456,o),
(86,401,o),
(150,371,c),
(74,340,o),
(30,284,o),
(30,200,cs),
(30,51,o),
(157,-10,o),
(289,-10,cs)
);
},
{
closed = 1;
nodes = (
(233,123,o),
(209,160,o),
(209,213,cs),
(209,267,o),
(232,302,o),
(289,302,cs),
(346,302,o),
(366,266,o),
(366,213,cs),
(366,160,o),
(345,123,o),
(289,123,cs)
);
},
{
closed = 1;
nodes = (
(242,435,o),
(225,468,o),
(225,510,cs),
(225,552,o),
(243,584,o),
(289,584,cs),
(337,584,o),
(350,553,o),
(350,509,cs),
(350,467,o),
(336,435,o),
(289,435,cs)
);
}
);
width = 574;
},
{
layerId = "D243B678-AA35-4622-BFB2-DA5F5B4AAB22";
shapes = (
{
closed = 1;
nodes = (
(417,-10,o),
(539,53,o),
(539,196,cs),
(539,281,o),
(491,340,o),
(414,371,c),
(479,400,o),
(520,458,o),
(520,529,cs),
(520,658,o),
(403,717,o),
(289,717,cs),
(171,717,o),
(55,662,o),
(55,528,cs),
(55,458,o),
(97,400,o),
(161,371,c),
(85,341,o),
(37,281,o),
(37,196,cs),
(37,53,o),
(161,-10,o),
(289,-10,cs)
);
},
{
closed = 1;
nodes = (
(224,103,o),
(182,142,o),
(182,207,cs),
(182,273,o),
(222,313,o),
(289,313,cs),
(355,313,o),
(394,273,o),
(394,207,cs),
(394,142,o),
(353,103,o),
(289,103,cs)
);
},
{
closed = 1;
nodes = (
(235,425,o),
(200,461,o),
(200,515,cs),
(200,570,o),
(234,604,o),
(289,604,cs),
(345,604,o),
(375,571,o),
(375,515,cs),
(375,460,o),
(344,425,o),
(289,425,cs)
);
}
);
width = 574;
},
{
layerId = "7D45EC82-E8BB-4AC3-AEF4-676BB722768B";
shapes = (
{
closed = 1;
nodes = (
(409,-10,o),
(529,56,o),
(529,190,cs),
(529,277,o),
(475,341,o),
(397,372,c),
(463,399,o),
(507,459,o),
(507,532,cs),
(507,652,o),
(396,717,o),
(287,717,cs),
(179,717,o),
(67,651,o),
(67,532,cs),
(67,460,o),
(112,399,o),
(177,372,c),
(100,342,o),
(45,275,o),
(45,190,cs),
(45,57,o),
(167,-10,o),
(287,-10,cs)
);
},
{
closed = 1;
nodes = (
(210,73,o),
(139,113,o),
(139,199,cs),
(139,284,o),
(207,329,o),
(287,329,cs),
(367,329,o),
(435,285,o),
(435,199,cs),
(435,113,o),
(364,73,o),
(287,73,cs)
);
},
{
closed = 1;
nodes = (
(221,411,o),
(161,452,o),
(161,523,cs),
(161,599,o),
(217,634,o),
(287,634,cs),
(356,634,o),
(414,599,o),
(414,524,cs),
(414,451,o),
(355,411,o),
(287,411,cs)
);
}
);
width = 574;
},
{
layerId = "0550E5A5-F26C-45AF-9FA2-5FA21B0BB434";
shapes = (
{
closed = 1;
nodes = (
(406,-10,o),
(515,55,o),
(515,185,cs),
(515,281,o),
(458,339,o),
(372,371,c),
(443,399,o),
(494,458,o),
(494,537,cs),
(494,656,o),
(397,717,o),
(287,717,cs),
(178,717,o),
(81,655,o),
(81,537,cs),
(81,458,o),
(131,399,o),
(203,371,c),
(118,340,o),
(60,279,o),
(60,185,cs),
(60,56,o),
(169,-10,o),
(287,-10,cs)
);
},
{
closed = 1;
nodes = (
(188,26,o),
(99,76,o),
(99,185,cs),
(99,291,o),
(186,352,o),
(287,352,cs),
(388,352,o),
(476,291,o),
(476,185,cs),
(476,75,o),
(386,26,o),
(287,26,cs)
);
},
{
closed = 1;
nodes = (
(199,387,o),
(120,442,o),
(120,536,cs),
(120,631,o),
(199,681,o),
(287,681,cs),
(375,681,o),
(455,632,o),
(455,536,cs),
(455,441,o),
(376,387,o),
(287,387,cs)
);
}
);
width = 574;
}
);
unicode = 56;
}
{
glyphname = nine;
layers = (
{
layerId = "D43100D0-4BF9-44C0-ADDC-79172AF58462";
shapes = (
{
closed = 1;
nodes = (
(105,187,l),
(150,159,o),
(204,137,o),
(255,137,cs),
(326,137,o),
(363,173,o),
(373,281,c),
(315,252,o),
(286,250,o),
(251,250,cs),
(120,250,o),
(39,350,o),
(39,470,cs),
(39,599,o),
(126,717,o),
(284,717,cs),
(470,717,o),
(543,549,o),
(543,355,cs),
(543,151,o),
(465,-10,o),
(269,-10,cs),
(176,-10,o),
(97,25,o),
(54,58,c)
);
},
{
closed = 1;
nodes = (
(370,511,o),
(352,570,o),
(290,570,cs),
(237,570,o),
(209,524,o),
(209,472,cs),
(209,422,o),
(234,380,o),
(291,380,cs),
(310,380,o),
(342,388,o),
(375,408,c)
);
}
);
width = 574;
},
{
layerId = "B5AFC12C-DAB2-4B68-A31B-D6136A1B144F";
shapes = (
{
closed = 1;
nodes = (
(97,165,l),
(143,137,o),
(198,112,o),
(254,112,cs),
(347,112,o),
(386,182,o),
(394,304,c),
(341,268,o),
(300,255,o),
(252,255,cs),
(126,255,o),
(40,352,o),
(40,477,cs),
(40,603,o),
(125,717,o),
(279,717,cs),
(463,717,o),
(534,550,o),
(534,358,cs),
(534,163,o),
(462,-10,o),
(263,-10,cs),
(179,-10,o),
(103,20,o),
(53,57,c)
);
},
{
closed = 1;
nodes = (
(386,538,o),
(346,595,o),
(281,595,cs),
(216,595,o),
(181,541,o),
(181,478,cs),
(181,412,o),
(219,367,o),
(284,367,cs),
(314,367,o),
(370,392,o),
(394,412,c)
);
}
);
width = 574;
},
{
layerId = "5166C0C3-C3D2-4F7F-8540-ACBC385E7743";
shapes = (
{
closed = 1;
nodes = (
(85,132,l),
(132,104,o),
(189,75,o),
(252,75,cs),
(379,75,o),
(421,196,o),
(426,338,c),
(380,292,o),
(321,262,o),
(254,262,cs),
(135,262,o),
(42,355,o),
(42,487,cs),
(42,609,o),
(123,717,o),
(272,717,cs),
(453,717,o),
(521,552,o),
(521,362,cs),
(521,181,o),
(458,-10,o),
(254,-10,cs),
(183,-10,o),
(112,13,o),
(51,56,c)
);
},
{
closed = 1;
nodes = (
(410,579,o),
(337,632,o),
(267,632,cs),
(185,632,o),
(139,566,o),
(139,487,cs),
(139,397,o),
(196,348,o),
(273,348,cs),
(351,348,o),
(373,364,o),
(423,418,c)
);
}
);
width = 574;
},
{
layerId = "64AEFF5A-033C-4F54-96AE-A64261A50D57";
shapes = (
{
closed = 1;
nodes = (
(80,87,l),
(141,46,o),
(200,26,o),
(254,26,cs),
(406,26,o),
(464,178,o),
(464,378,c),
(415,323,o),
(347,280,o),
(260,280,cs),
(131,280,o),
(58,374,o),
(58,497,cs),
(58,628,o),
(146,717,o),
(267,717,cs),
(424,717,o),
(504,573,o),
(504,361,cs),
(504,152,o),
(425,-10,o),
(254,-10,cs),
(183,-10,o),
(118,17,o),
(64,55,c)
);
},
{
closed = 1;
nodes = (
(449,577,o),
(383,681,o),
(266,681,cs),
(167,681,o),
(97,604,o),
(97,495,cs),
(97,392,o),
(160,316,o),
(263,316,cs),
(367,316,o),
(403,344,o),
(462,423,c)
);
}
);
width = 574;
}
);
unicode = 57;
}
{
glyphname = colon;
layers = (
{
layerId = "B6DF85F1-EBFC-49D5-83CF-7D86C417AD4B";
shapes = (
{
closed = 1;
nodes = (
(243,146,o),
(195,176,o),
(137,176,cs),
(81,176,o),
(30,145,o),
(30,83,cs),
(30,21,o),
(81,-10,o),
(137,-10,cs),
(195,-10,o),
(243,21,o),
(243,83,cs)
);
},
{
closed = 1;
nodes = (
(243,492,o),
(195,522,o),
(137,522,cs),
(81,522,o),
(30,491,o),
(30,429,cs),
(30,367,o),
(81,336,o),
(137,336,cs),
(195,336,o),
(243,367,o),
(243,429,cs)
);
}
);
width = 274;
},
{
layerId = "D243B678-AA35-4622-BFB2-DA5F5B4AAB22";
shapes = (
{
closed = 1;
nodes = (
(226,123,o),
(187,150,o),
(137,150,cs),
(89,150,o),
(48,122,o),
(48,70,cs),
(48,18,o),
(89,-10,o),
(137,-10,cs),
(187,-10,o),
(226,17,o),
(226,70,cs)
);
},
{
closed = 1;
nodes = (
(226,489,o),
(187,516,o),
(137,516,cs),
(89,516,o),
(48,488,o),
(48,436,cs),
(48,384,o),
(89,356,o),
(137,356,cs),
(187,356,o),
(226,383,o),
(226,436,cs)
);
}
);
width = 274;
},
{
layerId = "7D45EC82-E8BB-4AC3-AEF4-676BB722768B";
shapes = (
{
closed = 1;
nodes = (
(200,89,o),
(175,111,o),
(137,111,cs),
(100,111,o),
(74,88,o),
(74,50,cs),
(74,13,o),
(101,-10,o),
(137,-10,cs),
(174,-10,o),
(200,11,o),
(200,50,cs)
);
},
{
closed = 1;
nodes = (
(200,485,o),
(175,507,o),
(137,507,cs),
(100,507,o),
(74,484,o),
(74,446,cs),
(74,409,o),
(101,386,o),
(137,386,cs),
(174,386,o),
(200,407,o),
(200,446,cs)
);
}
);
width = 274;
},
{
layerId = "0550E5A5-F26C-45AF-9FA2-5FA21B0BB434";
shapes = (
{
closed = 1;
nodes = (
(169,44,o),
(157,58,o),
(137,58,cs),
(117,58,o),
(105,44,o),
(105,24,cs),
(105,4,o),
(117,-10,o),
(137,-10,cs),
(157,-10,o),
(169,4,o),
(169,24,cs)
);
},
{
closed = 1;
nodes = (
(169,470,o),
(157,484,o),
(137,484,cs),
(117,484,o),
(105,470,o),
(105,450,cs),
(105,430,o),
(117,416,o),
(137,416,cs),
(157,416,o),
(169,430,o),
(169,450,cs)
);
}
);
width = 274;
}
);
unicode = 58;
}
{
glyphname = semicolon;
layers = (
{
layerId = "F976A6FE-4F5D-4CD4-867C-EF90278DFFCC";
shapes = (
{
closed = 1;
nodes = (
(-8,-124,l),
(35,-48,o),
(65,20,o),
(63,173,c),
(236,156,l),
(236,30,o),
(193,-100,o),
(111,-188,c)
);
},
{
closed = 1;
nodes = (
(256,367,o),
(208,336,o),
(150,336,cs),
(94,336,o),
(43,367,o),
(43,429,cs),
(43,491,o),
(94,522,o),
(150,522,cs),
(208,522,o),
(256,492,o),
(256,429,cs)
);
}
);
width = 274;
},
{
layerId = "ECD81CFE-BAA5-49B6-8B8C-C1187BD9FB4D";
shapes = (
{
closed = 1;
nodes = (
(5,-124,l),
(48,-47,o),
(75,16,o),
(75,148,c),
(219,135,l),
(219,37,o),
(179,-92,o),
(102,-175,c)
);
},
{
closed = 1;
nodes = (
(234,383,o),
(195,356,o),
(145,356,cs),
(97,356,o),
(56,384,o),
(56,436,cs),
(56,488,o),
(97,516,o),
(145,516,cs),
(195,516,o),
(234,489,o),
(234,436,cs)
);
}
);
width = 274;
},
{
layerId = "05C01135-6C20-4612-9616-E32239DF772F";
shapes = (
{
closed = 1;
nodes = (
(24,-124,l),
(67,-46,o),
(89,10,o),
(92,111,c),
(193,103,l),
(193,47,o),
(158,-80,o),
(88,-156,c)
);
},
{
closed = 1;
nodes = (
(200,407,o),
(174,386,o),
(137,386,cs),
(101,386,o),
(74,409,o),
(74,446,cs),
(74,484,o),
(100,507,o),
(137,507,cs),
(175,507,o),
(200,485,o),
(200,446,cs)
);
}
);
width = 274;
},
{
layerId = "E82A1E35-09AC-49BD-B418-47901BDD1DB1";
shapes = (
{
closed = 1;
nodes = (
(65,-123,l),
(98,-58,o),
(117,10,o),
(124,95,c),
(167,91,l),
(156,2,o),
(132,-72,o),
(93,-137,c)
);
},
{
closed = 1;
nodes = (
(176,430,o),
(164,416,o),
(144,416,cs),
(124,416,o),
(112,430,o),
(112,450,cs),
(112,470,o),
(124,484,o),
(144,484,cs),
(164,484,o),
(176,470,o),
(176,450,cs)
);
}
);
width = 274;
}
);
unicode = 59;
}
{
glyphname = less;
layers = (
{
layerId = "F976A6FE-4F5D-4CD4-867C-EF90278DFFCC";
shapes = (
{
closed = 1;
nodes = (
(480,104,l),
(68,284,l),
(68,412,l),
(480,592,l),
(506,442,l),
(258,348,l),
(506,254,l)
);
}
);
width = 576;
},
{
layerId = "ECD81CFE-BAA5-49B6-8B8C-C1187BD9FB4D";
shapes = (
{
closed = 1;
nodes = (
(474,113,l),
(73,287,l),
(73,405,l),
(474,579,l),
(495,456,l),
(215,346,l),
(495,236,l)
);
}
);
width = 568;
},
{
layerId = "05C01135-6C20-4612-9616-E32239DF772F";
shapes = (
{
closed = 1;
nodes = (
(465,126,l),
(80,291,l),
(80,395,l),
(465,560,l),
(478,477,l),
(150,343,l),
(478,209,l)
);
}
);
width = 558;
},
{
layerId = "E82A1E35-09AC-49BD-B418-47901BDD1DB1";
shapes = (
{
closed = 1;
nodes = (
(450,147,l),
(88,323,l),
(88,359,l),
(450,535,l),
(456,498,l),
(121,341,l),
(456,184,l)
);
}
);
width = 544;
}
);
unicode = 60;
}
{
glyphname = equal;
layers = (
{
layerId = "F976A6FE-4F5D-4CD4-867C-EF90278DFFCC";
shapes = (
{
closed = 1;
nodes = (
(521,164,l),
(54,164,l),
(54,296,l),
(521,296,l)
);
},
{
closed = 1;
nodes = (
(521,399,l),
(54,399,l),
(54,531,l),
(521,531,l)
);
}
);
width = 576;
},
{
layerId = "ECD81CFE-BAA5-49B6-8B8C-C1187BD9FB4D";
shapes = (
{
alignment = -1;
pos = (0,-111);
ref = minus;
},
{
alignment = -1;
pos = (0,112);
ref = minus;
}
);
width = 568;
},
{
layerId = "05C01135-6C20-4612-9616-E32239DF772F";
shapes = (
{
alignment = -1;
pos = (0,-101);
ref = minus;
},
{
alignment = -1;
pos = (0,105);
ref = minus;
}
);
width = 558;
},
{
layerId = "E82A1E35-09AC-49BD-B418-47901BDD1DB1";
shapes = (
{
alignment = -1;
pos = (1,-110);
ref = minus;
},
{
alignment = -1;
pos = (1,112);
ref = minus;
}
);
width = 544;
}
);
unicode = 61;
}
{
glyphname = greater;
layers = (
{
layerId = "B6DF85F1-EBFC-49D5-83CF-7D86C417AD4B";
shapes = (
{
closed = 1;
nodes = (
(506,284,l),
(95,104,l),
(68,254,l),
(316,348,l),
(68,442,l),
(95,592,l),
(506,412,l)
);
}
);
width = 575;
},
{
layerId = "D243B678-AA35-4622-BFB2-DA5F5B4AAB22";
shapes = (
{
closed = 1;
nodes = (
(495,287,l),
(94,113,l),
(73,236,l),
(353,346,l),
(73,456,l),
(94,579,l),
(495,405,l)
);
}
);
width = 568;
},
{
layerId = "7D45EC82-E8BB-4AC3-AEF4-676BB722768B";
shapes = (
{
closed = 1;
nodes = (
(478,291,l),
(93,126,l),
(80,209,l),
(408,343,l),
(80,477,l),
(93,560,l),
(478,395,l)
);
}
);
width = 558;
},
{
layerId = "0550E5A5-F26C-45AF-9FA2-5FA21B0BB434";
shapes = (
{
closed = 1;
nodes = (
(456,323,l),
(94,147,l),
(88,184,l),
(423,341,l),
(88,498,l),
(94,535,l),
(456,359,l)
);
}
);
width = 544;
}
);
unicode = 62;
}
{
glyphname = question;
layers = (
{
layerId = "BC1C0262-B179-41F2-9022-DD18C3300059";
shapes = (
{
closed = 1;
nodes = (
(326,237,l),
(333,360,o),
(497,354,o),
(497,511,cs),
(497,649,o),
(379,717,o),
(254,717,cs),
(163,717,o),
(82,681,o),
(20,615,c),
(93,506,l),
(134,540,o),
(184,572,o),
(239,572,cs),
(279,572,o),
(313,553,o),
(313,508,cs),
(313,421,o),
(151,397,o),
(151,237,c)
);
},
{
closed = 1;
nodes = (
(298,-10,o),
(345,21,o),
(345,83,cs),
(345,146,o),
(297,176,o),
(239,176,cs),
(184,176,o),
(133,145,o),
(133,83,cs),
(133,21,o),
(183,-10,o),
(239,-10,cs)
);
}
);
width = 535;
},
{
layerId = "022C621B-D9C5-4075-856F-99776A9BB9BC";
shapes = (
{
closed = 1;
nodes = (
(297,226,l),
(306,361,o),
(477,370,o),
(477,522,cs),
(477,652,o),
(363,717,o),
(245,717,cs),
(161,717,o),
(83,684,o),
(24,625,c),
(83,533,l),
(127,567,o),
(179,596,o),
(236,596,cs),
(284,596,o),
(328,575,o),
(328,521,cs),
(328,424,o),
(156,391,o),
(156,226,c)
);
},
{
closed = 1;
nodes = (
(277,-10,o),
(316,17,o),
(316,70,cs),
(316,123,o),
(277,150,o),
(227,150,cs),
(179,150,o),
(138,122,o),
(138,70,cs),
(138,18,o),
(179,-10,o),
(227,-10,cs)
);
}
);
width = 524;
},
{
layerId = "F46EB350-572D-40B6-8F96-70923BCB3D86";
shapes = (
{
closed = 1;
nodes = (
(253,209,l),
(265,363,o),
(447,394,o),
(447,538,cs),
(447,656,o),
(339,717,o),
(232,717,cs),
(158,717,o),
(85,689,o),
(30,640,c),
(68,574,l),
(117,607,o),
(172,632,o),
(232,632,cs),
(291,632,o),
(351,608,o),
(351,540,cs),
(351,428,o),
(164,382,o),
(164,209,c)
);
},
{
closed = 1;
nodes = (
(246,-10,o),
(272,11,o),
(272,50,cs),
(272,89,o),
(247,111,o),
(209,111,cs),
(172,111,o),
(146,88,o),
(146,50,cs),
(146,13,o),
(173,-10,o),
(209,-10,cs)
);
}
);
width = 507;
},
{
layerId = "7900522D-7321-4A46-8482-E4D00C1490A1";
shapes = (
{
closed = 1;
nodes = (
(211,217,l),
(215,363,o),
(415,409,o),
(415,551,cs),
(415,660,o),
(314,717,o),
(215,717,cs),
(151,717,o),
(85,699,o),
(34,659,c),
(52,629,l),
(101,664,o),
(155,681,o),
(216,681,cs),
(293,681,o),
(375,636,o),
(375,550,cs),
(375,426,o),
(177,381,o),
(173,217,c)
);
},
{
closed = 1;
nodes = (
(214,-10,o),
(226,4,o),
(226,24,cs),
(226,44,o),
(214,58,o),
(194,58,cs),
(174,58,o),
(162,44,o),
(162,24,cs),
(162,4,o),
(174,-10,o),
(194,-10,cs)
);
}
);
width = 482;
}
);
unicode = 63;
}
{
glyphname = at;
layers = (
{
layerId = "F976A6FE-4F5D-4CD4-867C-EF90278DFFCC";
shapes = (
{
closed = 1;
nodes = (
(605,-242,o),
(666,-227,o),
(740,-193,c),
(697,-69,l),
(640,-92,o),
(573,-108,o),
(511,-108,cs),
(315,-108,o),
(194,33,o),
(194,223,cs),
(194,428,o),
(322,568,o),
(530,568,cs),
(717,568,o),
(841,455,o),
(841,265,cs),
(841,211,o),
(832,124,o),
(761,124,cs),
(726,124,o),
(724,166,o),
(724,191,cs),
(724,277,o),
(736,360,o),
(740,446,c),
(619,441,l),
(599,407,l),
(565,438,o),
(521,451,o),
(477,451,cs),
(347,451,o),
(280,329,o),
(280,212,cs),
(280,102,o),
(340,0,o),
(459,0,cs),
(518,0,o),
(559,22,o),
(603,61,c),
(637,15,o),
(696,0,o),
(750,0,cs),
(917,0,o),
(1004,128,o),
(1004,284,cs),
(1004,549,o),
(781,702,o),
(533,702,cs),
(252,702,o),
(32,511,o),
(32,223,cs),
(32,-62,o),
(248,-242,o),
(523,-242,cs)
);
},
{
closed = 1;
nodes = (
(442,271,o),
(456,335,o),
(520,335,cs),
(538,335,o),
(556,328,o),
(571,319,c),
(568,233,o),
(553,243,o),
(571,149,c),
(554,134,o),
(533,127,o),
(510,127,cs),
(452,127,o),
(442,172,o),
(442,220,cs)
);
}
);
width = 1035;
},
{
layerId = "ECD81CFE-BAA5-49B6-8B8C-C1187BD9FB4D";
shapes = (
{
closed = 1;
nodes = (
(596,-242,o),
(657,-227,o),
(731,-193,c),
(695,-90,l),
(634,-115,o),
(570,-131,o),
(504,-131,cs),
(298,-131,o),
(172,20,o),
(172,219,cs),
(172,435,o),
(312,591,o),
(532,591,cs),
(726,591,o),
(852,472,o),
(852,276,cs),
(852,216,o),
(838,105,o),
(758,105,cs),
(719,105,o),
(713,148,o),
(713,178,cs),
(713,268,o),
(723,357,o),
(727,447,c),
(626,441,l),
(610,405,l),
(574,436,o),
(532,451,o),
(485,451,cs),
(354,451,o),
(283,330,o),
(283,211,cs),
(283,102,o),
(343,0,o),
(462,0,cs),
(521,0,o),
(568,25,o),
(611,64,c),
(642,18,o),
(698,0,o),
(751,0,cs),
(912,0,o),
(986,147,o),
(986,290,cs),
(986,550,o),
(780,702,o),
(534,702,cs),
(251,702,o),
(39,506,o),
(39,219,cs),
(39,-60,o),
(240,-242,o),
(514,-242,cs)
);
},
{
closed = 1;
nodes = (
(416,284,o),
(440,351,o),
(516,351,cs),
(541,351,o),
(566,342,o),
(587,329,c),
(585,266,o),
(572,201,o),
(584,139,c),
(561,119,o),
(532,107,o),
(501,107,cs),
(434,107,o),
(416,162,o),
(416,219,cs)
);
}
);
width = 1024;
},
{
layerId = "05C01135-6C20-4612-9616-E32239DF772F";
shapes = (
{
closed = 1;
nodes = (
(582,-242,o),
(644,-227,o),
(718,-193,c),
(692,-122,l),
(625,-149,o),
(566,-165,o),
(494,-165,cs),
(273,-165,o),
(139,0,o),
(139,213,cs),
(139,446,o),
(297,625,o),
(535,625,cs),
(740,625,o),
(869,498,o),
(869,292,cs),
(869,223,o),
(847,77,o),
(754,77,cs),
(708,77,o),
(696,121,o),
(696,159,cs),
(696,255,o),
(703,352,o),
(708,448,c),
(636,441,l),
(627,402,l),
(587,433,o),
(548,451,o),
(497,451,cs),
(365,451,o),
(287,332,o),
(287,210,cs),
(287,102,o),
(348,0,o),
(466,0,cs),
(525,0,o),
(581,29,o),
(623,69,c),
(650,23,o),
(701,0,o),
(753,0,cs),
(904,0,o),
(959,175,o),
(959,299,cs),
(959,551,o),
(779,702,o),
(535,702,cs),
(249,702,o),
(49,498,o),
(49,213,cs),
(49,-57,o),
(228,-242,o),
(500,-242,cs)
);
},
{
closed = 1;
nodes = (
(377,303,o),
(416,375,o),
(510,375,cs),
(546,375,o),
(581,363,o),
(611,344,c),
(610,316,o),
(600,138,o),
(604,124,c),
(572,96,o),
(531,77,o),
(488,77,cs),
(407,77,o),
(377,147,o),
(377,218,cs)
);
}
);
width = 1008;
},
{
layerId = "E82A1E35-09AC-49BD-B418-47901BDD1DB1";
shapes = (
{
closed = 1;
nodes = (
(564,-242,o),
(630,-228,o),
(696,-196,c),
(685,-164,l),
(624,-192,o),
(557,-208,o),
(490,-208,cs),
(240,-208,o),
(93,-30,o),
(93,212,cs),
(93,465,o),
(266,668,o),
(526,668,cs),
(761,668,o),
(899,519,o),
(899,287,cs),
(899,199,o),
(872,33,o),
(755,33,cs),
(689,33,o),
(664,81,o),
(664,141,cs),
(664,239,o),
(670,337,o),
(676,435,c),
(647,433,l),
(639,387,l),
(597,420,o),
(546,441,o),
(492,441,cs),
(362,441,o),
(297,316,o),
(297,200,cs),
(297,89,o),
(359,0,o),
(477,0,cs),
(542,0,o),
(593,27,o),
(637,74,c),
(656,23,o),
(703,0,o),
(755,0,cs),
(899,0,o),
(936,183,o),
(936,295,cs),
(936,541,o),
(775,702,o),
(529,702,cs),
(250,702,o),
(56,485,o),
(56,212,cs),
(56,-56,o),
(216,-242,o),
(491,-242,cs)
);
},
{
closed = 1;
nodes = (
(334,300,o),
(385,408,o),
(494,408,cs),
(550,408,o),
(590,384,o),
(635,353,c),
(632,314,o),
(622,131,o),
(629,105,c),
(587,63,o),
(539,33,o),
(478,33,cs),
(380,33,o),
(334,115,o),
(334,204,cs)
);
}
);
width = 992;
}
);
unicode = 64;
}
{
glyphname = A;
layers = (
{
anchors = (
{
name = top;
position = "{357, 477}";
},
{
name = hook;
position = "{357, 457}";
},
{
name = bottom;
position = "{357, 0}";
}
);
layerId = "D43100D0-4BF9-44C0-ADDC-79172AF58462";
shapes = (
{
closed = 1;
nodes = (
(707,0,l),
(518,0,l),
(470,150,l),
(240,150,l),
(192,0,l),
(8,0,l),
(262,707,l),
(453,707,l)
);
},
{
closed = 1;
nodes = (
(429,288,l),
(355,521,l),
(281,288,l)
);
}
);
width = 715;
},
{
anchors = (
{
name = top;
position = "{349, 477}";
},
{
name = Anchor_7;
position = "{349, 517}";
},
{
name = hook;
position = "{349, 457}";
},
{
name = Anchor_10;
position = "{349, 497}";
},
{
name = bottom;
position = "{349, 0}";
}
);
layerId = "B5AFC12C-DAB2-4B68-A31B-D6136A1B144F";
shapes = (
{
closed = 1;
nodes = (
(689,0,l),
(535,0,l),
(475,173,l),
(219,173,l),
(159,0,l),
(10,0,l),
(275,707,l),
(424,707,l)
);
},
{
closed = 1;
nodes = (
(438,287,l),
(347,550,l),
(256,287,l)
);
}
);
width = 699;
},
{
anchors = (
{
name = top;
position = "{337, 477}";
},
{
name = Anchor_5;
position = "{337, 517}";
},
{
name = hook;
position = "{337, 457}";
},
{
name = Anchor_8;
position = "{337, 497}";
},
{
name = bottom;
position = "{337, 0}";
}
);
layerId = "5166C0C3-C3D2-4F7F-8540-ACBC385E7743";
shapes = (
{
closed = 1;
nodes = (
(662,0,l),
(561,0,l),
(482,207,l),
(188,207,l),
(109,0,l),
(13,0,l),
(294,707,l),
(381,707,l)
);
},
{
closed = 1;
nodes = (
(452,286,l),
(335,594,l),
(218,286,l)
);
}
);
width = 675;
},
{
anchors = (
{
name = top;
position = "{317, 477}";
},
{
name = Anchor_6;
position = "{317, 517}";
},
{
name = hook;
position = "{317, 457}";
},
{
name = Anchor_9;
position = "{317, 497}";
},
{
name = bottom;
position = "{317, 0}";
}
);
layerId = "64AEFF5A-033C-4F54-96AE-A64261A50D57";
shapes = (
{
closed = 1;
nodes = (
(623,0,l),
(580,0,l),
(489,231,l),
(146,231,l),
(56,0,l),
(14,0,l),
(298,707,l),
(338,707,l)
);
},
{
closed = 1;
nodes = (
(475,266,l),
(317,668,l),
(160,266,l)
);
}
);
width = 637;
}
);
unicode = 65;
}
{
glyphname = B;
layers = (
{
layerId = "B6DF85F1-EBFC-49D5-83CF-7D86C417AD4B";
shapes = (
{
closed = 1;
nodes = (
(59,0,l),
(59,707,l),
(365,707,ls),
(506,707,o),
(595,637,o),
(595,528,cs),
(595,455,o),
(552,404,o),
(488,366,c),
(572,336,o),
(628,284,o),
(628,191,cs),
(628,75,o),
(537,0,o),
(389,0,cs)
);
},
{
closed = 1;
nodes = (
(373,136,ls),
(417,136,o),
(452,164,o),
(452,211,cs),
(452,262,o),
(418,284,o),
(373,284,cs),
(235,284,l),
(235,136,l)
);
},
{
closed = 1;
nodes = (
(340,422,ls),
(382,422,o),
(419,451,o),
(419,497,cs),
(419,547,o),
(385,571,o),
(340,571,cs),
(235,571,l),
(235,422,l)
);
}
);
width = 653;
},
{
layerId = "D243B678-AA35-4622-BFB2-DA5F5B4AAB22";
shapes = (
{
closed = 1;
nodes = (
(72,0,l),
(72,707,l),
(354,707,ls),
(494,707,o),
(583,637,o),
(583,528,cs),
(583,452,o),
(538,402,o),
(474,367,c),
(561,336,o),
(616,281,o),
(616,190,cs),
(616,71,o),
(518,0,o),
(380,0,cs)
);
},
{
closed = 1;
nodes = (
(370,114,ls),
(430,114,o),
(472,148,o),
(472,205,cs),
(472,265,o),
(429,299,o),
(370,299,cs),
(215,299,l),
(215,114,l)
);
},
{
closed = 1;
nodes = (
(337,413,ls),
(397,413,o),
(439,448,o),
(439,504,cs),
(439,561,o),
(400,593,o),
(337,593,cs),
(215,593,l),
(215,413,l)
);
}
);
width = 646;
},
{
layerId = "7D45EC82-E8BB-4AC3-AEF4-676BB722768B";
shapes = (
{
closed = 1;
nodes = (
(91,0,l),
(91,707,l),
(337,707,ls),
(476,707,o),
(565,637,o),
(565,528,cs),
(565,448,o),
(517,399,o),
(453,368,c),
(544,336,o),
(598,277,o),
(598,189,cs),
(598,65,o),
(490,0,o),
(367,0,cs)
);
},
{
closed = 1;
nodes = (
(366,81,ls),
(450,81,o),
(502,124,o),
(502,196,cs),
(502,270,o),
(446,322,o),
(366,322,cs),
(185,322,l),
(185,81,l)
);
},
{
closed = 1;
nodes = (
(332,400,ls),
(419,400,o),
(469,444,o),
(469,515,cs),
(469,582,o),
(423,626,o),
(332,626,cs),
(185,626,l),
(185,400,l)
);
}
);
width = 636;
},
{
layerId = "0550E5A5-F26C-45AF-9FA2-5FA21B0BB434";
shapes = (
{
closed = 1;
nodes = (
(104,0,l),
(104,707,l),
(338,707,ls),
(456,707,o),
(544,641,o),
(544,528,cs),
(544,427,o),
(475,383,o),
(435,367,c),
(496,351,o),
(577,296,o),
(577,183,cs),
(577,66,o),
(490,0,o),
(369,0,cs)
);
},
{
closed = 1;
nodes = (
(368,35,ls),
(464,35,o),
(537,84,o),
(537,184,cs),
(537,284,o),
(463,344,o),
(368,344,cs),
(142,344,l),
(142,35,l)
);
},
{
closed = 1;
nodes = (
(332,379,ls),
(441,379,o),
(504,436,o),
(504,527,cs),
(504,622,o),
(433,672,o),
(332,672,cs),
(142,672,l),
(142,379,l)
);
}
);
width = 620;
}
);
unicode = 66;
}
{
glyphname = C;
layers = (
{
anchors = (
{
name = top;
position = "{389, 477}";
},
{
name = hook;
position = "{396, 457}";
}
);
layerId = "D222E232-D60B-4B2D-8951-17F11CA2060F";
shapes = (
{
closed = 1;
nodes = (
(636,55,l),
(573,17,o),
(500,-10,o),
(399,-10,cs),
(154,-10,o),
(36,153,o),
(36,353,cs),
(36,554,o),
(152,717,o),
(396,717,cs),
(497,717,o),
(577,689,o),
(636,652,c),
(575,526,l),
(526,553,o),
(460,569,o),
(411,569,cs),
(291,569,o),
(218,483,o),
(218,353,cs),
(218,224,o),
(291,138,o),
(411,138,cs),
(460,138,o),
(526,154,o),
(575,181,c)
);
}
);
width = 654;
},
{
anchors = (
{
name = top;
position = "{384, 477}";
},
{
name = Anchor_7;
position = "{390, 517}";
},
{
name = hook;
position = "{382, 457}";
}
);
layerId = "836ED3A4-1AF9-4FCB-B992-725D22F47718";
shapes = (
{
closed = 1;
nodes = (
(628,54,l),
(568,17,o),
(487,-10,o),
(390,-10,cs),
(154,-10,o),
(43,156,o),
(43,353,cs),
(43,551,o),
(154,717,o),
(390,717,cs),
(487,717,o),
(568,690,o),
(628,653,c),
(578,547,l),
(515,580,o),
(447,594,o),
(398,594,cs),
(261,594,o),
(191,489,o),
(191,353,cs),
(191,218,o),
(261,113,o),
(398,113,cs),
(447,113,o),
(515,127,o),
(578,160,c)
);
}
);
width = 649;
},
{
anchors = (
{
name = top;
position = "{376, 477}";
},
{
name = Anchor_5;
position = "{383, 517}";
},
{
name = hook;
position = "{361, 457}";
}
);
layerId = "D4BE8965-D6E9-455E-8A03-697C08C086AB";
shapes = (
{
closed = 1;
nodes = (
(616,52,l),
(560,17,o),
(467,-10,o),
(377,-10,cs),
(154,-10,o),
(54,161,o),
(54,353,cs),
(54,546,o),
(157,717,o),
(381,717,cs),
(472,717,o),
(555,691,o),
(616,655,c),
(582,579,l),
(498,620,o),
(427,632,o),
(379,632,cs),
(216,632,o),
(150,498,o),
(150,353,cs),
(150,209,o),
(216,75,o),
(379,75,cs),
(427,75,o),
(498,87,o),
(582,128,c)
);
}
);
width = 642;
},
{
anchors = (
{
name = top;
position = "{370, 477}";
},
{
name = Anchor_6;
position = "{382, 517}";
},
{
name = hook;
position = "{360, 457}";
}
);
layerId = "26E6130D-B3C9-45B2-A3C5-02C986E91ADD";
shapes = (
{
closed = 1;
nodes = (
(585,39,l),
(506,4,o),
(441,-10,o),
(378,-10,cs),
(159,-10,o),
(62,163,o),
(62,355,cs),
(62,548,o),
(162,717,o),
(381,717,cs),
(445,717,o),
(506,703,o),
(585,668,c),
(570,635,l),
(491,670,o),
(430,681,o),
(377,681,cs),
(185,681,o),
(102,525,o),
(102,354,cs),
(102,185,o),
(186,26,o),
(373,26,cs),
(426,26,o),
(494,39,o),
(570,72,c)
);
}
);
width = 614;
}
);
unicode = 67;
}
{
glyphname = D;
layers = (
{
anchors = (
{
name = top;
position = "{313, 477}";
},
{
name = bottom;
position = "{322, 0}";
}
);
layerId = "D43100D0-4BF9-44C0-ADDC-79172AF58462";
shapes = (
{
closed = 1;
nodes = (
(338,135,ls),
(387,135,o),
(431,156,o),
(460,192,c),
(488,229,o),
(505,286,o),
(505,355,cs),
(505,422,o),
(488,478,o),
(460,515,c),
(431,551,o),
(387,572,o),
(338,572,cs),
(240,572,l),
(240,135,l)
);
},
{
closed = 1;
nodes = (
(59,0,l),
(59,707,l),
(352,707,ls),
(453,707,o),
(537,671,o),
(596,609,cs),
(656,547,o),
(688,457,o),
(688,353,cs),
(688,249,o),
(656,161,o),
(596,99,cs),
(537,37,o),
(453,0,o),
(352,0,cs)
);
}
);
width = 724;
},
{
anchors = (
{
name = top;
position = "{313, 477}";
},
{
name = bottom;
position = "{322, 0}";
}
);
layerId = "B5AFC12C-DAB2-4B68-A31B-D6136A1B144F";
shapes = (
{
closed = 1;
nodes = (
(328,114,ls),
(388,114,o),
(439,138,o),
(473,179,cs),
(507,220,o),
(526,281,o),
(526,354,cs),
(526,426,o),
(507,487,o),
(473,528,cs),
(439,569,o),
(388,593,o),
(328,593,cs),
(218,593,l),
(218,114,l)
);
},
{
closed = 1;
nodes = (
(72,0,l),
(72,707,l),
(339,707,ls),
(440,707,o),
(524,671,o),
(583,609,cs),
(642,547,o),
(674,457,o),
(674,353,cs),
(674,249,o),
(642,161,o),
(583,99,cs),
(524,37,o),
(440,0,o),
(339,0,cs)
);
}
);
width = 717;
},
{
anchors = (
{
name = top;
position = "{313, 477}";
},
{
name = bottom;
position = "{322, 0}";
}
);
layerId = "5166C0C3-C3D2-4F7F-8540-ACBC385E7743";
shapes = (
{
closed = 1;
nodes = (
(313,82,ls),
(389,82,o),
(451,111,o),
(493,159,cs),
(535,207,o),
(557,274,o),
(557,353,cs),
(557,432,o),
(535,500,o),
(493,548,cs),
(451,596,o),
(389,625,o),
(313,625,cs),
(185,625,l),
(185,82,l)
);
},
{
closed = 1;
nodes = (
(91,0,l),
(91,707,l),
(319,707,ls),
(420,707,o),
(505,671,o),
(563,609,cs),
(621,547,o),
(653,457,o),
(653,353,cs),
(653,249,o),
(621,161,o),
(563,99,cs),
(505,37,o),
(420,0,o),
(319,0,cs)
);
}
);
width = 707;
},
{
anchors = (
{
name = top;
position = "{317, 477}";
},
{
name = bottom;
position = "{319, 0}";
}
);
layerId = "64AEFF5A-033C-4F54-96AE-A64261A50D57";
shapes = (
{
closed = 1;
nodes = (
(310,35,ls),
(398,35,o),
(468,68,o),
(516,125,cs),
(564,181,o),
(590,261,o),
(590,353,cs),
(590,445,o),
(564,525,o),
(516,582,cs),
(468,638,o),
(398,672,o),
(310,672,cs),
(142,672,l),
(142,35,l)
);
},
{
closed = 1;
nodes = (
(104,0,l),
(104,707,l),
(316,707,ls),
(412,707,o),
(492,670,o),
(546,607,cs),
(600,544,o),
(630,456,o),
(630,353,cs),
(630,250,o),
(600,162,o),
(546,99,cs),
(492,36,o),
(412,0,o),
(316,0,cs)
);
}
);
width = 692;
}
);
unicode = 68;
}
{
glyphname = E;
layers = (
{
anchors = (
{
name = top;
position = "{315, 477}";
},
{
name = hook;
position = "{315, 457}";
},
{
name = bottom;
position = "{315, 0}";
}
);
layerId = "BC1C0262-B179-41F2-9022-DD18C3300059";
shapes = (
{
closed = 1;
nodes = (
(558,0,l),
(59,0,l),
(59,707,l),
(558,707,l),
(558,572,l),
(235,572,l),
(235,421,l),
(500,421,l),
(500,286,l),
(235,286,l),
(235,135,l),
(558,135,l)
);
}
);
width = 587;
},
{
anchors = (
{
name = top;
position = "{313, 477}";
},
{
name = Anchor_7;
position = "{323, 517}";
},
{
name = hook;
position = "{313, 457}";
},
{
name = Anchor_10;
position = "{301, 497}";
},
{
name = bottom;
position = "{313, 0}";
}
);
layerId = "022C621B-D9C5-4075-856F-99776A9BB9BC";
shapes = (
{
closed = 1;
nodes = (
(547,0,l),
(72,0,l),
(72,707,l),
(547,707,l),
(547,593,l),
(215,593,l),
(215,411,l),
(487,411,l),
(487,297,l),
(215,297,l),
(215,114,l),
(547,114,l)
);
}
);
width = 583;
},
{
anchors = (
{
name = top;
position = "{310, 477}";
},
{
name = Anchor_5;
position = "{310, 517}";
},
{
name = hook;
position = "{310, 457}";
},
{
name = Anchor_8;
position = "{298, 497}";
},
{
name = bottom;
position = "{310, 0}";
}
);
layerId = "F46EB350-572D-40B6-8F96-70923BCB3D86";
shapes = (
{
closed = 1;
nodes = (
(531,0,l),
(91,0,l),
(91,707,l),
(531,707,l),
(531,625,l),
(185,625,l),
(185,396,l),
(467,396,l),
(467,314,l),
(185,314,l),
(185,82,l),
(531,82,l)
);
}
);
width = 577;
},
{
anchors = (
{
name = top;
position = "{310, 477}";
},
{
name = Anchor_6;
position = "{305, 517}";
},
{
name = hook;
position = "{310, 457}";
},
{
name = Anchor_9;
position = "{293, 497}";
},
{
name = bottom;
position = "{305, 0}";
}
);
layerId = "7900522D-7321-4A46-8482-E4D00C1490A1";
shapes = (
{
closed = 1;
nodes = (
(514,0,l),
(104,0,l),
(104,707,l),
(514,707,l),
(514,672,l),
(142,672,l),
(142,372,l),
(450,372,l),
(450,337,l),
(142,337,l),
(142,35,l),
(514,35,l)
);
}
);
width = 566;
}
);
unicode = 69;
}
{
glyphname = F;
layers = (
{
layerId = "BC1C0262-B179-41F2-9022-DD18C3300059";
shapes = (
{
closed = 1;
nodes = (
(235,0,l),
(59,0,l),
(59,707,l),
(558,707,l),
(558,572,l),
(235,572,l),
(235,406,l),
(500,406,l),
(500,271,l),
(235,271,l)
);
}
);
width = 573;
},
{
layerId = "022C621B-D9C5-4075-856F-99776A9BB9BC";
shapes = (
{
closed = 1;
nodes = (
(215,0,l),
(72,0,l),
(72,707,l),
(547,707,l),
(547,593,l),
(215,593,l),
(215,398,l),
(487,398,l),
(487,284,l),
(215,284,l)
);
}
);
width = 566;
},
{
layerId = "F46EB350-572D-40B6-8F96-70923BCB3D86";
shapes = (
{
closed = 1;
nodes = (
(185,0,l),
(91,0,l),
(91,707,l),
(531,707,l),
(531,625,l),
(185,625,l),
(185,386,l),
(467,386,l),
(467,304,l),
(185,304,l)
);
}
);
width = 556;
},
{
layerId = "7900522D-7321-4A46-8482-E4D00C1490A1";
shapes = (
{
closed = 1;
nodes = (
(142,0,l),
(104,0,l),
(104,707,l),
(514,707,l),
(514,672,l),
(142,672,l),
(142,361,l),
(450,361,l),
(450,326,l),
(142,326,l)
);
}
);
width = 542;
}
);
unicode = 70;
}
{
glyphname = G;
layers = (
{
anchors = (
{
name = top;
position = "{396, 477}";
},
{
name = hook;
position = "{396, 457}";
},
{
name = bottom;
position = "{385, 0}";
}
);
layerId = "F976A6FE-4F5D-4CD4-867C-EF90278DFFCC";
shapes = (
{
closed = 1;
nodes = (
(638,45,l),
(577,18,o),
(499,-10,o),
(395,-10,cs),
(152,-10,o),
(36,154,o),
(36,354,cs),
(36,554,o),
(152,717,o),
(398,717,cs),
(497,717,o),
(577,689,o),
(636,652,c),
(575,526,l),
(526,557,o),
(460,569,o),
(411,569,cs),
(291,569,o),
(218,482,o),
(218,353,cs),
(218,224,o),
(291,138,o),
(410,138,cs),
(430,138,o),
(451,138,o),
(471,144,c),
(471,280,l),
(363,280,l),
(363,413,l),
(638,413,l)
);
}
);
width = 686;
},
{
anchors = (
{
name = top;
position = "{388, 477}";
},
{
name = Anchor_7;
position = "{390, 517}";
},
{
name = hook;
position = "{382, 457}";
},
{
name = bottom;
position = "{391, 0}";
}
);
layerId = "ECD81CFE-BAA5-49B6-8B8C-C1187BD9FB4D";
shapes = (
{
closed = 1;
nodes = (
(632,44,l),
(573,16,o),
(488,-10,o),
(392,-10,cs),
(153,-10,o),
(43,156,o),
(43,353,cs),
(43,551,o),
(154,717,o),
(391,717,cs),
(487,717,o),
(568,690,o),
(628,653,c),
(578,547,l),
(515,582,o),
(447,594,o),
(398,594,cs),
(261,594,o),
(191,489,o),
(191,352,cs),
(191,218,o),
(258,113,o),
(403,113,cs),
(427,113,o),
(459,114,o),
(495,125,c),
(495,286,l),
(366,286,l),
(366,398,l),
(632,398,l)
);
}
);
width = 690;
},
{
anchors = (
{
name = top;
position = "{376, 477}";
},
{
name = Anchor_5;
position = "{383, 517}";
},
{
name = hook;
position = "{361, 457}";
},
{
name = bottom;
position = "{400, 0}";
}
);
layerId = "05C01135-6C20-4612-9616-E32239DF772F";
shapes = (
{
closed = 1;
nodes = (
(623,42,l),
(567,13,o),
(472,-10,o),
(387,-10,cs),
(155,-10,o),
(54,159,o),
(54,352,cs),
(54,546,o),
(157,717,o),
(381,717,cs),
(472,717,o),
(555,691,o),
(616,655,c),
(582,579,l),
(498,620,o),
(427,632,o),
(379,632,cs),
(216,632,o),
(150,499,o),
(150,350,cs),
(150,209,o),
(209,75,o),
(393,75,cs),
(422,75,o),
(471,78,o),
(531,97,c),
(531,295,l),
(370,295,l),
(370,375,l),
(623,375,l)
);
}
);
width = 696;
},
{
anchors = (
{
name = top;
position = "{370, 477}";
},
{
name = Anchor_6;
position = "{382, 517}";
},
{
name = hook;
position = "{360, 457}";
},
{
name = bottom;
position = "{389, 0}";
}
);
layerId = "E82A1E35-09AC-49BD-B418-47901BDD1DB1";
shapes = (
{
closed = 1;
nodes = (
(594,35,l),
(537,10,o),
(455,-10,o),
(380,-10,cs),
(161,-10,o),
(62,163,o),
(62,355,cs),
(62,548,o),
(162,717,o),
(381,717,cs),
(445,717,o),
(506,703,o),
(585,668,c),
(570,635,l),
(491,670,o),
(430,681,o),
(377,681,cs),
(185,681,o),
(102,525,o),
(102,354,cs),
(102,186,o),
(184,26,o),
(385,26,cs),
(445,26,o),
(511,40,o),
(556,57,c),
(556,317,l),
(378,317,l),
(378,352,l),
(594,352,l)
);
}
);
width = 677;
}
);
unicode = 71;
}
{
glyphname = H;
layers = (
{
anchors = (
{
name = top;
position = "{361, 477}";
}
);
layerId = "D43100D0-4BF9-44C0-ADDC-79172AF58462";
shapes = (
{
closed = 1;
nodes = (
(662,0,l),
(481,0,l),
(481,286,l),
(240,286,l),
(240,0,l),
(59,0,l),
(59,707,l),
(240,707,l),
(240,421,l),
(481,421,l),
(481,707,l),
(662,707,l)
);
}
);
width = 721;
},
{
anchors = (
{
name = top;
position = "{360, 477}";
}
);
layerId = "B5AFC12C-DAB2-4B68-A31B-D6136A1B144F";
shapes = (
{
closed = 1;
nodes = (
(648,0,l),
(502,0,l),
(502,297,l),
(218,297,l),
(218,0,l),
(72,0,l),
(72,707,l),
(218,707,l),
(218,411,l),
(502,411,l),
(502,707,l),
(648,707,l)
);
}
);
width = 720;
},
{
anchors = (
{
name = top;
position = "{359, 477}";
}
);
layerId = "5166C0C3-C3D2-4F7F-8540-ACBC385E7743";
shapes = (
{
closed = 1;
nodes = (
(627,0,l),
(533,0,l),
(533,314,l),
(185,314,l),
(185,0,l),
(91,0,l),
(91,707,l),
(185,707,l),
(185,396,l),
(533,396,l),
(533,707,l),
(627,707,l)
);
}
);
width = 718;
},
{
anchors = (
{
name = top;
position = "{354, 477}";
}
);
layerId = "64AEFF5A-033C-4F54-96AE-A64261A50D57";
shapes = (
{
closed = 1;
nodes = (
(604,0,l),
(566,0,l),
(566,337,l),
(142,337,l),
(142,0,l),
(104,0,l),
(104,707,l),
(142,707,l),
(142,372,l),
(566,372,l),
(566,707,l),
(604,707,l)
);
}
);
width = 708;
}
);
unicode = 72;
}
{
glyphname = I;
layers = (
{
anchors = (
{
name = top;
position = "{153, 477}";
},
{
name = hook;
position = "{153, 457}";
},
{
name = bottom;
position = "{153, 0}";
}
);
layerId = "D43100D0-4BF9-44C0-ADDC-79172AF58462";
shapes = (
{
closed = 1;
nodes = (
(243,0,l),
(63,0,l),
(63,707,l),
(243,707,l)
);
}
);
width = 306;
},
{
anchors = (
{
name = top;
position = "{149, 477}";
},
{
name = Anchor_6;
position = "{149, 397}";
},
{
name = Anchor_7;
position = "{149, 517}";
},
{
name = hook;
position = "{149, 457}";
},
{
name = Anchor_10;
position = "{159, 497}";
},
{
name = Anchor_11;
position = "{149, 377}";
},
{
name = bottom;
position = "{149, 0}";
}
);
layerId = "B5AFC12C-DAB2-4B68-A31B-D6136A1B144F";
shapes = (
{
closed = 1;
nodes = (
(222,0,l),
(76,0,l),
(76,707,l),
(222,707,l)
);
}
);
width = 298;
},
{
anchors = (
{
name = top;
position = "{143, 477}";
},
{
name = Anchor_4;
position = "{143, 397}";
},
{
name = Anchor_5;
position = "{143, 517}";
},
{
name = hook;
position = "{143, 457}";
},
{
name = Anchor_8;
position = "{153, 497}";
},
{
name = Anchor_9;
position = "{143, 377}";
},
{
name = bottom;
position = "{143, 0}";
}
);
layerId = "5166C0C3-C3D2-4F7F-8540-ACBC385E7743";
shapes = (
{
closed = 1;
nodes = (
(190,0,l),
(96,0,l),
(96,707,l),
(190,707,l)
);
}
);
width = 286;
},
{
anchors = (
{
name = top;
position = "{129, 477}";
},
{
name = Anchor_4;
position = "{129, 397}";
},
{
name = Anchor_6;
position = "{139, 517}";
},
{
name = hook;
position = "{129, 457}";
},
{
name = Anchor_9;
position = "{119, 497}";
},
{
name = Anchor_10;
position = "{129, 377}";
},
{
name = bottom;
position = "{129, 0}";
}
);
layerId = "64AEFF5A-033C-4F54-96AE-A64261A50D57";
shapes = (
{
closed = 1;
nodes = (
(148,0,l),
(110,0,l),
(110,707,l),
(148,707,l)
);
}
);
width = 258;
}
);
unicode = 73;
}
{
glyphname = J;
layers = (
{
anchors = (
{
name = top;
position = "{310, 477}";
}
);
layerId = "BC1C0262-B179-41F2-9022-DD18C3300059";
shapes = (
{
closed = 1;
nodes = (
(400,253,ls),
(400,60,o),
(325,-10,o),
(166,-10,cs),
(99,-10,o),
(53,3,o),
(6,16,c),
(33,156,l),
(68,143,o),
(106,135,o),
(138,135,cs),
(195,135,o),
(220,158,o),
(220,248,cs),
(220,707,l),
(400,707,l)
);
}
);
width = 458;
},
{
anchors = (
{
name = top;
position = "{306, 477}";
},
{
name = Anchor_7;
position = "{306, 517}";
}
);
layerId = "022C621B-D9C5-4075-856F-99776A9BB9BC";
shapes = (
{
closed = 1;
nodes = (
(379,252,ls),
(379,79,o),
(323,-10,o),
(161,-10,cs),
(100,-10,o),
(50,2,o),
(7,17,c),
(30,133,l),
(65,120,o),
(106,111,o),
(141,111,cs),
(216,111,o),
(233,158,o),
(233,249,cs),
(233,707,l),
(379,707,l)
);
}
);
width = 449;
},
{
anchors = (
{
name = top;
position = "{300, 477}";
},
{
name = Anchor_5;
position = "{300, 517}";
}
);
layerId = "F46EB350-572D-40B6-8F96-70923BCB3D86";
shapes = (
{
closed = 1;
nodes = (
(347,251,ls),
(347,107,o),
(320,-10,o),
(153,-10,cs),
(102,-10,o),
(45,1,o),
(8,18,c),
(25,99,l),
(60,86,o),
(106,75,o),
(145,75,cs),
(247,75,o),
(253,158,o),
(253,251,cs),
(253,707,l),
(347,707,l)
);
}
);
width = 435;
},
{
anchors = (
{
name = top;
position = "{295, 477}";
},
{
name = Anchor_6;
position = "{305, 517}";
}
);
layerId = "7900522D-7321-4A46-8482-E4D00C1490A1";
shapes = (
{
closed = 1;
nodes = (
(314,243,ls),
(314,96,o),
(273,-10,o),
(128,-10,cs),
(88,-10,o),
(45,-2,o),
(9,10,c),
(18,44,l),
(56,32,o),
(91,26,o),
(124,26,cs),
(245,26,o),
(276,117,o),
(276,243,cs),
(276,707,l),
(314,707,l)
);
}
);
width = 415;
}
);
unicode = 74;
}
{
glyphname = K;
layers = (
{
anchors = (
{
name = bottom;
position = "{369, 0}";
}
);
layerId = "D222E232-D60B-4B2D-8951-17F11CA2060F";
shapes = (
{
closed = 1;
nodes = (
(542,-23,l),
(447,64,o),
(366,178,o),
(297,287,c),
(235,213,l),
(235,0,l),
(59,0,l),
(59,707,l),
(235,707,l),
(235,442,l),
(453,707,l),
(649,707,l),
(405,415,l),
(509,267,o),
(570,194,o),
(669,87,c)
);
}
);
width = 674;
},
{
anchors = (
{
name = bottom;
position = "{359, 0}";
}
);
layerId = "836ED3A4-1AF9-4FCB-B992-725D22F47718";
shapes = (
{
closed = 1;
nodes = (
(540,-18,l),
(448,71,o),
(353,199,o),
(286,303,c),
(215,217,l),
(215,0,l),
(72,0,l),
(72,707,l),
(215,707,l),
(215,403,l),
(461,707,l),
(620,707,l),
(373,408,l),
(466,273,o),
(551,169,o),
(644,72,c)
);
}
);
width = 650;
},
{
anchors = (
{
name = bottom;
position = "{344, 0}";
}
);
layerId = "D4BE8965-D6E9-455E-8A03-697C08C086AB";
shapes = (
{
closed = 1;
nodes = (
(537,-10,l),
(449,81,o),
(333,231,o),
(269,327,c),
(185,223,l),
(185,0,l),
(91,0,l),
(91,707,l),
(185,707,l),
(185,345,l),
(473,707,l),
(576,707,l),
(325,397,l),
(402,282,o),
(522,132,o),
(607,49,c)
);
}
);
width = 614;
},
{
anchors = (
{
name = bottom;
position = "{333, 0}";
}
);
layerId = "26E6130D-B3C9-45B2-A3C5-02C986E91ADD";
shapes = (
{
closed = 1;
nodes = (
(550,-3,l),
(442,105,o),
(353,223,o),
(265,354,c),
(142,205,l),
(142,0,l),
(104,0,l),
(104,707,l),
(142,707,l),
(142,259,l),
(509,707,l),
(555,707,l),
(289,384,l),
(377,250,o),
(465,136,o),
(579,22,c)
);
}
);
width = 587;
}
);
unicode = 75;
}
{
glyphname = L;
layers = (
{
anchors = (
{
name = top;
position = "{150, 477}";
},
{
name = bottom;
position = "{309, 0}";
},
{
name = caronslovak;
position = "{443, 477}";
}
);
layerId = "BC1C0262-B179-41F2-9022-DD18C3300059";
shapes = (
{
closed = 1;
nodes = (
(558,0,l),
(59,0,l),
(59,707,l),
(240,707,l),
(240,135,l),
(558,135,l)
);
}
);
width = 564;
},
{
anchors = (
{
name = top;
position = "{145, 477}";
},
{
name = Anchor_7;
position = "{145, 517}";
},
{
name = bottom;
position = "{309, 0}";
},
{
name = caronslovak;
position = "{415, 477}";
}
);
layerId = "022C621B-D9C5-4075-856F-99776A9BB9BC";
shapes = (
{
closed = 1;
nodes = (
(547,0,l),
(72,0,l),
(72,707,l),
(218,707,l),
(218,114,l),
(547,114,l)
);
}
);
width = 555;
},
{
anchors = (
{
name = top;
position = "{138, 477}";
},
{
name = Anchor_5;
position = "{138, 517}";
},
{
name = bottom;
position = "{309, 0}";
},
{
name = caronslovak;
position = "{373, 477}";
}
);
layerId = "F46EB350-572D-40B6-8F96-70923BCB3D86";
shapes = (
{
closed = 1;
nodes = (
(531,0,l),
(91,0,l),
(91,707,l),
(185,707,l),
(185,82,l),
(531,82,l)
);
}
);
width = 542;
},
{
anchors = (
{
name = top;
position = "{123, 477}";
},
{
name = Anchor_6;
position = "{133, 517}";
},
{
name = bottom;
position = "{305, 0}";
},
{
name = caronslovak;
position = "{358, 477}";
}
);
layerId = "7900522D-7321-4A46-8482-E4D00C1490A1";
shapes = (
{
closed = 1;
nodes = (
(514,0,l),
(104,0,l),
(104,707,l),
(142,707,l),
(142,35,l),
(514,35,l)
);
}
);
width = 526;
}
);
unicode = 76;
}
{
glyphname = M;
layers = (
{
layerId = "D222E232-D60B-4B2D-8951-17F11CA2060F";
shapes = (
{
closed = 1;
nodes = (
(787,0,l),
(606,0,l),
(606,438,l),
(460,197,l),
(372,197,l),
(230,433,l),
(230,0,l),
(59,0,l),
(59,707,l),
(242,707,l),
(424,411,l),
(605,707,l),
(787,707,l)
);
}
);
width = 846;
},
{
layerId = "836ED3A4-1AF9-4FCB-B992-725D22F47718";
shapes = (
{
closed = 1;
nodes = (
(775,0,l),
(629,0,l),
(629,485,l),
(455,207,l),
(383,207,l),
(211,482,l),
(211,0,l),
(72,0,l),
(72,707,l),
(222,707,l),
(425,382,l),
(628,707,l),
(775,707,l)
);
}
);
width = 847;
},
{
layerId = "D4BE8965-D6E9-455E-8A03-697C08C086AB";
shapes = (
{
closed = 1;
nodes = (
(757,0,l),
(664,0,l),
(664,555,l),
(448,222,l),
(399,222,l),
(183,555,l),
(183,0,l),
(91,0,l),
(91,707,l),
(192,707,l),
(427,339,l),
(662,707,l),
(757,707,l)
);
}
);
width = 848;
},
{
layerId = "26E6130D-B3C9-45B2-A3C5-02C986E91ADD";
shapes = (
{
closed = 1;
nodes = (
(734,0,l),
(697,0,l),
(697,663,l),
(437,243,l),
(402,243,l),
(140,663,l),
(140,0,l),
(104,0,l),
(104,707,l),
(154,707,l),
(420,282,l),
(683,707,l),
(734,707,l)
);
}
);
width = 838;
}
);
unicode = 77;
}
{
glyphname = N;
layers = (
{
anchors = (
{
name = top;
position = "{361, 477}";
},
{
name = hook;
position = "{361, 457}";
},
{
name = bottom;
position = "{362, 0}";
}
);
layerId = "BC1C0262-B179-41F2-9022-DD18C3300059";
shapes = (
{
closed = 1;
nodes = (
(665,0,l),
(495,0,l),
(230,427,l),
(230,0,l),
(59,0,l),
(59,707,l),
(230,707,l),
(495,280,l),
(495,707,l),
(665,707,l)
);
}
);
width = 724;
},
{
anchors = (
{
name = top;
position = "{361, 477}";
},
{
name = Anchor_7;
position = "{387, 517}";
},
{
name = hook;
position = "{361, 457}";
},
{
name = bottom;
position = "{361, 0}";
}
);
layerId = "022C621B-D9C5-4075-856F-99776A9BB9BC";
shapes = (
{
closed = 1;
nodes = (
(651,0,l),
(512,0,l),
(211,476,l),
(211,0,l),
(72,0,l),
(72,707,l),
(211,707,l),
(512,231,l),
(512,707,l),
(651,707,l)
);
}
);
width = 723;
},
{
anchors = (
{
name = top;
position = "{361, 477}";
},
{
name = Anchor_5;
position = "{387, 517}";
},
{
name = hook;
position = "{361, 457}";
},
{
name = bottom;
position = "{360, 0}";
}
);
layerId = "F46EB350-572D-40B6-8F96-70923BCB3D86";
shapes = (
{
closed = 1;
nodes = (
(630,0,l),
(538,0,l),
(183,550,l),
(183,0,l),
(91,0,l),
(91,707,l),
(183,707,l),
(538,157,l),
(538,707,l),
(630,707,l)
);
}
);
width = 721;
},
{
anchors = (
{
name = top;
position = "{356, 477}";
},
{
name = Anchor_6;
position = "{375, 517}";
},
{
name = hook;
position = "{356, 457}";
},
{
name = bottom;
position = "{355, 0}";
}
);
layerId = "7900522D-7321-4A46-8482-E4D00C1490A1";
shapes = (
{
closed = 1;
nodes = (
(607,0,l),
(558,0,l),
(140,659,l),
(140,0,l),
(104,0,l),
(104,707,l),
(152,707,l),
(571,47,l),
(571,707,l),
(607,707,l)
);
}
);
width = 711;
}
);
unicode = 78;
}
{
glyphname = O;
layers = (
{
anchors = (
{
name = top;
position = "{379, 477}";
},
{
name = hook;
position = "{379, 457}";
},
{
name = bottom;
position = "{379, 0}";
}
);
layerId = "D222E232-D60B-4B2D-8951-17F11CA2060F";
shapes = (
{
closed = 1;
nodes = (
(253,135,o),
(218,248,o),
(218,353,cs),
(218,459,o),
(252,572,o),
(379,572,cs),
(506,572,o),
(539,459,o),
(539,353,cs),
(539,247,o),
(505,135,o),
(379,135,cs)
);
},
{
closed = 1;
nodes = (
(593,-10,o),
(722,143,o),
(722,353,cs),
(722,563,o),
(595,717,o),
(379,717,cs),
(164,717,o),
(36,561,o),
(36,353,cs),
(36,145,o),
(164,-10,o),
(379,-10,cs)
);
}
);
width = 757;
},
{
anchors = (
{
name = top;
position = "{376, 477}";
},
{
name = Anchor_7;
position = "{376, 517}";
},
{
name = hook;
position = "{376, 457}";
},
{
name = Anchor_9;
position = "{410, 537}";
},
{
name = Anchor_10;
position = "{376, 497}";
},
{
name = bottom;
position = "{376, 0}";
}
);
layerId = "836ED3A4-1AF9-4FCB-B992-725D22F47718";
shapes = (
{
closed = 1;
nodes = (
(238,111,o),
(191,235,o),
(191,353,cs),
(191,472,o),
(237,596,o),
(376,596,cs),
(515,596,o),
(561,472,o),
(561,353,cs),
(561,234,o),
(514,111,o),
(376,111,cs)
);
},
{
closed = 1;
nodes = (
(588,-10,o),
(709,150,o),
(709,353,cs),
(709,556,o),
(589,717,o),
(376,717,cs),
(164,717,o),
(43,555,o),
(43,353,cs),
(43,151,o),
(164,-10,o),
(376,-10,cs)
);
}
);
width = 752;
},
{
anchors = (
{
name = top;
position = "{372, 477}";
},
{
name = Anchor_5;
position = "{372, 517}";
},
{
name = hook;
position = "{372, 457}";
},
{
name = Anchor_7;
position = "{406, 537}";
},
{
name = Anchor_8;
position = "{372, 497}";
},
{
name = bottom;
position = "{372, 0}";
}
);
layerId = "D4BE8965-D6E9-455E-8A03-697C08C086AB";
shapes = (
{
closed = 1;
nodes = (
(216,75,o),
(150,215,o),
(150,353,cs),
(150,491,o),
(215,632,o),
(372,632,cs),
(529,632,o),
(594,491,o),
(594,353,cs),
(594,215,o),
(528,75,o),
(372,75,cs)
);
},
{
closed = 1;
nodes = (
(580,-10,o),
(690,160,o),
(690,353,cs),
(690,546,o),
(580,717,o),
(372,717,cs),
(164,717,o),
(54,546,o),
(54,353,cs),
(54,160,o),
(164,-10,o),
(372,-10,cs)
);
}
);
width = 744;
},
{
anchors = (
{
name = top;
position = "{361, 477}";
},
{
name = Anchor_6;
position = "{361, 517}";
},
{
name = hook;
position = "{361, 457}";
},
{
name = Anchor_8;
position = "{395, 537}";
},
{
name = Anchor_9;
position = "{361, 497}";
},
{
name = bottom;
position = "{361, 0}";
}
);
layerId = "26E6130D-B3C9-45B2-A3C5-02C986E91ADD";
shapes = (
{
closed = 1;
nodes = (
(178,26,o),
(102,194,o),
(102,354,cs),
(102,516,o),
(177,681,o),
(361,681,cs),
(547,681,o),
(620,517,o),
(620,354,cs),
(620,193,o),
(545,26,o),
(361,26,cs)
);
},
{
closed = 1;
nodes = (
(567,-10,o),
(660,170,o),
(660,354,cs),
(660,539,o),
(568,717,o),
(361,717,cs),
(154,717,o),
(62,539,o),
(62,354,cs),
(62,169,o),
(155,-10,o),
(361,-10,cs)
);
}
);
width = 722;
}
);
unicode = 79;
}
{
glyphname = P;
layers = (
{
layerId = "BC1C0262-B179-41F2-9022-DD18C3300059";
shapes = (
{
closed = 1;
nodes = (
(235,0,l),
(59,0,l),
(59,707,l),
(352,707,ls),
(495,707,o),
(600,616,o),
(600,470,cs),
(600,325,o),
(495,234,o),
(352,234,cs),
(235,234,l)
);
},
{
closed = 1;
nodes = (
(329,369,ls),
(386,369,o),
(422,404,o),
(422,472,cs),
(422,539,o),
(386,572,o),
(329,572,cs),
(235,572,l),
(235,369,l)
);
}
);
width = 621;
},
{
layerId = "022C621B-D9C5-4075-856F-99776A9BB9BC";
shapes = (
{
closed = 1;
nodes = (
(215,0,l),
(72,0,l),
(72,707,l),
(346,707,ls),
(485,707,o),
(586,619,o),
(586,479,cs),
(586,339,o),
(485,251,o),
(346,251,cs),
(215,251,l)
);
},
{
closed = 1;
nodes = (
(330,365,ls),
(397,365,o),
(441,407,o),
(441,480,cs),
(441,552,o),
(397,593,o),
(330,593,cs),
(215,593,l),
(215,365,l)
);
}
);
width = 612;
},
{
layerId = "F46EB350-572D-40B6-8F96-70923BCB3D86";
shapes = (
{
closed = 1;
nodes = (
(185,0,l),
(91,0,l),
(91,707,l),
(337,707,ls),
(470,707,o),
(565,624,o),
(565,492,cs),
(565,360,o),
(470,277,o),
(337,277,cs),
(185,277,l)
);
},
{
closed = 1;
nodes = (
(332,359,ls),
(413,359,o),
(469,412,o),
(469,492,cs),
(469,572,o),
(413,625,o),
(332,625,cs),
(185,625,l),
(185,359,l)
);
}
);
width = 598;
},
{
layerId = "7900522D-7321-4A46-8482-E4D00C1490A1";
shapes = (
{
closed = 1;
nodes = (
(142,0,l),
(104,0,l),
(104,707,l),
(335,707,ls),
(458,707,o),
(544,626,o),
(544,502,cs),
(544,378,o),
(458,297,o),
(335,297,cs),
(142,297,l)
);
},
{
closed = 1;
nodes = (
(331,332,ls),
(433,332,o),
(504,400,o),
(504,502,cs),
(504,604,o),
(433,672,o),
(331,672,cs),
(142,672,l),
(142,332,l)
);
}
);
width = 581;
}
);
unicode = 80;
}
{
glyphname = Q;
layers = (
{
layerId = "BC1C0262-B179-41F2-9022-DD18C3300059";
shapes = (
{
closed = 1;
nodes = (
(383,-12,o),
(387,-12,o),
(390,-13,c),
(430,-79,o),
(486,-151,o),
(549,-195,c),
(676,-85,l),
(632,-49,o),
(590,-10,o),
(552,32,c),
(674,97,o),
(722,222,o),
(722,353,cs),
(722,563,o),
(595,717,o),
(379,717,cs),
(164,717,o),
(36,561,o),
(36,353,cs),
(36,142,o),
(172,-12,o),
(379,-12,cs)
);
},
{
closed = 1;
nodes = (
(253,135,o),
(218,248,o),
(218,353,cs),
(218,459,o),
(252,572,o),
(379,572,cs),
(506,572,o),
(539,459,o),
(539,353,cs),
(539,247,o),
(505,135,o),
(379,135,cs)
);
}
);
width = 757;
},
{
layerId = "022C621B-D9C5-4075-856F-99776A9BB9BC";
shapes = (
{
closed = 1;
nodes = (
(389,-11,o),
(402,-10,o),
(414,-8,c),
(454,-74,o),
(507,-142,o),
(570,-187,c),
(670,-92,l),
(623,-56,o),
(581,-14,o),
(543,31,c),
(661,98,o),
(709,223,o),
(709,353,cs),
(709,556,o),
(589,717,o),
(376,717,cs),
(164,717,o),
(43,555,o),
(43,353,cs),
(43,149,o),
(169,-11,o),
(376,-11,cs)
);
},
{
closed = 1;
nodes = (
(238,111,o),
(191,235,o),
(191,353,cs),
(191,472,o),
(237,596,o),
(376,596,cs),
(515,596,o),
(561,472,o),
(561,353,cs),
(561,234,o),
(514,111,o),
(376,111,cs)
);
}
);
width = 752;
},
{
layerId = "F46EB350-572D-40B6-8F96-70923BCB3D86";
shapes = (
{
closed = 1;
nodes = (
(398,-10,o),
(425,-7,o),
(450,-1,c),
(490,-67,o),
(539,-129,o),
(602,-175,c),
(661,-103,l),
(610,-66,o),
(567,-20,o),
(529,30,c),
(642,99,o),
(690,225,o),
(690,353,cs),
(690,546,o),
(580,717,o),
(372,717,cs),
(164,717,o),
(54,546,o),
(54,353,cs),
(54,160,o),
(164,-10,o),
(372,-10,cs)
);
},
{
closed = 1;
nodes = (
(216,75,o),
(150,215,o),
(150,353,cs),
(150,491,o),
(215,632,o),
(372,632,cs),
(529,632,o),
(594,491,o),
(594,353,cs),
(594,215,o),
(528,75,o),
(372,75,cs)
);
}
);
width = 744;
},
{
layerId = "7900522D-7321-4A46-8482-E4D00C1490A1";
shapes = (
{
closed = 1;
nodes = (
(395,-10,o),
(428,-5,o),
(460,6,c),
(501,-57,o),
(551,-113,o),
(607,-162,c),
(632,-134,l),
(580,-89,o),
(532,-38,o),
(493,20,c),
(615,83,o),
(660,224,o),
(660,354,cs),
(660,539,o),
(568,717,o),
(361,717,cs),
(154,717,o),
(62,540,o),
(62,354,cs),
(62,169,o),
(155,-10,o),
(361,-10,cs)
);
},
{
closed = 1;
nodes = (
(178,26,o),
(102,194,o),
(102,354,cs),
(102,516,o),
(177,681,o),
(361,681,cs),
(547,681,o),
(620,517,o),
(620,354,cs),
(620,193,o),
(545,26,o),
(361,26,cs)
);
}
);
width = 722;
}
);
unicode = 81;
}
{
glyphname = R;
layers = (
{
layerId = "F976A6FE-4F5D-4CD4-867C-EF90278DFFCC";
shapes = (
{
closed = 1;
nodes = (
(512,-23,l),
(441,48,o),
(383,127,o),
(308,248,c),
(235,248,l),
(235,0,l),
(59,0,l),
(59,707,l),
(352,707,ls),
(422,707,o),
(488,684,o),
(531,643,cs),
(574,602,o),
(600,545,o),
(600,477,cs),
(600,384,o),
(555,320,o),
(481,283,c),
(533,207,o),
(581,149,o),
(637,87,c)
);
},
{
closed = 1;
nodes = (
(329,377,ls),
(388,377,o),
(422,414,o),
(422,474,cs),
(422,534,o),
(388,572,o),
(329,572,cs),
(235,572,l),
(235,377,l)
);
}
);
width = 650;
},
{
layerId = "ECD81CFE-BAA5-49B6-8B8C-C1187BD9FB4D";
shapes = (
{
closed = 1;
nodes = (
(525,-18,l),
(444,65,o),
(379,154,o),
(307,265,c),
(215,265,l),
(215,0,l),
(72,0,l),
(72,707,l),
(346,707,ls),
(415,707,o),
(477,685,o),
(519,646,cs),
(561,607,o),
(586,552,o),
(586,485,cs),
(586,385,o),
(533,321,o),
(449,290,c),
(508,207,o),
(564,139,o),
(628,72,c)
);
},
{
closed = 1;
nodes = (
(330,374,ls),
(398,374,o),
(441,415,o),
(441,483,cs),
(441,551,o),
(398,593,o),
(330,593,cs),
(215,593,l),
(215,374,l)
);
}
);
width = 642;
},
{
layerId = "05C01135-6C20-4612-9616-E32239DF772F";
shapes = (
{
closed = 1;
nodes = (
(544,-10,l),
(448,91,o),
(373,194,o),
(305,291,c),
(185,291,l),
(185,0,l),
(91,0,l),
(91,707,l),
(337,707,ls),
(404,707,o),
(461,687,o),
(501,651,cs),
(541,615,o),
(565,562,o),
(565,497,cs),
(565,386,o),
(500,323,o),
(401,300,c),
(470,207,o),
(539,124,o),
(614,49,c)
);
},
{
closed = 1;
nodes = (
(332,369,ls),
(413,369,o),
(469,417,o),
(469,497,cs),
(469,577,o),
(413,625,o),
(332,625,cs),
(185,625,l),
(185,369,l)
);
}
);
width = 630;
},
{
layerId = "E82A1E35-09AC-49BD-B418-47901BDD1DB1";
shapes = (
{
closed = 1;
nodes = (
(564,-3,l),
(465,97,o),
(390,193,o),
(309,312,c),
(142,312,l),
(142,0,l),
(104,0,l),
(104,707,l),
(337,707,ls),
(397,707,o),
(448,689,o),
(485,655,cs),
(522,621,o),
(544,570,o),
(544,509,cs),
(544,393,o),
(469,323,o),
(352,312,c),
(425,208,o),
(500,117,o),
(593,22,c)
);
},
{
closed = 1;
nodes = (
(332,347,ls),
(433,347,o),
(504,405,o),
(504,509,cs),
(504,612,o),
(433,672,o),
(332,672,cs),
(142,672,l),
(142,347,l)
);
}
);
width = 611;
}
);
unicode = 82;
}
{
glyphname = S;
layers = (
{
layerId = "7C3FA59E-6813-4975-9D6F-EC289EE60EF9";
name = "#instance";
shapes = (
{
closed = 1;
nodes = (
(83,187,l),
(121,165,o),
(224,132,o),
(305,132,cs),
(375,132,o),
(401,159,o),
(401,191,cs),
(401,244,o),
(338,267,o),
(266,294,cs),
(161,334,o),
(32,376,o),
(32,513,cs),
(32,637,o),
(136,717,o),
(302,717,cs),
(380,717,o),
(463,701,o),
(549,656,c),
(487,529,l),
(438,552,o),
(363,575,o),
(305,575,cs),
(258,575,o),
(215,559,o),
(215,525,cs),
(215,488,o),
(266,464,o),
(332,443,c),
(440,406,o),
(584,357,o),
(584,207,cs),
(584,72,o),
(468,-10,o),
(303,-10,cs),
(197,-10,o),
(93,23,o),
(22,60,c)
);
}
);
width = 608;
},
{
layerId = "D222E232-D60B-4B2D-8951-17F11CA2060F";
shapes = (
{
closed = 1;
nodes = (
(83,187,l),
(121,165,o),
(224,132,o),
(305,132,cs),
(375,132,o),
(401,159,o),
(401,191,cs),
(401,244,o),
(338,267,o),
(266,294,cs),
(161,334,o),
(32,376,o),
(32,513,cs),
(32,637,o),
(136,717,o),
(302,717,cs),
(380,717,o),
(463,701,o),
(549,656,c),
(487,529,l),
(438,552,o),
(363,575,o),
(305,575,cs),
(258,575,o),
(215,559,o),
(215,525,cs),
(215,488,o),
(266,464,o),
(332,443,c),
(440,406,o),
(584,357,o),
(584,207,cs),
(584,72,o),
(468,-10,o),
(303,-10,cs),
(197,-10,o),
(93,23,o),
(22,60,c)
);
}
);
width = 608;
},
{
layerId = "836ED3A4-1AF9-4FCB-B992-725D22F47718";
shapes = (
{
closed = 1;
nodes = (
(75,168,l),
(130,136,o),
(224,109,o),
(297,109,cs),
(376,109,o),
(417,140,o),
(417,188,cs),
(417,252,o),
(345,276,o),
(265,305,cs),
(160,343,o),
(38,383,o),
(38,518,cs),
(38,647,o),
(148,717,o),
(296,717,cs),
(376,717,o),
(458,698,o),
(534,655,c),
(483,548,l),
(427,576,o),
(357,598,o),
(298,598,cs),
(241,598,o),
(186,577,o),
(186,528,cs),
(186,478,o),
(245,453,o),
(319,429,c),
(426,392,o),
(565,346,o),
(565,199,cs),
(565,67,o),
(452,-10,o),
(294,-10,cs),
(198,-10,o),
(100,18,o),
(24,61,c)
);
}
);
width = 597;
},
{
layerId = "D4BE8965-D6E9-455E-8A03-697C08C086AB";
shapes = (
{
closed = 1;
nodes = (
(63,140,l),
(144,92,o),
(224,75,o),
(285,75,cs),
(377,75,o),
(441,112,o),
(441,183,cs),
(441,264,o),
(355,290,o),
(263,322,cs),
(159,357,o),
(47,394,o),
(47,526,cs),
(47,662,o),
(166,717,o),
(287,717,cs),
(370,717,o),
(451,693,o),
(512,654,c),
(477,577,l),
(410,612,o),
(348,632,o),
(288,632,cs),
(216,632,o),
(143,604,o),
(143,532,cs),
(143,463,o),
(214,437,o),
(299,408,cs),
(405,371,o),
(537,329,o),
(537,187,cs),
(537,59,o),
(428,-10,o),
(281,-10,cs),
(200,-10,o),
(111,10,o),
(27,63,c)
);
}
);
width = 580;
},
{
layerId = "26E6130D-B3C9-45B2-A3C5-02C986E91ADD";
shapes = (
{
closed = 1;
nodes = (
(47,87,l),
(127,44,o),
(200,26,o),
(269,26,cs),
(386,26,o),
(467,78,o),
(467,173,cs),
(467,272,o),
(379,305,o),
(259,348,cs),
(143,390,o),
(51,427,o),
(51,539,cs),
(51,662,o),
(161,717,o),
(279,717,cs),
(346,717,o),
(414,700,o),
(482,665,c),
(466,632,l),
(403,663,o),
(337,681,o),
(277,681,cs),
(187,681,o),
(91,642,o),
(91,540,cs),
(91,452,o),
(160,427,o),
(277,384,cs),
(409,336,o),
(507,293,o),
(507,174,cs),
(507,58,o),
(415,-10,o),
(266,-10,cs),
(186,-10,o),
(111,10,o),
(31,54,c)
);
}
);
width = 556;
}
);
unicode = 83;
}
{
glyphname = T;
layers = (
{
layerId = "D222E232-D60B-4B2D-8951-17F11CA2060F";
shapes = (
{
closed = 1;
nodes = (
(404,0,l),
(224,0,l),
(224,572,l),
(13,572,l),
(13,707,l),
(615,707,l),
(615,572,l),
(404,572,l)
);
}
);
width = 628;
},
{
layerId = "836ED3A4-1AF9-4FCB-B992-725D22F47718";
shapes = (
{
closed = 1;
nodes = (
(375,0,l),
(229,0,l),
(229,593,l),
(14,593,l),
(14,707,l),
(590,707,l),
(590,593,l),
(375,593,l)
);
}
);
width = 604;
},
{
layerId = "D4BE8965-D6E9-455E-8A03-697C08C086AB";
shapes = (
{
closed = 1;
nodes = (
(331,0,l),
(237,0,l),
(237,625,l),
(16,625,l),
(16,707,l),
(552,707,l),
(552,625,l),
(331,625,l)
);
}
);
width = 568;
},
{
layerId = "26E6130D-B3C9-45B2-A3C5-02C986E91ADD";
shapes = (
{
closed = 1;
nodes = (
(287,0,l),
(249,0,l),
(249,672,l),
(18,672,l),
(18,707,l),
(518,707,l),
(518,672,l),
(287,672,l)
);
}
);
width = 536;
}
);
unicode = 84;
}
{
glyphname = U;
layers = (
{
anchors = (
{
name = top;
position = "{356, 477}";
},
{
name = hook;
position = "{356, 457}";
},
{
name = bottom;
position = "{356, 0}";
}
);
layerId = "BC1C0262-B179-41F2-9022-DD18C3300059";
shapes = (
{
closed = 1;
nodes = (
(656,273,ls),
(656,95,o),
(541,-10,o),
(357,-10,cs),
(175,-10,o),
(56,95,o),
(56,273,cs),
(56,707,l),
(237,707,l),
(237,281,ls),
(237,179,o),
(283,135,o),
(357,135,cs),
(430,135,o),
(475,180,o),
(475,281,cs),
(475,707,l),
(656,707,l)
);
}
);
width = 712;
},
{
anchors = (
{
name = top;
position = "{355, 477}";
},
{
name = Anchor_7;
position = "{373, 517}";
},
{
name = hook;
position = "{355, 457}";
},
{
name = Anchor_9;
position = "{385, 537}";
},
{
name = Anchor_10;
position = "{333, 497}";
},
{
name = bottom;
position = "{355, 0}";
}
);
layerId = "022C621B-D9C5-4075-856F-99776A9BB9BC";
shapes = (
{
closed = 1;
nodes = (
(642,272,ls),
(642,96,o),
(535,-10,o),
(356,-10,cs),
(178,-10,o),
(69,96,o),
(69,272,cs),
(69,707,l),
(215,707,l),
(215,278,ls),
(215,167,o),
(262,111,o),
(356,111,cs),
(449,111,o),
(496,167,o),
(496,278,cs),
(496,707,l),
(642,707,l)
);
}
);
width = 711;
},
{
anchors = (
{
name = top;
position = "{354, 477}";
},
{
name = Anchor_5;
position = "{372, 517}";
},
{
name = hook;
position = "{354, 457}";
},
{
name = Anchor_7;
position = "{384, 537}";
},
{
name = Anchor_8;
position = "{332, 497}";
},
{
name = bottom;
position = "{354, 0}";
}
);
layerId = "F46EB350-572D-40B6-8F96-70923BCB3D86";
shapes = (
{
closed = 1;
nodes = (
(621,270,ls),
(621,98,o),
(526,-10,o),
(355,-10,cs),
(183,-10,o),
(88,98,o),
(88,270,cs),
(88,707,l),
(182,707,l),
(182,273,ls),
(182,149,o),
(230,75,o),
(355,75,cs),
(478,75,o),
(527,148,o),
(527,273,cs),
(527,707,l),
(621,707,l)
);
}
);
width = 709;
},
{
anchors = (
{
name = top;
position = "{352, 477}";
},
{
name = Anchor_6;
position = "{352, 517}";
},
{
name = hook;
position = "{352, 457}";
},
{
name = Anchor_8;
position = "{382, 537}";
},
{
name = Anchor_9;
position = "{340, 497}";
},
{
name = bottom;
position = "{352, 0}";
}
);
layerId = "7900522D-7321-4A46-8482-E4D00C1490A1";
shapes = (
{
closed = 1;
nodes = (
(603,264,ls),
(603,97,o),
(512,-10,o),
(352,-10,cs),
(192,-10,o),
(101,97,o),
(101,264,cs),
(101,707,l),
(139,707,l),
(139,268,ls),
(139,115,o),
(209,26,o),
(352,26,cs),
(495,26,o),
(565,115,o),
(565,268,cs),
(565,707,l),
(603,707,l)
);
}
);
width = 704;
}
);
unicode = 85;
}
{
glyphname = V;
layers = (
{
layerId = "BC1C0262-B179-41F2-9022-DD18C3300059";
shapes = (
{
closed = 1;
nodes = (
(439,0,l),
(261,0,l),
(8,707,l),
(197,707,l),
(353,213,l),
(507,707,l),
(693,707,l)
);
}
);
width = 701;
},
{
layerId = "022C621B-D9C5-4075-856F-99776A9BB9BC";
shapes = (
{
closed = 1;
nodes = (
(408,0,l),
(264,0,l),
(10,707,l),
(164,707,l),
(338,174,l),
(512,707,l),
(662,707,l)
);
}
);
width = 672;
},
{
layerId = "F46EB350-572D-40B6-8F96-70923BCB3D86";
shapes = (
{
closed = 1;
nodes = (
(361,0,l),
(268,0,l),
(13,707,l),
(114,707,l),
(316,116,l),
(519,707,l),
(615,707,l)
);
}
);
width = 628;
},
{
layerId = "7900522D-7321-4A46-8482-E4D00C1490A1";
shapes = (
{
closed = 1;
nodes = (
(319,0,l),
(277,0,l),
(14,707,l),
(55,707,l),
(298,48,l),
(541,707,l),
(581,707,l)
);
}
);
width = 595;
}
);
unicode = 86;
}
{
glyphname = W;
layers = (
{
anchors = (
{
name = top;
position = "{500, 477}";
}
);
layerId = "D43100D0-4BF9-44C0-ADDC-79172AF58462";
shapes = (
{
closed = 1;
nodes = (
(792,0,l),
(623,0,l),
(492,384,l),
(369,0,l),
(201,0,l),
(17,707,l),
(200,707,l),
(296,281,l),
(413,646,l),
(573,646,l),
(699,275,l),
(795,707,l),
(976,707,l)
);
}
);
width = 993;
},
{
anchors = (
{
name = top;
position = "{488, 477}";
},
{
name = Anchor_7;
position = "{484, 517}";
},
{
name = Anchor_10;
position = "{483, 497}";
}
);
layerId = "B5AFC12C-DAB2-4B68-A31B-D6136A1B144F";
shapes = (
{
closed = 1;
nodes = (
(772,0,l),
(632,0,l),
(483,439,l),
(344,0,l),
(204,0,l),
(20,707,l),
(169,707,l),
(283,220,l),
(418,646,l),
(552,646,l),
(696,216,l),
(809,707,l),
(956,707,l)
);
}
);
width = 976;
},
{
anchors = (
{
name = top;
position = "{470, 477}";
},
{
name = Anchor_5;
position = "{466, 517}";
},
{
name = Anchor_8;
position = "{465, 497}";
}
);
layerId = "5166C0C3-C3D2-4F7F-8540-ACBC385E7743";
shapes = (
{
closed = 1;
nodes = (
(742,0,l),
(645,0,l),
(470,522,l),
(306,0,l),
(209,0,l),
(25,707,l),
(123,707,l),
(264,129,l),
(426,646,l),
(520,646,l),
(691,127,l),
(830,707,l),
(926,707,l)
);
}
);
width = 951;
},
{
anchors = (
{
name = top;
position = "{450, 477}";
},
{
name = Anchor_6;
position = "{451, 517}";
},
{
name = Anchor_9;
position = "{445, 497}";
}
);
layerId = "64AEFF5A-033C-4F54-96AE-A64261A50D57";
shapes = (
{
closed = 1;
nodes = (
(686,0,l),
(642,0,l),
(449,572,l),
(263,0,l),
(219,0,l),
(28,707,l),
(69,707,l),
(242,51,l),
(429,627,l),
(471,627,l),
(663,51,l),
(837,707,l),
(877,707,l)
);
}
);
width = 905;
}
);
unicode = 87;
}
{
glyphname = X;
layers = (
{
layerId = "D222E232-D60B-4B2D-8951-17F11CA2060F";
shapes = (
{
closed = 1;
nodes = (
(721,0,l),
(515,0,l),
(360,234,l),
(197,0,l),
(12,0,l),
(258,354,l),
(17,707,l),
(223,707,l),
(368,481,l),
(521,707,l),
(708,707,l),
(471,360,l)
);
}
);
width = 733;
},
{
layerId = "836ED3A4-1AF9-4FCB-B992-725D22F47718";
shapes = (
{
closed = 1;
nodes = (
(680,0,l),
(512,0,l),
(342,255,l),
(166,0,l),
(14,0,l),
(261,355,l),
(20,707,l),
(188,707,l),
(350,460,l),
(518,707,l),
(671,707,l),
(432,359,l)
);
}
);
width = 694;
},
{
layerId = "D4BE8965-D6E9-455E-8A03-697C08C086AB";
shapes = (
{
closed = 1;
nodes = (
(618,0,l),
(508,0,l),
(315,286,l),
(120,0,l),
(17,0,l),
(265,357,l),
(25,707,l),
(135,707,l),
(323,428,l),
(513,707,l),
(616,707,l),
(374,357,l)
);
}
);
width = 635;
},
{
layerId = "26E6130D-B3C9-45B2-A3C5-02C986E91ADD";
shapes = (
{
closed = 1;
nodes = (
(578,0,l),
(530,0,l),
(297,327,l),
(67,0,l),
(19,0,l),
(274,359,l),
(27,707,l),
(75,707,l),
(301,388,l),
(528,707,l),
(576,707,l),
(323,357,l)
);
}
);
width = 597;
}
);
unicode = 88;
}
{
glyphname = Y;
layers = (
{
anchors = (
{
name = top;
position = "{343, 477}";
},
{
name = hook;
position = "{343, 457}";
},
{
name = bottom;
position = "{343, 0}";
}
);
layerId = "BC1C0262-B179-41F2-9022-DD18C3300059";
shapes = (
{
closed = 1;
nodes = (
(433,0,l),
(252,0,l),
(252,274,l),
(9,707,l),
(207,707,l),
(346,432,l),
(488,707,l),
(676,707,l),
(433,274,l)
);
}
);
width = 685;
},
{
anchors = (
{
name = top;
position = "{328, 477}";
},
{
name = Anchor_7;
position = "{348, 517}";
},
{
name = hook;
position = "{328, 457}";
},
{
name = Anchor_10;
position = "{309, 497}";
},
{
name = bottom;
position = "{328, 0}";
}
);
layerId = "022C621B-D9C5-4075-856F-99776A9BB9BC";
shapes = (
{
closed = 1;
nodes = (
(401,0,l),
(255,0,l),
(255,269,l),
(10,707,l),
(171,707,l),
(330,398,l),
(493,707,l),
(646,707,l),
(401,269,l)
);
}
);
width = 656;
},
{
anchors = (
{
name = top;
position = "{306, 477}";
},
{
name = Anchor_5;
position = "{326, 517}";
},
{
name = hook;
position = "{306, 457}";
},
{
name = Anchor_8;
position = "{276, 497}";
},
{
name = bottom;
position = "{306, 0}";
}
);
layerId = "F46EB350-572D-40B6-8F96-70923BCB3D86";
shapes = (
{
closed = 1;
nodes = (
(353,0,l),
(259,0,l),
(259,261,l),
(11,707,l),
(117,707,l),
(306,347,l),
(500,707,l),
(601,707,l),
(353,261,l)
);
}
);
width = 612;
},
{
anchors = (
{
name = top;
position = "{286, 477}";
},
{
name = Anchor_6;
position = "{306, 517}";
},
{
name = hook;
position = "{286, 457}";
},
{
name = Anchor_9;
position = "{256, 497}";
},
{
name = bottom;
position = "{286, 0}";
}
);
layerId = "7900522D-7321-4A46-8482-E4D00C1490A1";
shapes = (
{
closed = 1;
nodes = (
(305,0,l),
(267,0,l),
(267,258,l),
(12,707,l),
(56,707,l),
(287,298,l),
(517,707,l),
(560,707,l),
(305,258,l)
);
}
);
width = 572;
}
);
unicode = 89;
}
{
glyphname = Z;
layers = (
{
anchors = (
{
name = top;
position = "{308, 477}";
},
{
name = hook;
position = "{308, 457}";
}
);
layerId = "B6DF85F1-EBFC-49D5-83CF-7D86C417AD4B";
shapes = (
{
closed = 1;
nodes = (
(592,0,l),
(30,0,l),
(19,86,l),
(360,572,l),
(29,572,l),
(29,707,l),
(586,707,l),
(597,621,l),
(256,135,l),
(592,135,l)
);
}
);
width = 619;
},
{
anchors = (
{
name = top;
position = "{294, 477}";
},
{
name = Anchor_7;
position = "{302, 517}";
},
{
name = hook;
position = "{294, 457}";
}
);
layerId = "D243B678-AA35-4622-BFB2-DA5F5B4AAB22";
shapes = (
{
closed = 1;
nodes = (
(561,0,l),
(31,0,l),
(22,75,l),
(375,593,l),
(32,593,l),
(32,707,l),
(557,707,l),
(566,632,l),
(213,114,l),
(561,114,l)
);
}
);
width = 592;
},
{
anchors = (
{
name = top;
position = "{273, 477}";
},
{
name = Anchor_5;
position = "{281, 517}";
},
{
name = hook;
position = "{273, 457}";
}
);
layerId = "7D45EC82-E8BB-4AC3-AEF4-676BB722768B";
shapes = (
{
closed = 1;
nodes = (
(514,0,l),
(33,0,l),
(27,58,l),
(398,625,l),
(37,625,l),
(37,707,l),
(513,707,l),
(519,649,l),
(148,82,l),
(514,82,l)
);
}
);
width = 551;
},
{
anchors = (
{
name = top;
position = "{263, 477}";
},
{
name = Anchor_6;
position = "{271, 517}";
},
{
name = hook;
position = "{263, 457}";
}
);
layerId = "0550E5A5-F26C-45AF-9FA2-5FA21B0BB434";
shapes = (
{
closed = 1;
nodes = (
(489,0,l),
(35,0,l),
(31,30,l),
(446,672,l),
(42,672,l),
(42,707,l),
(490,707,l),
(494,677,l),
(79,35,l),
(489,35,l)
);
}
);
width = 530;
}
);
unicode = 90;
}
{
glyphname = bracketleft;
layers = (
{
layerId = "B6DF85F1-EBFC-49D5-83CF-7D86C417AD4B";
shapes = (
{
closed = 1;
nodes = (
(417,-222,l),
(61,-222,l),
(61,733,l),
(417,733,l),
(417,603,l),
(238,603,l),
(238,-92,l),
(417,-92,l)
);
}
);
width = 448;
},
{
layerId = "D243B678-AA35-4622-BFB2-DA5F5B4AAB22";
shapes = (
{
closed = 1;
nodes = (
(403,-222,l),
(74,-222,l),
(74,733,l),
(403,733,l),
(403,624,l),
(217,624,l),
(217,-113,l),
(403,-113,l)
);
}
);
width = 429;
},
{
layerId = "7D45EC82-E8BB-4AC3-AEF4-676BB722768B";
shapes = (
{
closed = 1;
nodes = (
(382,-222,l),
(94,-222,l),
(94,733,l),
(382,733,l),
(382,656,l),
(185,656,l),
(185,-145,l),
(382,-145,l)
);
}
);
width = 400;
},
{
layerId = "0550E5A5-F26C-45AF-9FA2-5FA21B0BB434";
shapes = (
{
closed = 1;
nodes = (
(347,-222,l),
(108,-222,l),
(108,733,l),
(347,733,l),
(347,701,l),
(144,701,l),
(144,-190,l),
(347,-190,l)
);
}
);
width = 367;
}
);
unicode = 91;
}
{
glyphname = backslash;
layers = (
{
layerId = "B6DF85F1-EBFC-49D5-83CF-7D86C417AD4B";
shapes = (
{
closed = 1;
nodes = (
(542,-101,l),
(363,-101,l),
(1,795,l),
(180,795,l)
);
}
);
width = 543;
},
{
layerId = "D243B678-AA35-4622-BFB2-DA5F5B4AAB22";
shapes = (
{
closed = 1;
nodes = (
(507,-101,l),
(363,-101,l),
(2,795,l),
(146,795,l)
);
}
);
width = 509;
},
{
layerId = "7D45EC82-E8BB-4AC3-AEF4-676BB722768B";
shapes = (
{
closed = 1;
nodes = (
(455,-101,l),
(363,-101,l),
(3,795,l),
(95,795,l)
);
}
);
width = 458;
},
{
layerId = "0550E5A5-F26C-45AF-9FA2-5FA21B0BB434";
shapes = (
{
closed = 1;
nodes = (
(402,-101,l),
(364,-101,l),
(3,795,l),
(41,795,l)
);
}
);
width = 405;
}
);
unicode = 92;
}
{
glyphname = bracketright;
layers = (
{
layerId = "F976A6FE-4F5D-4CD4-867C-EF90278DFFCC";
shapes = (
{
closed = 1;
nodes = (
(388,-222,l),
(31,-222,l),
(31,-92,l),
(210,-92,l),
(210,603,l),
(31,603,l),
(31,733,l),
(388,733,l)
);
}
);
width = 448;
},
{
layerId = "ECD81CFE-BAA5-49B6-8B8C-C1187BD9FB4D";
shapes = (
{
closed = 1;
nodes = (
(355,-222,l),
(26,-222,l),
(26,-113,l),
(212,-113,l),
(212,624,l),
(26,624,l),
(26,733,l),
(355,733,l)
);
}
);
width = 429;
},
{
layerId = "05C01135-6C20-4612-9616-E32239DF772F";
shapes = (
{
closed = 1;
nodes = (
(306,-222,l),
(18,-222,l),
(18,-145,l),
(215,-145,l),
(215,656,l),
(18,656,l),
(18,733,l),
(306,733,l)
);
}
);
width = 400;
},
{
layerId = "E82A1E35-09AC-49BD-B418-47901BDD1DB1";
shapes = (
{
closed = 1;
nodes = (
(259,-222,l),
(20,-222,l),
(20,-190,l),
(223,-190,l),
(223,701,l),
(20,701,l),
(20,733,l),
(259,733,l)
);
}
);
width = 367;
}
);
unicode = 93;
}
{
glyphname = asciicircum;
layers = (
{
layerId = "F976A6FE-4F5D-4CD4-867C-EF90278DFFCC";
shapes = (
{
closed = 1;
nodes = (
(553,302,l),
(396,274,l),
(287,517,l),
(178,274,l),
(22,302,l),
(224,707,l),
(351,707,l)
);
}
);
width = 576;
},
{
layerId = "ECD81CFE-BAA5-49B6-8B8C-C1187BD9FB4D";
shapes = (
{
closed = 1;
nodes = (
(538,310,l),
(411,288,l),
(284,565,l),
(157,288,l),
(30,310,l),
(225,707,l),
(343,707,l)
);
}
);
width = 568;
},
{
layerId = "05C01135-6C20-4612-9616-E32239DF772F";
shapes = (
{
closed = 1;
nodes = (
(516,322,l),
(433,309,l),
(279,637,l),
(125,309,l),
(42,322,l),
(227,707,l),
(331,707,l)
);
}
);
width = 558;
},
{
layerId = "E82A1E35-09AC-49BD-B418-47901BDD1DB1";
shapes = (
{
closed = 1;
nodes = (
(474,340,l),
(436,333,l),
(272,674,l),
(108,333,l),
(70,340,l),
(253,707,l),
(291,707,l)
);
}
);
width = 544;
}
);
unicode = 94;
}
{
glyphname = underscore;
layers = (
{
layerId = "BC1C0262-B179-41F2-9022-DD18C3300059";
shapes = (
{
closed = 1;
nodes = (
(528,-190,l),
(0,-190,l),
(0,-59,l),
(528,-59,l)
);
}
);
width = 528;
},
{
layerId = "022C621B-D9C5-4075-856F-99776A9BB9BC";
shapes = (
{
closed = 1;
nodes = (
(505,-176,l),
(0,-176,l),
(0,-66,l),
(505,-66,l)
);
}
);
width = 505;
},
{
layerId = "F46EB350-572D-40B6-8F96-70923BCB3D86";
shapes = (
{
closed = 1;
nodes = (
(470,-155,l),
(0,-155,l),
(0,-77,l),
(470,-77,l)
);
}
);
width = 470;
},
{
layerId = "7900522D-7321-4A46-8482-E4D00C1490A1";
shapes = (
{
closed = 1;
nodes = (
(450,-110,l),
(0,-110,l),
(0,-77,l),
(450,-77,l)
);
}
);
width = 450;
}
);
unicode = 95;
}
{
glyphname = a;
layers = (
{
anchors = (
{
name = top;
position = "{271, 477}";
},
{
name = hook;
position = "{271, 457}";
},
{
name = bottom;
position = "{247, 0}";
}
);
layerId = "BC1C0262-B179-41F2-9022-DD18C3300059";
shapes = (
{
closed = 1;
nodes = (
(345,0,l),
(343,6,o),
(338,20,o),
(334,52,c),
(288,16,o),
(238,-5,o),
(183,-5,cs),
(82,-5,o),
(26,66,o),
(26,158,cs),
(26,257,o),
(93,322,o),
(234,322,cs),
(258,322,o),
(288,320,o),
(316,316,c),
(316,320,ls),
(316,370,o),
(274,403,o),
(211,403,cs),
(170,403,o),
(134,390,o),
(91,367,c),
(43,485,l),
(103,520,o),
(181,537,o),
(249,537,cs),
(398,537,o),
(490,458,o),
(490,303,cs),
(490,156,ls),
(490,121,o),
(490,57,o),
(503,0,c)
);
},
{
closed = 1;
nodes = (
(317,226,l),
(309,228,o),
(294,228,o),
(285,228,cs),
(219,228,o),
(190,204,o),
(190,164,cs),
(190,127,o),
(214,111,o),
(246,111,cs),
(273,111,o),
(298,122,o),
(317,132,c)
);
}
);
width = 539;
},
{
anchors = (
{
name = top;
position = "{258, 477}";
},
{
name = Anchor_7;
position = "{257, 517}";
},
{
name = hook;
position = "{258, 457}";
},
{
name = Anchor_10;
position = "{249, 497}";
},
{
name = bottom;
position = "{245, 0}";
}
);
layerId = "022C621B-D9C5-4075-856F-99776A9BB9BC";
shapes = (
{
closed = 1;
nodes = (
(352,0,l),
(349,11,o),
(345,31,o),
(342,58,c),
(298,19,o),
(242,-5,o),
(185,-5,cs),
(89,-5,o),
(31,63,o),
(31,155,cs),
(31,256,o),
(103,318,o),
(236,318,cs),
(265,318,o),
(299,315,o),
(331,310,c),
(331,319,ls),
(331,383,o),
(289,422,o),
(220,422,cs),
(177,422,o),
(135,407,o),
(92,384,c),
(52,482,l),
(105,515,o),
(177,533,o),
(245,533,cs),
(386,533,o),
(470,457,o),
(470,312,cs),
(470,143,ls),
(470,104,o),
(471,45,o),
(482,0,c)
);
},
{
closed = 1;
nodes = (
(332,230,l),
(316,233,o),
(293,234,o),
(278,234,cs),
(201,234,o),
(165,207,o),
(165,159,cs),
(165,116,o),
(192,95,o),
(232,95,cs),
(267,95,o),
(303,111,o),
(332,131,c)
);
}
);
width = 528;
},
{
anchors = (
{
name = top;
position = "{239, 477}";
},
{
name = Anchor_5;
position = "{247, 517}";
},
{
name = hook;
position = "{239, 457}";
},
{
name = Anchor_8;
position = "{229, 497}";
},
{
name = bottom;
position = "{242, 0}";
}
);
layerId = "F46EB350-572D-40B6-8F96-70923BCB3D86";
shapes = (
{
closed = 1;
nodes = (
(362,0,l),
(358,19,o),
(355,48,o),
(354,67,c),
(313,23,o),
(248,-5,o),
(188,-5,cs),
(100,-5,o),
(39,59,o),
(39,150,cs),
(39,254,o),
(118,312,o),
(239,312,cs),
(275,312,o),
(315,308,o),
(354,301,c),
(354,317,ls),
(354,402,o),
(311,451,o),
(234,451,cs),
(187,451,o),
(137,433,o),
(94,409,c),
(65,478,l),
(108,507,o),
(171,527,o),
(239,527,cs),
(368,527,o),
(440,456,o),
(440,325,cs),
(440,123,ls),
(440,79,o),
(443,27,o),
(450,0,c)
);
},
{
closed = 1;
nodes = (
(354,236,l),
(326,241,o),
(292,243,o),
(268,243,cs),
(174,243,o),
(127,212,o),
(127,151,cs),
(127,100,o),
(159,71,o),
(211,71,cs),
(258,71,o),
(311,94,o),
(354,129,c)
);
}
);
width = 512;
},
{
anchors = (
{
name = top;
position = "{238, 477}";
},
{
name = Anchor_6;
position = "{242, 517}";
},
{
name = hook;
position = "{238, 457}";
},
{
name = Anchor_9;
position = "{224, 497}";
},
{
name = bottom;
position = "{237, 0}";
}
);
layerId = "7900522D-7321-4A46-8482-E4D00C1490A1";
shapes = (
{
closed = 1;
nodes = (
(396,0,l),
(389,21,o),
(387,44,o),
(386,67,c),
(348,38,o),
(272,-8,o),
(195,-8,cs),
(112,-8,o),
(44,44,o),
(44,137,cs),
(44,238,o),
(124,296,o),
(260,296,cs),
(301,296,o),
(344,290,o),
(385,283,c),
(385,327,ls),
(385,420,o),
(340,488,o),
(231,488,cs),
(179,488,o),
(130,473,o),
(83,446,c),
(70,477,l),
(117,504,o),
(173,522,o),
(236,522,cs),
(372,522,o),
(421,429,o),
(421,334,cs),
(421,122,ls),
(421,83,o),
(421,39,o),
(432,0,c)
);
},
{
closed = 1;
nodes = (
(385,253,l),
(345,260,o),
(298,264,o),
(263,264,cs),
(150,264,o),
(81,216,o),
(81,136,cs),
(81,79,o),
(117,26,o),
(196,26,cs),
(264,26,o),
(340,66,o),
(385,101,c)
);
}
);
width = 502;
}
);
unicode = 97;
}
{
glyphname = b;
layers = (
{
layerId = "B6DF85F1-EBFC-49D5-83CF-7D86C417AD4B";
shapes = (
{
closed = 1;
nodes = (
(194,0,l),
(53,0,l),
(53,738,l),
(228,753,l),
(228,480,l),
(263,512,o),
(313,537,o),
(373,537,cs),
(503,537,o),
(583,412,o),
(583,269,cs),
(583,115,o),
(488,-10,o),
(352,-10,cs),
(288,-10,o),
(247,15,o),
(204,53,c)
);
},
{
closed = 1;
nodes = (
(228,135,l),
(258,126,o),
(286,124,o),
(303,124,cs),
(371,124,o),
(406,175,o),
(406,265,cs),
(406,371,o),
(359,403,o),
(308,403,cs),
(284,403,o),
(259,397,o),
(228,383,c)
);
}
);
width = 613;
},
{
layerId = "D243B678-AA35-4622-BFB2-DA5F5B4AAB22";
shapes = (
{
closed = 1;
nodes = (
(179,0,l),
(64,0,l),
(64,741,l),
(205,753,l),
(205,473,l),
(246,508,o),
(298,533,o),
(358,533,cs),
(489,533,o),
(566,407,o),
(566,268,cs),
(566,116,o),
(475,-10,o),
(334,-10,cs),
(275,-10,o),
(230,11,o),
(189,46,c)
);
},
{
closed = 1;
nodes = (
(205,124,l),
(237,109,o),
(272,101,o),
(300,101,cs),
(384,101,o),
(424,169,o),
(424,266,cs),
(424,370,o),
(379,422,o),
(311,422,cs),
(276,422,o),
(238,408,o),
(205,389,c)
);
}
);
width = 602;
},
{
layerId = "7D45EC82-E8BB-4AC3-AEF4-676BB722768B";
shapes = (
{
closed = 1;
nodes = (
(157,0,l),
(81,0,l),
(81,745,l),
(170,753,l),
(170,462,l),
(221,502,o),
(275,527,o),
(335,527,cs),
(468,527,o),
(541,399,o),
(541,266,cs),
(541,117,o),
(456,-10,o),
(307,-10,cs),
(256,-10,o),
(204,5,o),
(167,36,c)
);
},
{
closed = 1;
nodes = (
(170,107,l),
(206,83,o),
(251,67,o),
(296,67,cs),
(404,67,o),
(451,160,o),
(451,268,cs),
(451,368,o),
(409,450,o),
(315,450,cs),
(264,450,o),
(207,425,o),
(170,398,c)
);
}
);
width = 586;
},
{
layerId = "0550E5A5-F26C-45AF-9FA2-5FA21B0BB434";
shapes = (
{
closed = 1;
nodes = (
(122,0,l),
(93,0,l),
(93,749,l),
(129,753,l),
(129,444,l),
(180,487,o),
(243,522,o),
(315,522,cs),
(442,522,o),
(515,405,o),
(515,264,cs),
(515,116,o),
(435,-10,o),
(295,-10,cs),
(227,-10,o),
(166,20,o),
(127,51,c)
);
},
{
closed = 1;
nodes = (
(129,90,l),
(173,54,o),
(233,24,o),
(294,24,cs),
(413,24,o),
(478,140,o),
(478,264,cs),
(478,383,o),
(418,488,o),
(311,488,cs),
(247,488,o),
(181,450,o),
(129,405,c)
);
}
);
width = 566;
}
);
unicode = 98;
}
{
glyphname = c;
layers = (
{
anchors = (
{
name = top;
position = "{287, 477}";
},
{
name = hook;
position = "{275, 457}";
}
);
layerId = "D43100D0-4BF9-44C0-ADDC-79172AF58462";
shapes = (
{
closed = 1;
nodes = (
(491,44,l),
(437,8,o),
(375,-10,o),
(306,-10,cs),
(157,-10,o),
(30,81,o),
(30,261,cs),
(30,439,o),
(151,537,o),
(303,537,cs),
(377,537,o),
(433,514,o),
(482,485,c),
(435,366,l),
(392,393,o),
(358,403,o),
(322,403,cs),
(248,403,o),
(207,349,o),
(207,262,cs),
(207,174,o),
(248,124,o),
(323,124,cs),
(360,124,o),
(400,136,o),
(442,161,c)
);
}
);
width = 507;
},
{
anchors = (
{
name = top;
position = "{285, 477}";
},
{
name = Anchor_7;
position = "{279, 517}";
},
{
name = hook;
position = "{273, 457}";
}
);
layerId = "B5AFC12C-DAB2-4B68-A31B-D6136A1B144F";
shapes = (
{
closed = 1;
nodes = (
(482,42,l),
(430,7,o),
(366,-10,o),
(299,-10,cs),
(147,-10,o),
(36,88,o),
(36,260,cs),
(36,429,o),
(142,533,o),
(298,533,cs),
(370,533,o),
(427,511,o),
(474,482,c),
(434,383,l),
(387,410,o),
(349,422,o),
(310,422,cs),
(226,422,o),
(178,362,o),
(178,261,cs),
(178,164,o),
(223,101,o),
(312,101,cs),
(355,101,o),
(398,115,o),
(441,140,c)
);
}
);
width = 502;
},
{
anchors = (
{
name = top;
position = "{282, 477}";
},
{
name = Anchor_5;
position = "{261, 517}";
},
{
name = hook;
position = "{270, 457}";
}
);
layerId = "5166C0C3-C3D2-4F7F-8540-ACBC385E7743";
shapes = (
{
closed = 1;
nodes = (
(469,39,l),
(420,6,o),
(353,-10,o),
(289,-10,cs),
(132,-10,o),
(45,99,o),
(45,259,cs),
(45,414,o),
(128,527,o),
(291,527,cs),
(360,527,o),
(418,506,o),
(462,478,c),
(432,408,l),
(379,436,o),
(335,450,o),
(292,450,cs),
(193,450,o),
(135,382,o),
(135,259,cs),
(135,149,o),
(186,67,o),
(296,67,cs),
(347,67,o),
(395,84,o),
(439,109,c)
);
}
);
width = 494;
},
{
anchors = (
{
name = top;
position = "{271, 477}";
},
{
name = Anchor_6;
position = "{266, 517}";
},
{
name = hook;
position = "{271, 457}";
}
);
layerId = "64AEFF5A-033C-4F54-96AE-A64261A50D57";
shapes = (
{
closed = 1;
nodes = (
(443,36,l),
(398,9,o),
(346,-10,o),
(282,-10,cs),
(133,-10,o),
(51,100,o),
(51,256,cs),
(51,412,o),
(133,522,o),
(281,522,cs),
(337,522,o),
(390,507,o),
(437,482,c),
(424,451,l),
(381,474,o),
(333,488,o),
(282,488,cs),
(154,488,o),
(88,391,o),
(88,256,cs),
(88,120,o),
(155,24,o),
(282,24,cs),
(331,24,o),
(380,38,o),
(430,66,c)
);
}
);
width = 471;
}
);
unicode = 99;
}
{
glyphname = d;
layers = (
{
anchors = (
{
name = bottom;
position = "{310, 0}";
},
{
name = caronslovak;
position = "{697, 517}";
}
);
layerId = "BC1C0262-B179-41F2-9022-DD18C3300059";
shapes = (
{
closed = 1;
nodes = (
(409,0,l),
(404,13,o),
(401,32,o),
(399,61,c),
(356,22,o),
(302,-10,o),
(235,-10,cs),
(106,-10,o),
(30,118,o),
(30,256,cs),
(30,409,o),
(122,537,o),
(255,537,cs),
(311,537,o),
(347,517,o),
(379,493,c),
(379,738,l),
(554,753,l),
(554,156,ls),
(554,117,o),
(555,49,o),
(568,0,c)
);
},
{
closed = 1;
nodes = (
(379,390,l),
(353,398,o),
(326,403,o),
(306,403,cs),
(243,403,o),
(207,351,o),
(207,262,cs),
(207,156,o),
(254,124,o),
(300,124,cs),
(327,124,o),
(355,136,o),
(379,141,c)
);
}
);
width = 607;
},
{
anchors = (
{
name = bottom;
position = "{303, 0}";
},
{
name = caronslovak;
position = "{672, 517}";
}
);
layerId = "022C621B-D9C5-4075-856F-99776A9BB9BC";
shapes = (
{
closed = 1;
nodes = (
(414,0,l),
(410,13,o),
(407,31,o),
(405,55,c),
(362,19,o),
(306,-10,o),
(242,-10,cs),
(111,-10,o),
(36,116,o),
(36,255,cs),
(36,407,o),
(125,533,o),
(265,533,cs),
(316,533,o),
(356,517,o),
(392,490,c),
(392,741,l),
(533,753,l),
(533,143,ls),
(533,104,o),
(534,45,o),
(545,0,c)
);
},
{
closed = 1;
nodes = (
(392,399,l),
(361,414,o),
(327,422,o),
(299,422,cs),
(218,422,o),
(178,354,o),
(178,257,cs),
(178,153,o),
(222,101,o),
(290,101,cs),
(322,101,o),
(360,113,o),
(392,128,c)
);
}
);
width = 597;
},
{
anchors = (
{
name = bottom;
position = "{293, 0}";
},
{
name = caronslovak;
position = "{635, 517}";
}
);
layerId = "F46EB350-572D-40B6-8F96-70923BCB3D86";
shapes = (
{
closed = 1;
nodes = (
(422,0,l),
(419,13,o),
(416,29,o),
(414,46,c),
(371,14,o),
(312,-10,o),
(252,-10,cs),
(119,-10,o),
(45,113,o),
(45,253,cs),
(45,404,o),
(129,527,o),
(280,527,cs),
(323,527,o),
(369,517,o),
(412,486,c),
(412,745,l),
(501,753,l),
(501,123,ls),
(501,84,o),
(502,39,o),
(511,0,c)
);
},
{
closed = 1;
nodes = (
(412,413,l),
(373,438,o),
(328,450,o),
(289,450,cs),
(180,450,o),
(135,359,o),
(135,250,cs),
(135,149,o),
(174,67,o),
(275,67,cs),
(314,67,o),
(367,79,o),
(412,108,c)
);
}
);
width = 582;
},
{
anchors = (
{
name = bottom;
position = "{279, 0}";
},
{
name = caronslovak;
position = "{580, 517}";
}
);
layerId = "7900522D-7321-4A46-8482-E4D00C1490A1";
shapes = (
{
closed = 1;
nodes = (
(445,0,l),
(438,21,o),
(436,45,o),
(435,68,c),
(384,25,o),
(321,-10,o),
(250,-10,cs),
(122,-10,o),
(51,108,o),
(51,248,cs),
(51,396,o),
(132,522,o),
(271,522,cs),
(339,522,o),
(397,490,o),
(434,462,c),
(434,749,l),
(470,753,l),
(470,122,ls),
(470,83,o),
(470,39,o),
(481,0,c)
);
},
{
closed = 1;
nodes = (
(434,421,l),
(393,456,o),
(336,488,o),
(273,488,cs),
(153,488,o),
(88,372,o),
(88,248,cs),
(88,129,o),
(147,24,o),
(254,24,cs),
(318,24,o),
(383,60,o),
(434,107,c)
);
}
);
width = 563;
}
);
unicode = 100;
}
{
glyphname = e;
layers = (
{
anchors = (
{
name = top;
position = "{272, 477}";
},
{
name = hook;
position = "{267, 457}";
},
{
name = bottom;
position = "{272, 0}";
}
);
layerId = "D43100D0-4BF9-44C0-ADDC-79172AF58462";
shapes = (
{
closed = 1;
nodes = (
(507,49,l),
(428,-1,o),
(353,-10,o),
(299,-10,cs),
(160,-10,o),
(30,76,o),
(30,269,cs),
(30,433,o),
(122,537,o),
(273,537,cs),
(427,537,o),
(516,431,o),
(516,302,cs),
(516,274,o),
(512,234,o),
(506,209,c),
(203,209,l),
(223,146,o),
(268,124,o),
(322,124,cs),
(363,124,o),
(407,136,o),
(456,164,c)
);
},
{
closed = 1;
nodes = (
(351,315,l),
(348,374,o),
(325,404,o),
(276,404,cs),
(226,404,o),
(204,370,o),
(197,315,c)
);
}
);
width = 546;
},
{
anchors = (
{
name = top;
position = "{268, 477}";
},
{
name = Anchor_7;
position = "{281, 517}";
},
{
name = hook;
position = "{268, 457}";
},
{
name = Anchor_10;
position = "{259, 497}";
},
{
name = bottom;
position = "{268, 0}";
}
);
layerId = "B5AFC12C-DAB2-4B68-A31B-D6136A1B144F";
shapes = (
{
closed = 1;
nodes = (
(492,45,l),
(425,2,o),
(352,-10,o),
(296,-10,cs),
(147,-10,o),
(36,87,o),
(36,267,cs),
(36,422,o),
(117,533,o),
(270,533,cs),
(418,533,o),
(501,430,o),
(501,298,cs),
(501,271,o),
(498,239,o),
(493,216,c),
(176,216,l),
(192,139,o),
(239,101,o),
(311,101,cs),
(356,101,o),
(402,115,o),
(449,142,c)
);
},
{
closed = 1;
nodes = (
(367,308,l),
(364,379,o),
(335,423,o),
(272,423,cs),
(207,423,o),
(179,375,o),
(172,308,c)
);
}
);
width = 537;
},
{
anchors = (
{
name = top;
position = "{262, 477}";
},
{
name = Anchor_5;
position = "{289, 517}";
},
{
name = hook;
position = "{270, 457}";
},
{
name = Anchor_8;
position = "{250, 497}";
},
{
name = bottom;
position = "{262, 0}";
}
);
layerId = "5166C0C3-C3D2-4F7F-8540-ACBC385E7743";
shapes = (
{
closed = 1;
nodes = (
(469,39,l),
(420,6,o),
(351,-10,o),
(291,-10,cs),
(128,-10,o),
(45,103,o),
(45,264,cs),
(45,406,o),
(110,527,o),
(265,527,cs),
(404,527,o),
(479,429,o),
(479,292,cs),
(479,267,o),
(477,246,o),
(473,227,c),
(135,227,l),
(146,128,o),
(196,67,o),
(295,67,cs),
(346,67,o),
(395,84,o),
(439,109,c)
);
},
{
closed = 1;
nodes = (
(391,298,l),
(388,387,o),
(350,452,o),
(266,452,cs),
(179,452,o),
(142,383,o),
(134,298,c)
);
}
);
width = 524;
},
{
anchors = (
{
name = top;
position = "{262, 477}";
},
{
name = Anchor_6;
position = "{285, 517}";
},
{
name = hook;
position = "{262, 457}";
},
{
name = Anchor_9;
position = "{246, 497}";
},
{
name = bottom;
position = "{258, 0}";
}
);
layerId = "64AEFF5A-033C-4F54-96AE-A64261A50D57";
shapes = (
{
closed = 1;
nodes = (
(454,36,l),
(405,8,o),
(358,-10,o),
(294,-10,cs),
(145,-10,o),
(51,92,o),
(51,258,cs),
(51,402,o),
(123,522,o),
(264,522,cs),
(390,522,o),
(464,426,o),
(464,294,cs),
(464,279,o),
(464,262,o),
(461,249,c),
(88,249,l),
(92,108,o),
(170,24,o),
(295,24,cs),
(346,24,o),
(390,38,o),
(441,66,c)
);
},
{
closed = 1;
nodes = (
(429,281,l),
(429,410,o),
(369,488,o),
(264,488,cs),
(149,488,o),
(93,393,o),
(88,281,c)
);
}
);
width = 515;
}
);
unicode = 101;
}
{
glyphname = f;
layers = (
{
layerId = "7C3FA59E-6813-4975-9D6F-EC289EE60EF9";
name = "#instance";
shapes = (
{
closed = 1;
nodes = (
(272,0,l),
(96,0,l),
(96,399,l),
(11,399,l),
(11,527,l),
(96,527,l),
(96,532,ls),
(96,691,o),
(181,757,o),
(328,757,cs),
(363,757,o),
(395,754,o),
(450,738,c),
(425,612,l),
(401,620,o),
(381,623,o),
(358,623,cs),
(292,623,o),
(272,600,o),
(272,532,cs),
(272,527,l),
(396,527,l),
(396,399,l),
(272,399,l)
);
}
);
width = 419;
},
{
layerId = "D222E232-D60B-4B2D-8951-17F11CA2060F";
shapes = (
{
closed = 1;
nodes = (
(272,0,l),
(96,0,l),
(96,399,l),
(11,399,l),
(11,527,l),
(96,527,l),
(96,532,ls),
(96,691,o),
(181,757,o),
(328,757,cs),
(363,757,o),
(395,754,o),
(450,738,c),
(425,612,l),
(401,620,o),
(381,623,o),
(358,623,cs),
(292,623,o),
(272,600,o),
(272,532,cs),
(272,527,l),
(396,527,l),
(396,399,l),
(272,399,l)
);
}
);
width = 419;
},
{
layerId = "836ED3A4-1AF9-4FCB-B992-725D22F47718";
shapes = (
{
closed = 1;
nodes = (
(249,0,l),
(108,0,l),
(108,417,l),
(12,417,l),
(12,523,l),
(108,523,l),
(108,541,ls),
(108,689,o),
(180,757,o),
(321,757,cs),
(356,757,o),
(385,753,o),
(432,740,c),
(411,635,l),
(384,643,o),
(364,646,o),
(341,646,cs),
(265,646,o),
(249,611,o),
(249,533,cs),
(249,523,l),
(379,523,l),
(379,417,l),
(249,417,l)
);
}
);
width = 402;
},
{
layerId = "D4BE8965-D6E9-455E-8A03-697C08C086AB";
shapes = (
{
closed = 1;
nodes = (
(215,0,l),
(126,0,l),
(126,444,l),
(13,444,l),
(13,517,l),
(126,517,l),
(126,554,ls),
(126,686,o),
(179,757,o),
(310,757,cs),
(345,757,o),
(370,752,o),
(405,743,c),
(390,669,l),
(359,677,o),
(338,680,o),
(315,680,cs),
(224,680,o),
(215,628,o),
(215,535,cs),
(215,517,l),
(353,517,l),
(353,444,l),
(215,444,l)
);
}
);
width = 376;
},
{
layerId = "26E6130D-B3C9-45B2-A3C5-02C986E91ADD";
shapes = (
{
closed = 1;
nodes = (
(157,0,l),
(121,0,l),
(121,479,l),
(14,479,l),
(14,512,l),
(121,512,l),
(121,564,ls),
(121,693,o),
(181,757,o),
(285,757,cs),
(306,757,o),
(327,754,o),
(346,749,c),
(340,716,l),
(323,721,o),
(306,723,o),
(287,723,cs),
(198,723,o),
(157,673,o),
(157,558,cs),
(157,512,l),
(304,512,l),
(304,479,l),
(157,479,l)
);
}
);
width = 320;
}
);
unicode = 102;
}
{
glyphname = h;
layers = (
{
anchors = (
{
name = top;
position = "{140, 477}";
}
);
layerId = "B6DF85F1-EBFC-49D5-83CF-7D86C417AD4B";
shapes = (
{
closed = 1;
nodes = (
(383,0,l),
(370,49,o),
(369,117,o),
(369,156,cs),
(369,322,ls),
(369,366,o),
(357,403,o),
(310,403,cs),
(283,403,o),
(257,395,o),
(228,375,c),
(228,0,l),
(53,0,l),
(53,738,l),
(228,753,l),
(228,476,l),
(269,505,o),
(318,537,o),
(385,537,cs),
(494,537,o),
(545,451,o),
(545,334,cs),
(545,156,ls),
(545,117,o),
(546,49,o),
(558,0,c)
);
}
);
width = 592;
},
{
anchors = (
{
name = top;
position = "{134, 477}";
}
);
layerId = "D243B678-AA35-4622-BFB2-DA5F5B4AAB22";
shapes = (
{
closed = 1;
nodes = (
(400,0,l),
(389,45,o),
(388,104,o),
(388,143,cs),
(388,321,ls),
(388,377,o),
(372,422,o),
(315,422,cs),
(280,422,o),
(242,407,o),
(205,380,c),
(205,0,l),
(64,0,l),
(64,741,l),
(205,753,l),
(205,467,l),
(252,504,o),
(305,533,o),
(369,533,cs),
(480,533,o),
(529,445,o),
(529,330,cs),
(529,143,ls),
(529,104,o),
(530,45,o),
(541,0,c)
);
}
);
width = 587;
},
{
anchors = (
{
name = top;
position = "{125, 477}";
}
);
layerId = "7D45EC82-E8BB-4AC3-AEF4-676BB722768B";
shapes = (
{
closed = 1;
nodes = (
(426,0,l),
(417,39,o),
(416,84,o),
(416,123,cs),
(416,320,ls),
(416,393,o),
(395,450,o),
(322,450,cs),
(275,450,o),
(219,425,o),
(170,388,c),
(170,0,l),
(81,0,l),
(81,745,l),
(170,753,l),
(170,454,l),
(227,503,o),
(286,527,o),
(345,527,cs),
(459,527,o),
(505,436,o),
(505,324,cs),
(505,123,ls),
(505,84,o),
(506,39,o),
(515,0,c)
);
}
);
width = 579;
},
{
anchors = (
{
name = top;
position = "{111, 477}";
}
);
layerId = "0550E5A5-F26C-45AF-9FA2-5FA21B0BB434";
shapes = (
{
closed = 1;
nodes = (
(456,0,l),
(445,39,o),
(445,83,o),
(445,122,cs),
(445,320,ls),
(445,411,o),
(413,488,o),
(320,488,cs),
(254,488,o),
(181,448,o),
(129,405,c),
(129,0,l),
(93,0,l),
(93,749,l),
(129,753,l),
(129,444,l),
(180,484,o),
(250,522,o),
(323,522,cs),
(433,522,o),
(481,437,o),
(481,325,cs),
(481,122,ls),
(481,83,o),
(481,39,o),
(492,0,c)
);
}
);
width = 565;
}
);
unicode = 104;
}
{
glyphname = i;
layers = (
{
anchors = (
{
name = bottom;
position = "{140, 0}";
}
);
layerId = "B6DF85F1-EBFC-49D5-83CF-7D86C417AD4B";
shapes = (
{
closed = 1;
nodes = (
(228,0,l),
(53,0,l),
(53,518,l),
(228,533,l)
);
},
{
closed = 1;
nodes = (
(240,637,o),
(205,602,o),
(140,602,cs),
(75,602,o),
(40,637,o),
(40,691,cs),
(40,742,o),
(75,778,o),
(140,778,cs),
(189,778,o),
(240,729,o),
(240,691,cs)
);
}
);
width = 281;
},
{
anchors = (
{
name = bottom;
position = "{134, 0}";
}
);
layerId = "D243B678-AA35-4622-BFB2-DA5F5B4AAB22";
shapes = (
{
closed = 1;
nodes = (
(205,0,l),
(64,0,l),
(64,517,l),
(205,529,l)
);
},
{
closed = 1;
nodes = (
(217,648,o),
(187,617,o),
(134,617,cs),
(81,617,o),
(51,648,o),
(51,693,cs),
(51,737,o),
(81,767,o),
(134,767,cs),
(174,767,o),
(217,726,o),
(217,693,cs)
);
}
);
width = 269;
},
{
anchors = (
{
name = bottom;
position = "{125, 0}";
}
);
layerId = "7D45EC82-E8BB-4AC3-AEF4-676BB722768B";
shapes = (
{
closed = 1;
nodes = (
(170,0,l),
(81,0,l),
(81,515,l),
(170,523,l)
);
},
{
closed = 1;
nodes = (
(183,664,o),
(160,640,o),
(125,640,cs),
(90,640,o),
(67,664,o),
(67,696,cs),
(67,729,o),
(90,751,o),
(125,751,cs),
(151,751,o),
(183,721,o),
(183,696,cs)
);
}
);
width = 251;
},
{
anchors = (
{
name = bottom;
position = "{111, 0}";
}
);
layerId = "0550E5A5-F26C-45AF-9FA2-5FA21B0BB434";
shapes = (
{
closed = 1;
nodes = (
(129,0,l),
(93,0,l),
(93,510,l),
(129,513,l)
);
},
{
closed = 1;
nodes = (
(142,675,o),
(130,663,o),
(111,663,cs),
(92,663,o),
(80,675,o),
(80,696,cs),
(80,717,o),
(92,729,o),
(111,729,cs),
(125,729,o),
(142,712,o),
(142,696,cs)
);
}
);
width = 222;
}
);
unicode = 105;
}
{
glyphname = j;
layers = (
{
layerId = "B6DF85F1-EBFC-49D5-83CF-7D86C417AD4B";
shapes = (
{
closed = 1;
nodes = (
(226,1,ls),
(226,-156,o),
(163,-242,o),
(25,-242,cs),
(-27,-242,o),
(-62,-229,o),
(-88,-218,c),
(-56,-96,l),
(-38,-105,o),
(-19,-108,o),
(-7,-108,cs),
(47,-108,o),
(51,-55,o),
(51,34,cs),
(51,518,l),
(226,533,l)
);
},
{
closed = 1;
nodes = (
(238,637,o),
(203,602,o),
(138,602,cs),
(73,602,o),
(38,637,o),
(38,691,cs),
(38,742,o),
(73,778,o),
(138,778,cs),
(187,778,o),
(238,729,o),
(238,691,cs)
);
}
);
width = 277;
},
{
layerId = "D243B678-AA35-4622-BFB2-DA5F5B4AAB22";
shapes = (
{
closed = 1;
nodes = (
(203,-15,ls),
(203,-159,o),
(142,-242,o),
(19,-242,cs),
(-24,-242,o),
(-57,-232,o),
(-84,-220,c),
(-58,-120,l),
(-41,-128,o),
(-22,-131,o),
(-7,-131,cs),
(53,-131,o),
(62,-78,o),
(62,22,cs),
(62,517,l),
(203,529,l)
);
},
{
closed = 1;
nodes = (
(215,648,o),
(185,617,o),
(132,617,cs),
(79,617,o),
(49,648,o),
(49,693,cs),
(49,737,o),
(79,767,o),
(132,767,cs),
(172,767,o),
(215,726,o),
(215,693,cs)
);
}
);
width = 265;
},
{
layerId = "7D45EC82-E8BB-4AC3-AEF4-676BB722768B";
shapes = (
{
closed = 1;
nodes = (
(168,-39,ls),
(168,-164,o),
(111,-242,o),
(10,-242,cs),
(-20,-242,o),
(-49,-236,o),
(-78,-223,c),
(-61,-156,l),
(-46,-163,o),
(-26,-166,o),
(-7,-166,cs),
(62,-166,o),
(79,-113,o),
(79,4,cs),
(79,515,l),
(168,523,l)
);
},
{
closed = 1;
nodes = (
(181,664,o),
(158,640,o),
(123,640,cs),
(88,640,o),
(65,664,o),
(65,696,cs),
(65,729,o),
(88,751,o),
(123,751,cs),
(149,751,o),
(181,721,o),
(181,696,cs)
);
}
);
width = 247;
},
{
layerId = "0550E5A5-F26C-45AF-9FA2-5FA21B0BB434";
shapes = (
{
closed = 1;
nodes = (
(126,-48,ls),
(126,-177,o),
(79,-242,o),
(-14,-242,cs),
(-42,-242,o),
(-68,-236,o),
(-88,-229,c),
(-80,-197,l),
(-57,-204,o),
(-35,-208,o),
(-16,-208,cs),
(61,-208,o),
(90,-151,o),
(90,-38,cs),
(90,510,l),
(126,513,l)
);
},
{
closed = 1;
nodes = (
(139,675,o),
(127,663,o),
(108,663,cs),
(89,663,o),
(77,675,o),
(77,696,cs),
(77,717,o),
(89,729,o),
(108,729,cs),
(122,729,o),
(139,712,o),
(139,696,cs)
);
}
);
width = 216;
}
);
unicode = 106;
}
{
glyphname = k;
layers = (
{
anchors = (
{
name = bottom;
position = "{327, 0}";
}
);
layerId = "BC1C0262-B179-41F2-9022-DD18C3300059";
shapes = (
{
closed = 1;
nodes = (
(451,-18,l),
(375,50,o),
(309,139,o),
(263,212,c),
(228,174,l),
(228,0,l),
(53,0,l),
(53,738,l),
(228,753,l),
(228,364,l),
(360,527,l),
(552,527,l),
(370,318,l),
(411,258,o),
(499,160,o),
(571,93,c)
);
}
);
width = 575;
},
{
anchors = (
{
name = bottom;
position = "{313, 0}";
}
);
layerId = "022C621B-D9C5-4075-856F-99776A9BB9BC";
shapes = (
{
closed = 1;
nodes = (
(448,-15,l),
(380,45,o),
(314,132,o),
(254,225,c),
(205,172,l),
(205,0,l),
(64,0,l),
(64,741,l),
(205,753,l),
(205,329,l),
(370,523,l),
(527,523,l),
(341,314,l),
(392,237,o),
(469,146,o),
(546,74,c)
);
}
);
width = 552;
},
{
anchors = (
{
name = bottom;
position = "{292, 0}";
}
);
layerId = "F46EB350-572D-40B6-8F96-70923BCB3D86";
shapes = (
{
closed = 1;
nodes = (
(444,-10,l),
(388,38,o),
(321,122,o),
(240,245,c),
(170,169,l),
(170,0,l),
(81,0,l),
(81,745,l),
(170,753,l),
(170,277,l),
(385,517,l),
(490,517,l),
(298,308,l),
(363,205,o),
(424,125,o),
(509,45,c)
);
}
);
width = 517;
},
{
anchors = (
{
name = bottom;
position = "{282, 0}";
}
);
layerId = "7900522D-7321-4A46-8482-E4D00C1490A1";
shapes = (
{
closed = 1;
nodes = (
(449,-3,l),
(377,76,o),
(300,174,o),
(236,271,c),
(129,155,l),
(129,0,l),
(93,0,l),
(93,749,l),
(129,753,l),
(129,203,l),
(413,512,l),
(458,512,l),
(261,298,l),
(326,197,o),
(402,100,o),
(477,21,c)
);
}
);
width = 486;
}
);
unicode = 107;
}
{
glyphname = l;
layers = (
{
layerId = "7C3FA59E-6813-4975-9D6F-EC289EE60EF9";
name = "#instance";
shapes = (
{
closed = 1;
nodes = (
(228,0,l),
(53,0,l),
(53,738,l),
(228,753,l)
);
}
);
width = 281;
},
{
layerId = "D222E232-D60B-4B2D-8951-17F11CA2060F";
shapes = (
{
closed = 1;
nodes = (
(228,0,l),
(53,0,l),
(53,738,l),
(228,753,l)
);
}
);
width = 281;
},
{
layerId = "836ED3A4-1AF9-4FCB-B992-725D22F47718";
shapes = (
{
closed = 1;
nodes = (
(205,0,l),
(64,0,l),
(64,741,l),
(205,753,l)
);
}
);
width = 269;
},
{
layerId = "D4BE8965-D6E9-455E-8A03-697C08C086AB";
shapes = (
{
closed = 1;
nodes = (
(170,0,l),
(81,0,l),
(81,745,l),
(170,753,l)
);
}
);
width = 251;
},
{
layerId = "26E6130D-B3C9-45B2-A3C5-02C986E91ADD";
shapes = (
{
closed = 1;
nodes = (
(129,0,l),
(93,0,l),
(93,749,l),
(129,753,l)
);
}
);
width = 222;
}
);
unicode = 108;
}
{
glyphname = m;
layers = (
{
layerId = "D222E232-D60B-4B2D-8951-17F11CA2060F";
shapes = (
{
closed = 1;
nodes = (
(675,0,l),
(662,49,o),
(661,117,o),
(661,156,cs),
(661,322,ls),
(661,371,o),
(650,403,o),
(604,403,cs),
(581,403,o),
(555,397,o),
(529,380,c),
(530,363,o),
(532,349,o),
(532,334,cs),
(532,156,ls),
(532,117,o),
(533,49,o),
(545,0,c),
(369,0,l),
(357,49,o),
(356,117,o),
(356,156,cs),
(356,322,ls),
(356,368,o),
(344,403,o),
(298,403,cs),
(275,403,o),
(251,396,o),
(226,382,c),
(226,0,l),
(51,0,l),
(51,518,l),
(186,533,l),
(201,462,l),
(247,503,o),
(303,537,o),
(372,537,cs),
(436,537,o),
(479,507,o),
(505,461,c),
(552,501,o),
(607,537,o),
(677,537,cs),
(787,537,o),
(837,446,o),
(837,334,cs),
(837,156,ls),
(837,117,o),
(838,49,o),
(850,0,c)
);
}
);
width = 886;
},
{
layerId = "836ED3A4-1AF9-4FCB-B992-725D22F47718";
shapes = (
{
closed = 1;
nodes = (
(690,0,l),
(679,45,o),
(678,104,o),
(678,143,cs),
(678,321,ls),
(678,381,o),
(662,422,o),
(606,422,cs),
(575,422,o),
(539,410,o),
(506,387,c),
(509,368,o),
(511,350,o),
(511,330,cs),
(511,143,ls),
(511,104,o),
(512,45,o),
(523,0,c),
(382,0,l),
(371,45,o),
(370,104,o),
(370,143,cs),
(370,321,ls),
(370,378,o),
(354,422,o),
(299,422,cs),
(268,422,o),
(235,409,o),
(203,388,c),
(203,0,l),
(62,0,l),
(62,517,l),
(175,529,l),
(187,461,l),
(232,500,o),
(286,533,o),
(353,533,cs),
(417,533,o),
(459,503,o),
(484,456,c),
(535,501,o),
(592,533,o),
(659,533,cs),
(770,533,o),
(819,442,o),
(819,330,cs),
(819,143,ls),
(819,104,o),
(820,45,o),
(831,0,c)
);
}
);
width = 878;
},
{
layerId = "D4BE8965-D6E9-455E-8A03-697C08C086AB";
shapes = (
{
closed = 1;
nodes = (
(713,0,l),
(704,39,o),
(703,84,o),
(703,123,cs),
(703,320,ls),
(703,396,o),
(680,450,o),
(609,450,cs),
(566,450,o),
(515,429,o),
(472,398,c),
(477,375,o),
(480,351,o),
(480,324,cs),
(480,123,ls),
(480,84,o),
(481,39,o),
(490,0,c),
(401,0,l),
(392,39,o),
(391,84,o),
(391,123,cs),
(391,320,ls),
(391,393,o),
(369,450,o),
(300,450,cs),
(257,450,o),
(211,429,o),
(168,397,c),
(168,0,l),
(79,0,l),
(79,515,l),
(159,523,l),
(166,460,l),
(210,496,o),
(261,527,o),
(325,527,cs),
(388,527,o),
(429,497,o),
(453,449,c),
(510,501,o),
(569,527,o),
(632,527,cs),
(745,527,o),
(792,436,o),
(792,324,cs),
(792,123,ls),
(792,84,o),
(793,39,o),
(802,0,c)
);
}
);
width = 866;
},
{
layerId = "26E6130D-B3C9-45B2-A3C5-02C986E91ADD";
shapes = (
{
closed = 1;
nodes = (
(746,0,l),
(735,39,o),
(735,83,o),
(735,122,cs),
(735,320,ls),
(735,409,o),
(703,488,o),
(612,488,cs),
(549,488,o),
(489,450,o),
(442,411,c),
(450,385,o),
(454,356,o),
(454,325,cs),
(454,122,ls),
(454,83,o),
(454,39,o),
(465,0,c),
(429,0,l),
(418,39,o),
(418,83,o),
(418,122,cs),
(418,320,ls),
(418,409,o),
(389,488,o),
(298,488,cs),
(238,488,o),
(178,452,o),
(126,413,c),
(126,0,l),
(90,0,l),
(90,510,l),
(120,513,l),
(125,448,l),
(173,487,o),
(234,522,o),
(302,522,cs),
(363,522,o),
(406,492,o),
(430,441,c),
(479,482,o),
(543,522,o),
(616,522,cs),
(721,522,o),
(771,437,o),
(771,325,cs),
(771,122,ls),
(771,83,o),
(771,39,o),
(782,0,c)
);
}
);
width = 855;
}
);
unicode = 109;
}
{
glyphname = n;
layers = (
{
anchors = (
{
name = top;
position = "{295, 477}";
},
{
name = hook;
position = "{295, 457}";
},
{
name = bottom;
position = "{313, 0}";
}
);
layerId = "BC1C0262-B179-41F2-9022-DD18C3300059";
shapes = (
{
closed = 1;
nodes = (
(381,0,l),
(368,49,o),
(367,117,o),
(367,156,cs),
(367,322,ls),
(367,366,o),
(355,403,o),
(308,403,cs),
(281,403,o),
(255,395,o),
(226,375,c),
(226,0,l),
(51,0,l),
(51,518,l),
(186,533,l),
(202,456,l),
(249,495,o),
(305,537,o),
(383,537,cs),
(492,537,o),
(543,451,o),
(543,334,cs),
(543,156,ls),
(543,117,o),
(544,49,o),
(556,0,c)
);
}
);
width = 590;
},
{
anchors = (
{
name = top;
position = "{295, 477}";
},
{
name = Anchor_7;
position = "{316, 517}";
},
{
name = hook;
position = "{295, 457}";
},
{
name = bottom;
position = "{308, 0}";
}
);
layerId = "022C621B-D9C5-4075-856F-99776A9BB9BC";
shapes = (
{
closed = 1;
nodes = (
(398,0,l),
(387,45,o),
(386,104,o),
(386,143,cs),
(386,321,ls),
(386,377,o),
(370,422,o),
(313,422,cs),
(278,422,o),
(240,407,o),
(203,380,c),
(203,0,l),
(62,0,l),
(62,517,l),
(175,529,l),
(188,455,l),
(239,498,o),
(296,533,o),
(367,533,cs),
(478,533,o),
(527,445,o),
(527,330,cs),
(527,143,ls),
(527,104,o),
(528,45,o),
(539,0,c)
);
}
);
width = 585;
},
{
anchors = (
{
name = top;
position = "{295, 477}";
},
{
name = Anchor_5;
position = "{316, 517}";
},
{
name = hook;
position = "{295, 457}";
},
{
name = bottom;
position = "{300, 0}";
}
);
layerId = "F46EB350-572D-40B6-8F96-70923BCB3D86";
shapes = (
{
closed = 1;
nodes = (
(424,0,l),
(415,39,o),
(414,84,o),
(414,123,cs),
(414,320,ls),
(414,393,o),
(393,450,o),
(320,450,cs),
(273,450,o),
(217,425,o),
(168,388,c),
(168,0,l),
(79,0,l),
(79,515,l),
(159,523,l),
(167,454,l),
(224,503,o),
(283,527,o),
(343,527,cs),
(457,527,o),
(503,436,o),
(503,324,cs),
(503,123,ls),
(503,84,o),
(504,39,o),
(513,0,c)
);
}
);
width = 577;
},
{
anchors = (
{
name = top;
position = "{282, 477}";
},
{
name = Anchor_6;
position = "{307, 517}";
},
{
name = hook;
position = "{282, 457}";
},
{
name = bottom;
position = "{291, 0}";
}
);
layerId = "7900522D-7321-4A46-8482-E4D00C1490A1";
shapes = (
{
closed = 1;
nodes = (
(453,0,l),
(442,39,o),
(442,83,o),
(442,122,cs),
(442,320,ls),
(442,411,o),
(410,488,o),
(317,488,cs),
(251,488,o),
(178,448,o),
(126,405,c),
(126,0,l),
(90,0,l),
(90,510,l),
(120,513,l),
(125,444,l),
(176,484,o),
(247,522,o),
(320,522,cs),
(430,522,o),
(478,437,o),
(478,325,cs),
(478,122,ls),
(478,83,o),
(478,39,o),
(489,0,c)
);
}
);
width = 562;
}
);
unicode = 110;
}
{
glyphname = o;
layers = (
{
anchors = (
{
name = top;
position = "{304, 477}";
},
{
name = hook;
position = "{304, 457}";
},
{
name = bottom;
position = "{304, 0}";
}
);
layerId = "B6DF85F1-EBFC-49D5-83CF-7D86C417AD4B";
shapes = (
{
closed = 1;
nodes = (
(224,124,o),
(207,193,o),
(207,262,cs),
(207,329,o),
(222,403,o),
(304,403,cs),
(387,403,o),
(402,333,o),
(402,262,cs),
(402,193,o),
(388,124,o),
(304,124,cs)
);
},
{
closed = 1;
nodes = (
(578,432,o),
(468,537,o),
(304,537,cs),
(134,537,o),
(30,425,o),
(30,262,cs),
(30,94,o),
(142,-10,o),
(304,-10,cs),
(466,-10,o),
(578,93,o),
(578,262,cs)
);
}
);
width = 608;
},
{
anchors = (
{
name = top;
position = "{299, 477}";
},
{
name = Anchor_7;
position = "{299, 517}";
},
{
name = hook;
position = "{299, 457}";
},
{
name = Anchor_9;
position = "{341, 537}";
},
{
name = Anchor_10;
position = "{299, 497}";
},
{
name = bottom;
position = "{299, 0}";
}
);
layerId = "D243B678-AA35-4622-BFB2-DA5F5B4AAB22";
shapes = (
{
closed = 1;
nodes = (
(205,101,o),
(178,180,o),
(178,261,cs),
(178,342,o),
(205,422,o),
(299,422,cs),
(394,422,o),
(419,342,o),
(419,261,cs),
(419,180,o),
(394,101,o),
(299,101,cs)
);
},
{
closed = 1;
nodes = (
(561,426,o),
(461,533,o),
(299,533,cs),
(131,533,o),
(36,419,o),
(36,261,cs),
(36,97,o),
(138,-10,o),
(299,-10,cs),
(460,-10,o),
(561,96,o),
(561,261,cs)
);
}
);
width = 597;
},
{
anchors = (
{
name = top;
position = "{291, 477}";
},
{
name = Anchor_5;
position = "{291, 517}";
},
{
name = hook;
position = "{291, 457}";
},
{
name = Anchor_7;
position = "{333, 537}";
},
{
name = Anchor_8;
position = "{291, 497}";
},
{
name = bottom;
position = "{291, 0}";
}
);
layerId = "7D45EC82-E8BB-4AC3-AEF4-676BB722768B";
shapes = (
{
closed = 1;
nodes = (
(177,67,o),
(135,161,o),
(135,259,cs),
(135,362,o),
(180,450,o),
(291,450,cs),
(405,450,o),
(445,356,o),
(445,259,cs),
(445,160,o),
(403,67,o),
(291,67,cs)
);
},
{
closed = 1;
nodes = (
(535,417,o),
(450,527,o),
(291,527,cs),
(126,527,o),
(45,410,o),
(45,259,cs),
(45,101,o),
(132,-10,o),
(291,-10,cs),
(451,-10,o),
(535,101,o),
(535,259,cs)
);
}
);
width = 580;
},
{
anchors = (
{
name = top;
position = "{279, 477}";
},
{
name = Anchor_6;
position = "{279, 517}";
},
{
name = hook;
position = "{279, 457}";
},
{
name = Anchor_8;
position = "{322, 537}";
},
{
name = Anchor_9;
position = "{279, 497}";
},
{
name = bottom;
position = "{279, 0}";
}
);
layerId = "0550E5A5-F26C-45AF-9FA2-5FA21B0BB434";
shapes = (
{
closed = 1;
nodes = (
(88,377,o),
(148,488,o),
(279,488,cs),
(413,488,o),
(470,374,o),
(470,256,cs),
(470,134,o),
(410,24,o),
(279,24,cs),
(148,24,o),
(88,135,o),
(88,256,cs)
);
},
{
closed = 1;
nodes = (
(435,-10,o),
(507,117,o),
(507,256,cs),
(507,402,o),
(432,522,o),
(279,522,cs),
(123,522,o),
(51,395,o),
(51,256,cs),
(51,118,o),
(124,-10,o),
(279,-10,cs)
);
}
);
width = 558;
}
);
unicode = 111;
}
{
glyphname = p;
layers = (
{
layerId = "D222E232-D60B-4B2D-8951-17F11CA2060F";
shapes = (
{
closed = 1;
nodes = (
(226,-232,l),
(51,-232,l),
(51,518,l),
(186,533,l),
(201,458,l),
(238,497,o),
(298,537,o),
(371,537,cs),
(501,537,o),
(581,412,o),
(581,269,cs),
(581,115,o),
(487,-10,o),
(350,-10,cs),
(299,-10,o),
(261,7,o),
(226,32,c)
);
},
{
closed = 1;
nodes = (
(226,135,l),
(256,126,o),
(284,124,o),
(301,124,cs),
(369,124,o),
(404,175,o),
(404,265,cs),
(404,371,o),
(357,403,o),
(306,403,cs),
(282,403,o),
(257,397,o),
(226,383,c)
);
}
);
width = 611;
},
{
layerId = "836ED3A4-1AF9-4FCB-B992-725D22F47718";
shapes = (
{
closed = 1;
nodes = (
(203,-232,l),
(62,-232,l),
(62,517,l),
(175,529,l),
(187,459,l),
(230,499,o),
(288,533,o),
(356,533,cs),
(487,533,o),
(564,407,o),
(564,268,cs),
(564,116,o),
(473,-10,o),
(332,-10,cs),
(281,-10,o),
(240,6,o),
(203,33,c)
);
},
{
closed = 1;
nodes = (
(203,124,l),
(235,109,o),
(270,101,o),
(298,101,cs),
(382,101,o),
(422,169,o),
(422,266,cs),
(422,370,o),
(377,422,o),
(309,422,cs),
(274,422,o),
(236,408,o),
(203,389,c)
);
}
);
width = 600;
},
{
layerId = "D4BE8965-D6E9-455E-8A03-697C08C086AB";
shapes = (
{
closed = 1;
nodes = (
(168,-232,l),
(79,-232,l),
(79,515,l),
(159,523,l),
(166,461,l),
(218,502,o),
(273,527,o),
(333,527,cs),
(466,527,o),
(539,399,o),
(539,266,cs),
(539,117,o),
(452,-10,o),
(305,-10,cs),
(254,-10,o),
(209,5,o),
(168,34,c)
);
},
{
closed = 1;
nodes = (
(168,107,l),
(204,83,o),
(249,67,o),
(294,67,cs),
(402,67,o),
(449,160,o),
(449,268,cs),
(449,368,o),
(407,450,o),
(313,450,cs),
(262,450,o),
(205,425,o),
(168,398,c)
);
}
);
width = 584;
},
{
layerId = "26E6130D-B3C9-45B2-A3C5-02C986E91ADD";
shapes = (
{
closed = 1;
nodes = (
(126,-232,l),
(90,-232,l),
(90,510,l),
(120,513,l),
(125,444,l),
(177,487,o),
(240,522,o),
(312,522,cs),
(439,522,o),
(512,405,o),
(512,264,cs),
(512,116,o),
(433,-10,o),
(293,-10,cs),
(225,-10,o),
(165,18,o),
(126,49,c)
);
},
{
closed = 1;
nodes = (
(126,90,l),
(170,54,o),
(230,24,o),
(291,24,cs),
(410,24,o),
(475,140,o),
(475,264,cs),
(475,383,o),
(415,488,o),
(308,488,cs),
(244,488,o),
(178,450,o),
(126,405,c)
);
}
);
width = 563;
}
);
unicode = 112;
}
{
glyphname = q;
layers = (
{
layerId = "D43100D0-4BF9-44C0-ADDC-79172AF58462";
shapes = (
{
closed = 1;
nodes = (
(554,-232,l),
(379,-232,l),
(379,54,l),
(341,16,o),
(294,-10,o),
(234,-10,cs),
(107,-10,o),
(30,119,o),
(30,255,cs),
(30,410,o),
(122,537,o),
(256,537,cs),
(321,537,o),
(366,509,o),
(404,472,c),
(416,518,l),
(554,533,l)
);
},
{
closed = 1;
nodes = (
(379,390,l),
(353,398,o),
(326,403,o),
(306,403,cs),
(243,403,o),
(207,351,o),
(207,262,cs),
(207,156,o),
(256,124,o),
(297,124,cs),
(329,124,o),
(355,139,o),
(379,151,c)
);
}
);
width = 605;
},
{
layerId = "B5AFC12C-DAB2-4B68-A31B-D6136A1B144F";
shapes = (
{
closed = 1;
nodes = (
(533,-232,l),
(392,-232,l),
(392,50,l),
(352,15,o),
(301,-10,o),
(241,-10,cs),
(112,-10,o),
(36,116,o),
(36,255,cs),
(36,407,o),
(125,533,o),
(265,533,cs),
(322,533,o),
(368,512,o),
(408,477,c),
(417,517,l),
(533,529,l)
);
},
{
closed = 1;
nodes = (
(392,399,l),
(361,414,o),
(327,422,o),
(299,422,cs),
(218,422,o),
(178,354,o),
(178,257,cs),
(178,153,o),
(223,101,o),
(288,101,cs),
(323,101,o),
(360,115,o),
(392,134,c)
);
}
);
width = 595;
},
{
layerId = "5166C0C3-C3D2-4F7F-8540-ACBC385E7743";
shapes = (
{
closed = 1;
nodes = (
(501,-232,l),
(412,-232,l),
(412,44,l),
(369,13,o),
(312,-10,o),
(252,-10,cs),
(119,-10,o),
(45,112,o),
(45,255,cs),
(45,403,o),
(130,527,o),
(279,527,cs),
(323,527,o),
(371,516,o),
(414,485,c),
(419,515,l),
(501,523,l)
);
},
{
closed = 1;
nodes = (
(412,413,l),
(373,438,o),
(328,450,o),
(289,450,cs),
(180,450,o),
(135,359,o),
(135,250,cs),
(135,149,o),
(174,67,o),
(275,67,cs),
(314,67,o),
(367,79,o),
(412,108,c)
);
}
);
width = 580;
},
{
layerId = "64AEFF5A-033C-4F54-96AE-A64261A50D57";
shapes = (
{
closed = 1;
nodes = (
(470,-232,l),
(434,-232,l),
(434,67,l),
(383,24,o),
(319,-10,o),
(250,-10,cs),
(122,-10,o),
(51,108,o),
(51,248,cs),
(51,396,o),
(132,522,o),
(271,522,cs),
(340,522,o),
(399,489,o),
(435,461,c),
(438,510,l),
(470,513,l)
);
},
{
closed = 1;
nodes = (
(434,421,l),
(393,456,o),
(336,488,o),
(273,488,cs),
(153,488,o),
(88,372,o),
(88,248,cs),
(88,129,o),
(147,24,o),
(254,24,cs),
(318,24,o),
(383,60,o),
(434,107,c)
);
}
);
width = 560;
}
);
unicode = 113;
}
{
glyphname = r;
layers = (
{
anchors = (
{
name = top;
position = "{221, 477}";
},
{
name = bottom;
position = "{138, 0}";
}
);
layerId = "D43100D0-4BF9-44C0-ADDC-79172AF58462";
shapes = (
{
closed = 1;
nodes = (
(226,0,l),
(51,0,l),
(51,518,l),
(186,533,l),
(203,452,l),
(239,503,o),
(276,537,o),
(335,537,cs),
(353,537,o),
(373,533,o),
(395,526,c),
(365,378,l),
(340,387,o),
(322,388,o),
(307,388,cs),
(275,388,o),
(254,382,o),
(226,365,c)
);
}
);
width = 401;
},
{
anchors = (
{
name = top;
position = "{221, 477}";
},
{
name = Anchor_7;
position = "{235, 517}";
},
{
name = bottom;
position = "{132, 0}";
}
);
layerId = "B5AFC12C-DAB2-4B68-A31B-D6136A1B144F";
shapes = (
{
closed = 1;
nodes = (
(203,0,l),
(62,0,l),
(62,517,l),
(175,529,l),
(189,449,l),
(228,500,o),
(268,533,o),
(324,533,cs),
(342,533,o),
(362,529,o),
(384,522,c),
(358,399,l),
(335,407,o),
(317,408,o),
(302,408,cs),
(262,408,o),
(235,396,o),
(203,372,c)
);
}
);
width = 392;
},
{
anchors = (
{
name = top;
position = "{221, 477}";
},
{
name = Anchor_5;
position = "{235, 517}";
},
{
name = bottom;
position = "{123, 0}";
}
);
layerId = "5166C0C3-C3D2-4F7F-8540-ACBC385E7743";
shapes = (
{
closed = 1;
nodes = (
(168,0,l),
(79,0,l),
(79,515,l),
(159,523,l),
(168,444,l),
(211,496,o),
(256,527,o),
(308,527,cs),
(326,527,o),
(346,523,o),
(368,516,c),
(347,430,l),
(327,437,o),
(309,438,o),
(294,438,cs),
(242,438,o),
(207,417,o),
(168,382,c)
);
}
);
width = 379;
},
{
anchors = (
{
name = top;
position = "{206, 477}";
},
{
name = Anchor_6;
position = "{220, 517}";
},
{
name = bottom;
position = "{108, 0}";
}
);
layerId = "64AEFF5A-033C-4F54-96AE-A64261A50D57";
shapes = (
{
closed = 1;
nodes = (
(126,0,l),
(90,0,l),
(90,510,l),
(120,513,l),
(125,435,l),
(164,482,o),
(220,522,o),
(283,522,cs),
(300,522,o),
(323,519,o),
(340,514,c),
(332,480,l),
(317,484,o),
(298,487,o),
(282,487,cs),
(225,487,o),
(171,449,o),
(126,390,c)
);
}
);
width = 352;
}
);
unicode = 114;
}
{
glyphname = s;
layers = (
{
anchors = (
{
name = top;
position = "{244, 477}";
},
{
name = bottom;
position = "{248, 0}";
}
);
layerId = "B6DF85F1-EBFC-49D5-83CF-7D86C417AD4B";
shapes = (
{
closed = 1;
nodes = (
(399,363,l),
(341,397,o),
(297,405,o),
(262,405,cs),
(231,405,o),
(208,396,o),
(208,376,cs),
(208,354,o),
(242,339,o),
(286,326,cs),
(360,303,o),
(462,268,o),
(462,153,cs),
(462,32,o),
(355,-10,o),
(241,-10,cs),
(163,-10,o),
(93,9,o),
(27,44,c),
(73,162,l),
(125,135,o),
(177,122,o),
(224,122,cs),
(256,122,o),
(288,129,o),
(288,149,cs),
(288,170,o),
(258,182,o),
(219,198,c),
(147,220,o),
(34,256,o),
(34,373,cs),
(34,484,o),
(136,537,o),
(241,537,cs),
(308,537,o),
(386,516,o),
(444,481,c)
);
}
);
width = 488;
},
{
anchors = (
{
name = top;
position = "{237, 477}";
},
{
name = Anchor_7;
position = "{232, 517}";
},
{
name = bottom;
position = "{248, 0}";
}
);
layerId = "D243B678-AA35-4622-BFB2-DA5F5B4AAB22";
shapes = (
{
closed = 1;
nodes = (
(392,381,l),
(336,412,o),
(290,424,o),
(250,424,cs),
(211,424,o),
(179,410,o),
(179,381,cs),
(179,349,o),
(221,332,o),
(273,315,cs),
(349,291,o),
(447,257,o),
(447,146,cs),
(447,30,o),
(345,-10,o),
(235,-10,cs),
(162,-10,o),
(94,7,o),
(32,42,c),
(72,141,l),
(124,114,o),
(179,99,o),
(228,99,cs),
(268,99,o),
(307,110,o),
(307,142,cs),
(307,174,o),
(267,190,o),
(214,209,c),
(140,233,o),
(39,269,o),
(39,377,cs),
(39,482,o),
(134,533,o),
(238,533,cs),
(302,533,o),
(375,515,o),
(431,480,c)
);
}
);
width = 479;
},
{
anchors = (
{
name = top;
position = "{227, 477}";
},
{
name = Anchor_5;
position = "{232, 517}";
},
{
name = bottom;
position = "{248, 0}";
}
);
layerId = "7D45EC82-E8BB-4AC3-AEF4-676BB722768B";
shapes = (
{
closed = 1;
nodes = (
(382,408,l),
(329,435,o),
(280,452,o),
(232,452,cs),
(181,452,o),
(135,431,o),
(135,389,cs),
(135,342,o),
(189,321,o),
(254,299,cs),
(333,273,o),
(425,240,o),
(425,135,cs),
(425,27,o),
(330,-10,o),
(226,-10,cs),
(161,-10,o),
(95,4,o),
(40,39,c),
(71,109,l),
(123,82,o),
(182,65,o),
(234,65,cs),
(286,65,o),
(336,82,o),
(336,131,cs),
(336,180,o),
(280,202,o),
(207,226,cs),
(129,253,o),
(46,288,o),
(46,383,cs),
(46,479,o),
(131,527,o),
(234,527,cs),
(293,527,o),
(359,513,o),
(412,478,c)
);
}
);
width = 465;
},
{
anchors = (
{
name = top;
position = "{227, 477}";
},
{
name = Anchor_6;
position = "{232, 517}";
},
{
name = bottom;
position = "{241, 0}";
}
);
layerId = "0550E5A5-F26C-45AF-9FA2-5FA21B0BB434";
shapes = (
{
closed = 1;
nodes = (
(382,450,l),
(333,475,o),
(278,488,o),
(230,488,cs),
(155,488,o),
(89,457,o),
(89,390,cs),
(89,330,o),
(143,310,o),
(239,275,cs),
(330,243,o),
(408,211,o),
(408,124,cs),
(408,32,o),
(323,-10,o),
(225,-10,cs),
(158,-10,o),
(93,9,o),
(46,33,c),
(59,64,l),
(108,40,o),
(170,24,o),
(227,24,cs),
(297,24,o),
(371,48,o),
(371,123,cs),
(371,189,o),
(313,210,o),
(216,245,cs),
(124,277,o),
(52,308,o),
(52,390,cs),
(52,479,o),
(136,522,o),
(230,522,cs),
(286,522,o),
(340,508,o),
(395,481,c)
);
}
);
width = 454;
}
);
unicode = 115;
}
{
glyphname = t;
layers = (
{
anchors = (
{
name = bottom;
position = "{242, 0}";
},
{
name = caronslovak;
position = "{418, 517}";
}
);
layerId = "BC1C0262-B179-41F2-9022-DD18C3300059";
shapes = (
{
closed = 1;
nodes = (
(418,19,l),
(378,1,o),
(327,-10,o),
(282,-10,cs),
(160,-10,o),
(94,56,o),
(94,197,cs),
(94,399,l),
(10,399,l),
(10,527,l),
(94,527,l),
(94,648,l),
(272,663,l),
(272,527,l),
(397,527,l),
(397,399,l),
(272,399,l),
(272,223,ls),
(272,151,o),
(289,124,o),
(335,124,cs),
(349,124,o),
(367,128,o),
(387,135,c)
);
}
);
width = 429;
},
{
anchors = (
{
name = bottom;
position = "{242, 0}";
},
{
name = caronslovak;
position = "{384, 517}";
}
);
layerId = "022C621B-D9C5-4075-856F-99776A9BB9BC";
shapes = (
{
closed = 1;
nodes = (
(399,15,l),
(361,-2,o),
(322,-10,o),
(283,-10,cs),
(162,-10,o),
(107,62,o),
(107,195,cs),
(107,417,l),
(11,417,l),
(11,523,l),
(107,523,l),
(107,647,l),
(249,659,l),
(249,523,l),
(378,523,l),
(378,417,l),
(249,417,l),
(249,215,ls),
(249,146,o),
(262,101,o),
(317,101,cs),
(334,101,o),
(353,105,o),
(374,112,c)
);
}
);
width = 413;
},
{
anchors = (
{
name = bottom;
position = "{242, 0}";
},
{
name = caronslovak;
position = "{333, 517}";
}
);
layerId = "F46EB350-572D-40B6-8F96-70923BCB3D86";
shapes = (
{
closed = 1;
nodes = (
(371,9,l),
(336,-6,o),
(314,-10,o),
(285,-10,cs),
(165,-10,o),
(126,71,o),
(126,192,cs),
(126,444,l),
(13,444,l),
(13,517,l),
(126,517,l),
(126,645,l),
(215,653,l),
(215,517,l),
(350,517,l),
(350,444,l),
(215,444,l),
(215,203,ls),
(215,138,o),
(221,67,o),
(290,67,cs),
(311,67,o),
(332,71,o),
(354,78,c)
);
}
);
width = 389;
},
{
anchors = (
{
name = bottom;
position = "{216, 0}";
},
{
name = caronslovak;
position = "{281, 517}";
}
);
layerId = "7900522D-7321-4A46-8482-E4D00C1490A1";
shapes = (
{
closed = 1;
nodes = (
(331,0,l),
(312,-7,o),
(292,-10,o),
(271,-10,cs),
(175,-10,o),
(127,53,o),
(127,180,cs),
(127,479,l),
(14,479,l),
(14,512,l),
(127,512,l),
(127,647,l),
(163,651,l),
(163,512,l),
(310,512,l),
(310,479,l),
(163,479,l),
(163,185,ls),
(163,76,o),
(194,24,o),
(273,24,cs),
(292,24,o),
(307,27,o),
(323,31,c)
);
}
);
width = 351;
}
);
unicode = 116;
}
{
glyphname = u;
layers = (
{
layerId = "7C3FA59E-6813-4975-9D6F-EC289EE60EF9";
name = "#instance";
shapes = (
{
closed = 1;
nodes = (
(391,0,l),
(387,10,o),
(386,40,o),
(382,60,c),
(339,25,o),
(285,-10,o),
(215,-10,cs),
(102,-10,o),
(54,76,o),
(54,193,cs),
(54,518,l),
(230,533,l),
(230,205,ls),
(230,147,o),
(247,124,o),
(287,124,cs),
(312,124,o),
(339,133,o),
(360,145,c),
(360,518,l),
(535,533,l),
(535,156,ls),
(535,117,o),
(536,49,o),
(549,0,c)
);
}
);
width = 586;
},
{
layerId = "D222E232-D60B-4B2D-8951-17F11CA2060F";
shapes = (
{
closed = 1;
nodes = (
(391,0,l),
(387,10,o),
(386,40,o),
(382,60,c),
(339,25,o),
(285,-10,o),
(215,-10,cs),
(102,-10,o),
(54,76,o),
(54,193,cs),
(54,518,l),
(230,533,l),
(230,205,ls),
(230,147,o),
(247,124,o),
(287,124,cs),
(312,124,o),
(339,133,o),
(360,145,c),
(360,518,l),
(535,533,l),
(535,156,ls),
(535,117,o),
(536,49,o),
(549,0,c)
);
}
);
width = 586;
},
{
layerId = "836ED3A4-1AF9-4FCB-B992-725D22F47718";
shapes = (
{
closed = 1;
nodes = (
(392,0,l),
(388,13,o),
(386,37,o),
(383,56,c),
(336,19,o),
(282,-10,o),
(218,-10,cs),
(105,-10,o),
(58,78,o),
(58,193,cs),
(58,517,l),
(199,529,l),
(199,202,ls),
(199,138,o),
(218,101,o),
(271,101,cs),
(302,101,o),
(338,114,o),
(369,134,c),
(369,517,l),
(510,529,l),
(510,143,ls),
(510,104,o),
(511,45,o),
(522,0,c)
);
}
);
width = 572;
},
{
layerId = "D4BE8965-D6E9-455E-8A03-697C08C086AB";
shapes = (
{
closed = 1;
nodes = (
(393,0,l),
(389,17,o),
(386,33,o),
(385,50,c),
(331,10,o),
(277,-10,o),
(223,-10,cs),
(110,-10,o),
(64,81,o),
(64,193,cs),
(64,515,l),
(153,523,l),
(153,197,ls),
(153,124,o),
(174,67,o),
(247,67,cs),
(287,67,o),
(336,86,o),
(383,117,c),
(383,515,l),
(472,523,l),
(472,123,ls),
(472,84,o),
(473,39,o),
(482,0,c)
);
}
);
width = 551;
},
{
layerId = "26E6130D-B3C9-45B2-A3C5-02C986E91ADD";
shapes = (
{
closed = 1;
nodes = (
(424,0,l),
(419,19,o),
(417,41,o),
(414,62,c),
(363,25,o),
(298,-10,o),
(230,-10,cs),
(123,-10,o),
(73,75,o),
(73,187,cs),
(73,510,l),
(109,513,l),
(109,192,ls),
(109,103,o),
(141,24,o),
(233,24,cs),
(296,24,o),
(362,59,o),
(413,99,c),
(413,510,l),
(449,513,l),
(449,122,ls),
(449,83,o),
(449,39,o),
(460,0,c)
);
}
);
width = 539;
}
);
unicode = 117;
}
{
glyphname = v;
layers = (
{
layerId = "D222E232-D60B-4B2D-8951-17F11CA2060F";
shapes = (
{
closed = 1;
nodes = (
(361,0,l),
(189,0,l),
(6,527,l),
(191,527,l),
(277,174,l),
(370,527,l),
(542,527,l)
);
}
);
width = 549;
},
{
layerId = "836ED3A4-1AF9-4FCB-B992-725D22F47718";
shapes = (
{
closed = 1;
nodes = (
(335,0,l),
(192,0,l),
(7,523,l),
(157,523,l),
(264,143,l),
(379,523,l),
(519,523,l)
);
}
);
width = 526;
},
{
layerId = "D4BE8965-D6E9-455E-8A03-697C08C086AB";
shapes = (
{
closed = 1;
nodes = (
(296,0,l),
(196,0,l),
(8,517,l),
(106,517,l),
(245,96,l),
(392,517,l),
(484,517,l)
);
}
);
width = 492;
},
{
layerId = "26E6130D-B3C9-45B2-A3C5-02C986E91ADD";
shapes = (
{
closed = 1;
nodes = (
(244,0,l),
(208,0,l),
(9,512,l),
(48,512,l),
(227,46,l),
(405,512,l),
(442,512,l)
);
}
);
width = 451;
}
);
unicode = 118;
}
{
glyphname = w;
layers = (
{
anchors = (
{
name = top;
position = "{401, 477}";
}
);
layerId = "BC1C0262-B179-41F2-9022-DD18C3300059";
shapes = (
{
closed = 1;
nodes = (
(649,0,l),
(474,0,l),
(399,260,l),
(326,0,l),
(154,0,l),
(14,527,l),
(190,527,l),
(252,180,l),
(329,486,l),
(471,486,l),
(549,187,l),
(617,527,l),
(787,527,l)
);
}
);
width = 801;
},
{
anchors = (
{
name = top;
position = "{390, 477}";
},
{
name = Anchor_7;
position = "{390, 517}";
},
{
name = Anchor_10;
position = "{390, 497}";
}
);
layerId = "022C621B-D9C5-4075-856F-99776A9BB9BC";
shapes = (
{
closed = 1;
nodes = (
(624,0,l),
(479,0,l),
(388,291,l),
(301,0,l),
(157,0,l),
(17,523,l),
(158,523,l),
(237,147,l),
(332,482,l),
(447,482,l),
(543,150,l),
(628,523,l),
(763,523,l)
);
}
);
width = 780;
},
{
anchors = (
{
name = top;
position = "{374, 477}";
},
{
name = Anchor_5;
position = "{379, 517}";
},
{
name = Anchor_8;
position = "{379, 497}";
}
);
layerId = "F46EB350-572D-40B6-8F96-70923BCB3D86";
shapes = (
{
closed = 1;
nodes = (
(587,0,l),
(486,0,l),
(371,338,l),
(263,0,l),
(162,0,l),
(21,517,l),
(110,517,l),
(214,97,l),
(337,476,l),
(411,476,l),
(534,95,l),
(644,517,l),
(727,517,l)
);
}
);
width = 748;
},
{
anchors = (
{
name = top;
position = "{354, 477}";
},
{
name = Anchor_6;
position = "{369, 517}";
},
{
name = Anchor_9;
position = "{345, 497}";
}
);
layerId = "7900522D-7321-4A46-8482-E4D00C1490A1";
shapes = (
{
closed = 1;
nodes = (
(527,0,l),
(489,0,l),
(352,411,l),
(216,0,l),
(178,0,l),
(24,512,l),
(64,512,l),
(198,48,l),
(333,462,l),
(372,462,l),
(508,48,l),
(643,512,l),
(680,512,l)
);
}
);
width = 704;
}
);
unicode = 119;
}
{
glyphname = x;
layers = (
{
layerId = "BC1C0262-B179-41F2-9022-DD18C3300059";
shapes = (
{
closed = 1;
nodes = (
(576,0,l),
(387,0,l),
(287,167,l),
(183,0,l),
(8,0,l),
(185,277,l),
(20,527,l),
(210,527,l),
(297,382,l),
(390,527,l),
(565,527,l),
(397,276,l)
);
}
);
width = 584;
},
{
layerId = "022C621B-D9C5-4075-856F-99776A9BB9BC";
shapes = (
{
closed = 1;
nodes = (
(537,0,l),
(384,0,l),
(269,180,l),
(152,0,l),
(9,0,l),
(189,273,l),
(21,523,l),
(174,523,l),
(277,362,l),
(383,523,l),
(526,523,l),
(356,272,l)
);
}
);
width = 546;
},
{
layerId = "F46EB350-572D-40B6-8F96-70923BCB3D86";
shapes = (
{
closed = 1;
nodes = (
(478,0,l),
(380,0,l),
(242,199,l),
(105,0,l),
(11,0,l),
(195,267,l),
(22,517,l),
(120,517,l),
(247,332,l),
(373,517,l),
(467,517,l),
(294,266,l)
);
}
);
width = 489;
},
{
layerId = "7900522D-7321-4A46-8482-E4D00C1490A1";
shapes = (
{
closed = 1;
nodes = (
(443,0,l),
(399,0,l),
(227,235,l),
(56,0,l),
(12,0,l),
(206,263,l),
(23,512,l),
(67,512,l),
(229,290,l),
(388,512,l),
(432,512,l),
(250,262,l)
);
}
);
width = 455;
}
);
unicode = 120;
}
{
glyphname = y;
layers = (
{
anchors = (
{
name = top;
position = "{272, 477}";
},
{
name = hook;
position = "{272, 457}";
},
{
name = bottom;
position = "{466, 0}";
}
);
layerId = "D222E232-D60B-4B2D-8951-17F11CA2060F";
shapes = (
{
closed = 1;
nodes = (
(63,-151,l),
(124,-90,o),
(170,-36,o),
(197,10,c),
(6,527,l),
(191,527,l),
(284,194,l),
(370,527,l),
(542,527,l),
(387,73,ls),
(343,-53,o),
(267,-181,o),
(166,-260,c)
);
}
);
width = 549;
},
{
anchors = (
{
name = top;
position = "{263, 477}";
},
{
name = Anchor_7;
position = "{306, 517}";
},
{
name = hook;
position = "{263, 457}";
},
{
name = Anchor_10;
position = "{218, 497}";
},
{
name = bottom;
position = "{437, 0}";
}
);
layerId = "836ED3A4-1AF9-4FCB-B992-725D22F47718";
shapes = (
{
closed = 1;
nodes = (
(69,-167,l),
(130,-103,o),
(171,-50,o),
(200,3,c),
(7,523,l),
(157,523,l),
(269,155,l),
(379,523,l),
(519,523,l),
(358,62,ls),
(314,-63,o),
(244,-180,o),
(155,-256,c)
);
}
);
width = 526;
},
{
anchors = (
{
name = top;
position = "{249, 477}";
},
{
name = Anchor_5;
position = "{292, 517}";
},
{
name = hook;
position = "{249, 457}";
},
{
name = Anchor_8;
position = "{190, 497}";
},
{
name = bottom;
position = "{394, 0}";
}
);
layerId = "D4BE8965-D6E9-455E-8A03-697C08C086AB";
shapes = (
{
closed = 1;
nodes = (
(78,-191,l),
(139,-123,o),
(172,-71,o),
(204,-8,c),
(8,517,l),
(106,517,l),
(246,96,l),
(392,517,l),
(484,517,l),
(314,45,ls),
(270,-78,o),
(210,-178,o),
(139,-250,c)
);
}
);
width = 492;
},
{
anchors = (
{
name = top;
position = "{227, 477}";
},
{
name = Anchor_6;
position = "{266, 517}";
},
{
name = hook;
position = "{227, 457}";
},
{
name = Anchor_9;
position = "{192, 497}";
},
{
name = bottom;
position = "{365, 0}";
}
);
layerId = "26E6130D-B3C9-45B2-A3C5-02C986E91ADD";
shapes = (
{
closed = 1;
nodes = (
(64,-215,l),
(116,-160,o),
(171,-85,o),
(208,-6,c),
(9,512,l),
(48,512,l),
(227,38,l),
(405,512,l),
(442,512,l),
(264,45,ls),
(217,-78,o),
(156,-167,o),
(89,-238,c)
);
}
);
width = 451;
}
);
unicode = 121;
}
{
glyphname = z;
layers = (
{
anchors = (
{
name = top;
position = "{248, 477}";
},
{
name = hook;
position = "{248, 457}";
}
);
layerId = "F976A6FE-4F5D-4CD4-867C-EF90278DFFCC";
shapes = (
{
closed = 1;
nodes = (
(469,0,l),
(29,0,l),
(18,86,l),
(244,397,l),
(37,397,l),
(37,527,l),
(459,527,l),
(469,439,l),
(242,128,l),
(469,128,l)
);
}
);
width = 494;
},
{
anchors = (
{
name = top;
position = "{243, 477}";
},
{
name = Anchor_7;
position = "{239, 517}";
},
{
name = hook;
position = "{243, 457}";
}
);
layerId = "ECD81CFE-BAA5-49B6-8B8C-C1187BD9FB4D";
shapes = (
{
closed = 1;
nodes = (
(450,0,l),
(31,0,l),
(22,77,l),
(271,415,l),
(41,415,l),
(41,523,l),
(442,523,l),
(450,445,l),
(201,107,l),
(450,107,l)
);
}
);
width = 481;
},
{
anchors = (
{
name = top;
position = "{235, 477}";
},
{
name = Anchor_5;
position = "{239, 517}";
},
{
name = hook;
position = "{235, 457}";
}
);
layerId = "05C01135-6C20-4612-9616-E32239DF772F";
shapes = (
{
closed = 1;
nodes = (
(422,0,l),
(34,0,l),
(28,63,l),
(311,442,l),
(47,442,l),
(47,517,l),
(416,517,l),
(422,454,l),
(139,75,l),
(422,75,l)
);
}
);
width = 461;
},
{
anchors = (
{
name = top;
position = "{222, 477}";
},
{
name = Anchor_6;
position = "{231, 517}";
},
{
name = hook;
position = "{222, 457}";
}
);
layerId = "E82A1E35-09AC-49BD-B418-47901BDD1DB1";
shapes = (
{
closed = 1;
nodes = (
(398,0,l),
(36,0,l),
(32,37,l),
(357,479,l),
(51,479,l),
(51,512,l),
(394,512,l),
(398,475,l),
(73,33,l),
(398,33,l)
);
}
);
width = 442;
}
);
unicode = 122;
}
{
glyphname = braceleft;
layers = (
{
layerId = "B6DF85F1-EBFC-49D5-83CF-7D86C417AD4B";
shapes = (
{
closed = 1;
nodes = (
(478,-221,l),
(463,-226,o),
(402,-232,o),
(359,-232,cs),
(219,-232,o),
(150,-163,o),
(150,-55,cs),
(150,-16,o),
(159,30,o),
(159,68,cs),
(159,165,o),
(96,188,o),
(26,188,c),
(26,323,l),
(96,323,o),
(159,346,o),
(159,443,cs),
(159,481,o),
(150,527,o),
(150,566,cs),
(150,675,o),
(219,743,o),
(359,743,cs),
(404,743,o),
(461,734,o),
(478,732,c),
(466,606,l),
(456,608,o),
(427,611,o),
(411,611,cs),
(343,611,o),
(329,561,o),
(329,518,cs),
(329,480,o),
(338,432,o),
(338,399,cs),
(338,323,o),
(291,286,o),
(225,257,c),
(291,224,o),
(338,188,o),
(338,113,cs),
(338,80,o),
(329,31,o),
(329,-7,cs),
(329,-52,o),
(344,-100,o),
(412,-100,cs),
(428,-100,o),
(456,-97,o),
(466,-95,c)
);
}
);
width = 489;
},
{
layerId = "D243B678-AA35-4622-BFB2-DA5F5B4AAB22";
shapes = (
{
closed = 1;
nodes = (
(455,-222,l),
(440,-227,o),
(391,-232,o),
(352,-232,cs),
(215,-232,o),
(156,-162,o),
(156,-54,cs),
(156,-10,o),
(165,39,o),
(165,78,cs),
(165,177,o),
(103,199,o),
(32,199,c),
(32,312,l),
(103,312,o),
(165,334,o),
(165,433,cs),
(165,472,o),
(156,521,o),
(156,565,cs),
(156,674,o),
(215,743,o),
(352,743,cs),
(392,743,o),
(439,736,o),
(455,733,c),
(443,627,l),
(428,630,o),
(404,632,o),
(388,632,cs),
(320,632,o),
(300,592,o),
(300,536,cs),
(300,497,o),
(309,446,o),
(309,410,cs),
(309,329,o),
(265,285,o),
(200,256,c),
(265,225,o),
(309,182,o),
(309,102,cs),
(309,65,o),
(300,14,o),
(300,-25,cs),
(300,-81,o),
(320,-121,o),
(389,-121,cs),
(404,-121,o),
(428,-119,o),
(443,-116,c)
);
}
);
width = 468;
},
{
layerId = "7D45EC82-E8BB-4AC3-AEF4-676BB722768B";
shapes = (
{
closed = 1;
nodes = (
(421,-224,l),
(406,-228,o),
(374,-232,o),
(342,-232,cs),
(209,-232,o),
(165,-160,o),
(165,-52,cs),
(165,-1,o),
(174,53,o),
(174,93,cs),
(174,195,o),
(114,215,o),
(41,215,c),
(41,296,l),
(114,296,o),
(174,316,o),
(174,418,cs),
(174,458,o),
(165,512,o),
(165,563,cs),
(165,673,o),
(209,743,o),
(342,743,cs),
(374,743,o),
(406,739,o),
(421,735,c),
(409,659,l),
(386,663,o),
(369,664,o),
(354,664,cs),
(285,664,o),
(256,638,o),
(256,563,cs),
(256,522,o),
(265,467,o),
(265,426,cs),
(265,338,o),
(226,284,o),
(162,255,c),
(226,227,o),
(265,173,o),
(265,85,cs),
(265,42,o),
(256,-11,o),
(256,-52,cs),
(256,-125,o),
(284,-153,o),
(355,-153,cs),
(368,-153,o),
(386,-152,o),
(409,-148,c)
);
}
);
width = 437;
},
{
layerId = "0550E5A5-F26C-45AF-9FA2-5FA21B0BB434";
shapes = (
{
closed = 1;
nodes = (
(378,-228,l),
(363,-231,o),
(346,-232,o),
(331,-232,cs),
(227,-232,o),
(174,-179,o),
(174,-59,cs),
(174,-10,o),
(184,38,o),
(184,93,cs),
(184,189,o),
(148,231,o),
(47,239,c),
(47,273,l),
(148,281,o),
(184,323,o),
(184,418,cs),
(184,473,o),
(174,521,o),
(174,570,cs),
(174,690,o),
(227,743,o),
(331,743,cs),
(346,743,o),
(363,742,o),
(378,739,c),
(373,709,l),
(365,710,o),
(351,711,o),
(336,711,cs),
(247,711,o),
(211,672,o),
(211,565,cs),
(211,510,o),
(221,464,o),
(221,417,cs),
(221,316,o),
(179,269,o),
(91,256,c),
(179,243,o),
(221,197,o),
(221,94,cs),
(221,47,o),
(211,1,o),
(211,-54,cs),
(211,-161,o),
(247,-200,o),
(336,-200,cs),
(351,-200,o),
(365,-199,o),
(373,-198,c)
);
}
);
width = 396;
}
);
unicode = 123;
}
{
glyphname = bar;
layers = (
{
layerId = "D222E232-D60B-4B2D-8951-17F11CA2060F";
shapes = (
{
closed = 1;
nodes = (
(269,-232,l),
(89,-247,l),
(89,738,l),
(269,753,l)
);
}
);
width = 358;
},
{
layerId = "836ED3A4-1AF9-4FCB-B992-725D22F47718";
shapes = (
{
closed = 1;
nodes = (
(246,-232,l),
(102,-244,l),
(102,741,l),
(246,753,l)
);
}
);
width = 348;
},
{
layerId = "D4BE8965-D6E9-455E-8A03-697C08C086AB";
shapes = (
{
closed = 1;
nodes = (
(212,-232,l),
(121,-240,l),
(121,745,l),
(212,753,l)
);
}
);
width = 333;
},
{
layerId = "26E6130D-B3C9-45B2-A3C5-02C986E91ADD";
shapes = (
{
closed = 1;
nodes = (
(170,-236,l),
(134,-240,l),
(134,749,l),
(170,753,l)
);
}
);
width = 304;
}
);
unicode = 124;
}
{
glyphname = braceright;
layers = (
{
layerId = "D222E232-D60B-4B2D-8951-17F11CA2060F";
shapes = (
{
closed = 1;
nodes = (
(23,-95,l),
(33,-97,o),
(61,-100,o),
(79,-100,cs),
(145,-100,o),
(159,-52,o),
(159,-7,cs),
(159,31,o),
(150,80,o),
(150,112,cs),
(150,188,o),
(198,225,o),
(263,255,c),
(198,287,o),
(150,323,o),
(150,398,cs),
(150,432,o),
(159,480,o),
(159,518,cs),
(159,561,o),
(145,611,o),
(76,611,cs),
(61,611,o),
(33,608,o),
(23,606,c),
(11,732,l),
(28,734,o),
(85,743,o),
(130,743,cs),
(270,743,o),
(339,673,o),
(339,566,cs),
(339,527,o),
(330,481,o),
(330,443,cs),
(330,346,o),
(393,323,o),
(463,323,c),
(463,188,l),
(393,188,o),
(330,165,o),
(330,68,cs),
(330,30,o),
(339,-16,o),
(339,-55,cs),
(339,-165,o),
(270,-232,o),
(130,-232,cs),
(86,-232,o),
(26,-226,o),
(11,-221,c)
);
}
);
width = 489;
},
{
layerId = "836ED3A4-1AF9-4FCB-B992-725D22F47718";
shapes = (
{
closed = 1;
nodes = (
(25,-116,l),
(40,-119,o),
(64,-121,o),
(80,-121,cs),
(148,-121,o),
(168,-81,o),
(168,-25,cs),
(168,14,o),
(159,65,o),
(159,101,cs),
(159,182,o),
(203,226,o),
(268,255,c),
(203,286,o),
(159,329,o),
(159,409,cs),
(159,446,o),
(168,497,o),
(168,536,cs),
(168,592,o),
(148,632,o),
(79,632,cs),
(64,632,o),
(40,630,o),
(25,627,c),
(13,733,l),
(29,736,o),
(76,743,o),
(116,743,cs),
(253,743,o),
(312,673,o),
(312,565,cs),
(312,521,o),
(303,472,o),
(303,433,cs),
(303,334,o),
(365,312,o),
(436,312,c),
(436,199,l),
(365,199,o),
(303,177,o),
(303,78,cs),
(303,39,o),
(312,-10,o),
(312,-54,cs),
(312,-163,o),
(253,-232,o),
(116,-232,cs),
(77,-232,o),
(28,-227,o),
(13,-222,c)
);
}
);
width = 468;
},
{
layerId = "D4BE8965-D6E9-455E-8A03-697C08C086AB";
shapes = (
{
closed = 1;
nodes = (
(28,-148,l),
(51,-152,o),
(69,-153,o),
(82,-153,cs),
(153,-153,o),
(181,-125,o),
(181,-52,cs),
(181,-11,o),
(172,42,o),
(172,85,cs),
(172,173,o),
(211,227,o),
(275,255,c),
(211,284,o),
(172,338,o),
(172,426,cs),
(172,467,o),
(181,522,o),
(181,563,cs),
(181,638,o),
(152,664,o),
(83,664,cs),
(68,664,o),
(51,663,o),
(28,659,c),
(16,735,l),
(31,739,o),
(63,743,o),
(95,743,cs),
(228,743,o),
(272,673,o),
(272,563,cs),
(272,512,o),
(263,458,o),
(263,418,cs),
(263,316,o),
(323,296,o),
(396,296,c),
(396,215,l),
(323,215,o),
(263,195,o),
(263,93,cs),
(263,53,o),
(272,-1,o),
(272,-52,cs),
(272,-160,o),
(228,-232,o),
(95,-232,cs),
(63,-232,o),
(31,-228,o),
(16,-224,c)
);
}
);
width = 437;
},
{
layerId = "26E6130D-B3C9-45B2-A3C5-02C986E91ADD";
shapes = (
{
closed = 1;
nodes = (
(23,-198,l),
(31,-199,o),
(45,-200,o),
(60,-200,cs),
(149,-200,o),
(185,-161,o),
(185,-54,cs),
(185,1,o),
(175,47,o),
(175,94,cs),
(175,197,o),
(217,243,o),
(305,256,c),
(217,269,o),
(175,316,o),
(175,417,cs),
(175,464,o),
(185,510,o),
(185,565,cs),
(185,672,o),
(149,711,o),
(60,711,cs),
(45,711,o),
(31,710,o),
(23,709,c),
(18,739,l),
(33,742,o),
(50,743,o),
(65,743,cs),
(169,743,o),
(222,690,o),
(222,570,cs),
(222,521,o),
(212,473,o),
(212,418,cs),
(212,323,o),
(248,281,o),
(349,273,c),
(349,239,l),
(248,231,o),
(212,189,o),
(212,93,cs),
(212,38,o),
(222,-10,o),
(222,-59,cs),
(222,-179,o),
(169,-232,o),
(65,-232,cs),
(50,-232,o),
(33,-231,o),
(18,-228,c)
);
}
);
width = 396;
}
);
unicode = 125;
}
{
glyphname = asciitilde;
layers = (
{
layerId = "F976A6FE-4F5D-4CD4-867C-EF90278DFFCC";
shapes = (
{
closed = 1;
nodes = (
(546,390,l),
(510,286,o),
(445,252,o),
(374,252,cs),
(326,252,o),
(295,268,o),
(264,281,c),
(240,294,o),
(221,304,o),
(204,304,cs),
(171,304,o),
(151,287,o),
(129,236,c),
(31,307,l),
(66,412,o),
(131,446,o),
(202,446,cs),
(251,446,o),
(282,429,o),
(312,417,c),
(336,403,o),
(356,394,o),
(372,394,cs),
(405,394,o),
(425,411,o),
(447,462,c)
);
}
);
width = 576;
},
{
layerId = "ECD81CFE-BAA5-49B6-8B8C-C1187BD9FB4D";
shapes = (
{
closed = 1;
nodes = (
(535,387,l),
(499,296,o),
(444,258,o),
(372,258,cs),
(329,258,o),
(296,275,o),
(265,290,c),
(238,305,o),
(216,317,o),
(197,317,cs),
(161,317,o),
(140,294,o),
(117,246,c),
(34,306,l),
(70,397,o),
(125,435,o),
(197,435,cs),
(240,435,o),
(273,418,o),
(304,403,c),
(331,388,o),
(353,376,o),
(372,376,cs),
(408,376,o),
(429,399,o),
(452,447,c)
);
}
);
width = 568;
},
{
layerId = "05C01135-6C20-4612-9616-E32239DF772F";
shapes = (
{
closed = 1;
nodes = (
(519,382,l),
(482,311,o),
(442,267,o),
(369,267,cs),
(334,267,o),
(298,285,o),
(266,304,c),
(235,321,o),
(209,337,o),
(186,337,cs),
(146,337,o),
(123,305,o),
(99,261,c),
(39,304,l),
(76,375,o),
(116,419,o),
(189,419,cs),
(224,419,o),
(260,401,o),
(292,382,c),
(323,365,o),
(349,349,o),
(372,349,cs),
(412,349,o),
(435,381,o),
(459,425,c)
);
}
);
width = 558;
},
{
layerId = "E82A1E35-09AC-49BD-B418-47901BDD1DB1";
shapes = (
{
closed = 1;
nodes = (
(484,377,l),
(451,326,o),
(420,291,o),
(364,291,cs),
(324,291,o),
(293,308,o),
(262,327,cs),
(235,343,o),
(209,358,o),
(180,358,cs),
(137,358,o),
(114,327,o),
(86,288,c),
(60,306,l),
(93,357,o),
(124,392,o),
(180,392,cs),
(220,392,o),
(251,375,o),
(282,356,cs),
(309,340,o),
(335,325,o),
(364,325,cs),
(407,325,o),
(430,356,o),
(458,395,c)
);
}
);
width = 544;
}
);
unicode = 126;
}
{
glyphname = exclamdown;
layers = (
{
layerId = "D43100D0-4BF9-44C0-ADDC-79172AF58462";
shapes = (
{
closed = 1;
nodes = (
(243,290,l),
(66,290,l),
(66,-188,l),
(243,-173,l)
);
},
{
closed = 1;
nodes = (
(260,507,o),
(212,537,o),
(153,537,cs),
(98,537,o),
(47,504,o),
(47,444,cs),
(47,383,o),
(99,351,o),
(153,351,cs),
(212,351,o),
(260,381,o),
(260,444,cs)
);
}
);
width = 307;
},
{
layerId = "B5AFC12C-DAB2-4B68-A31B-D6136A1B144F";
shapes = (
{
closed = 1;
nodes = (
(218,297,l),
(76,297,l),
(76,-192,l),
(218,-180,l)
);
},
{
closed = 1;
nodes = (
(235,506,o),
(196,533,o),
(146,533,cs),
(98,533,o),
(57,505,o),
(57,453,cs),
(57,401,o),
(98,373,o),
(146,373,cs),
(196,373,o),
(235,400,o),
(235,453,cs)
);
}
);
width = 292;
},
{
layerId = "5166C0C3-C3D2-4F7F-8540-ACBC385E7743";
shapes = (
{
closed = 1;
nodes = (
(180,308,l),
(91,308,l),
(91,-198,l),
(180,-190,l)
);
},
{
closed = 1;
nodes = (
(198,505,o),
(172,527,o),
(135,527,cs),
(98,527,o),
(72,506,o),
(72,467,cs),
(72,428,o),
(97,406,o),
(135,406,cs),
(172,406,o),
(198,429,o),
(198,467,cs)
);
}
);
width = 270;
},
{
layerId = "64AEFF5A-033C-4F54-96AE-A64261A50D57";
shapes = (
{
closed = 1;
nodes = (
(132,295,l),
(96,295,l),
(96,-203,l),
(132,-199,l)
);
},
{
closed = 1;
nodes = (
(146,508,o),
(134,522,o),
(114,522,cs),
(94,522,o),
(82,508,o),
(82,488,cs),
(82,468,o),
(94,454,o),
(114,454,cs),
(134,454,o),
(146,468,o),
(146,488,cs)
);
}
);
width = 228;
}
);
unicode = 161;
}
{
glyphname = cent;
layers = (
{
layerId = "F976A6FE-4F5D-4CD4-867C-EF90278DFFCC";
shapes = (
{
closed = 1;
nodes = (
(391,-116,l),
(281,-126,l),
(281,24,l),
(149,43,o),
(45,129,o),
(45,291,cs),
(45,448,o),
(146,540,o),
(281,562,c),
(281,693,l),
(391,703,l),
(391,562,l),
(442,553,o),
(487,538,o),
(522,515,c),
(477,396,l),
(444,411,o),
(418,421,o),
(391,426,c),
(391,158,l),
(421,165,o),
(451,175,o),
(484,191,c),
(531,74,l),
(490,47,o),
(444,29,o),
(391,23,c)
);
},
{
closed = 1;
nodes = (
(281,420,l),
(235,401,o),
(212,356,o),
(212,291,cs),
(212,224,o),
(233,181,o),
(281,164,c)
);
}
);
width = 574;
},
{
layerId = "ECD81CFE-BAA5-49B6-8B8C-C1187BD9FB4D";
shapes = (
{
closed = 1;
nodes = (
(380,-117,l),
(284,-126,l),
(284,23,l),
(152,42,o),
(61,135,o),
(61,290,cs),
(61,441,o),
(149,538,o),
(284,559,c),
(284,694,l),
(380,703,l),
(380,559,l),
(433,552,o),
(478,535,o),
(514,512,c),
(475,413,l),
(439,430,o),
(409,442,o),
(380,447,c),
(380,134,l),
(414,140,o),
(448,152,o),
(482,170,c),
(522,72,l),
(481,45,o),
(433,28,o),
(380,22,c)
);
},
{
closed = 1;
nodes = (
(284,442,l),
(228,423,o),
(197,371,o),
(197,290,cs),
(197,213,o),
(224,158,o),
(284,139,c)
);
}
);
width = 574;
},
{
layerId = "05C01135-6C20-4612-9616-E32239DF772F";
shapes = (
{
closed = 1;
nodes = (
(363,-119,l),
(289,-126,l),
(289,22,l),
(157,41,o),
(85,144,o),
(85,289,cs),
(85,430,o),
(154,535,o),
(289,554,c),
(289,696,l),
(363,703,l),
(363,555,l),
(419,550,o),
(465,531,o),
(502,508,c),
(472,438,l),
(431,459,o),
(396,473,o),
(363,478,c),
(363,98,l),
(404,103,o),
(443,118,o),
(479,139,c),
(509,69,l),
(468,42,o),
(416,26,o),
(363,21,c)
);
},
{
closed = 1;
nodes = (
(289,475,l),
(217,456,o),
(175,393,o),
(175,289,cs),
(175,196,o),
(210,123,o),
(289,102,c)
);
}
);
width = 574;
},
{
layerId = "E82A1E35-09AC-49BD-B418-47901BDD1DB1";
shapes = (
{
closed = 1;
nodes = (
(333,-122,l),
(299,-126,l),
(299,23,l),
(165,34,o),
(91,140,o),
(91,288,cs),
(91,436,o),
(165,542,o),
(299,553,c),
(299,699,l),
(333,703,l),
(333,554,l),
(384,551,o),
(433,537,o),
(477,514,c),
(464,484,l),
(425,504,o),
(378,517,o),
(333,520,c),
(333,56,l),
(377,57,o),
(423,70,o),
(470,97,c),
(483,68,l),
(438,43,o),
(389,25,o),
(333,22,c)
);
},
{
closed = 1;
nodes = (
(299,519,l),
(186,506,o),
(129,415,o),
(129,288,cs),
(129,161,o),
(186,68,o),
(299,57,c)
);
}
);
width = 574;
}
);
unicode = 162;
}
{
glyphname = sterling;
layers = (
{
layerId = "F976A6FE-4F5D-4CD4-867C-EF90278DFFCC";
shapes = (
{
closed = 1;
nodes = (
(559,0,l),
(90,0,l),
(80,93,l),
(146,142,o),
(152,211,o),
(152,253,cs),
(152,268,o),
(151,285,o),
(150,304,c),
(41,304,l),
(41,392,l),
(136,392,l),
(128,423,o),
(127,461,o),
(127,484,cs),
(127,605,o),
(189,707,o),
(357,707,cs),
(447,707,o),
(515,679,o),
(568,636,c),
(496,517,l),
(452,550,o),
(415,562,o),
(377,562,cs),
(324,562,o),
(296,536,o),
(296,474,cs),
(296,451,o),
(300,420,o),
(304,392,c),
(452,392,l),
(452,304,l),
(312,304,l),
(315,284,o),
(316,261,o),
(316,250,cs),
(316,210,o),
(307,173,o),
(291,140,c),
(559,140,l)
);
}
);
width = 574;
},
{
layerId = "ECD81CFE-BAA5-49B6-8B8C-C1187BD9FB4D";
shapes = (
{
closed = 1;
nodes = (
(551,0,l),
(93,0,l),
(85,79,l),
(151,134,o),
(159,206,o),
(159,252,cs),
(159,269,o),
(158,288,o),
(156,307,c),
(52,307,l),
(52,390,l),
(143,390,l),
(136,421,o),
(134,456,o),
(134,483,cs),
(134,600,o),
(190,703,o),
(353,703,cs),
(442,703,o),
(506,673,o),
(559,630,c),
(498,532,l),
(451,567,o),
(413,583,o),
(366,583,cs),
(307,583,o),
(273,556,o),
(273,477,cs),
(273,450,o),
(277,419,o),
(281,390,c),
(435,390,l),
(435,307,l),
(291,307,l),
(294,287,o),
(295,265,o),
(295,250,cs),
(295,202,o),
(284,158,o),
(262,117,c),
(551,117,l)
);
}
);
width = 574;
},
{
layerId = "05C01135-6C20-4612-9616-E32239DF772F";
shapes = (
{
closed = 1;
nodes = (
(539,0,l),
(98,0,l),
(92,58,l),
(159,122,o),
(169,198,o),
(169,250,cs),
(169,271,o),
(168,292,o),
(165,312,c),
(68,312,l),
(68,387,l),
(153,387,l),
(148,418,o),
(144,449,o),
(144,482,cs),
(144,592,o),
(192,697,o),
(347,697,cs),
(434,697,o),
(493,664,o),
(546,621,c),
(501,554,l),
(449,593,o),
(410,614,o),
(350,614,cs),
(282,614,o),
(238,586,o),
(238,482,cs),
(238,449,o),
(242,418,o),
(247,387,c),
(409,387,l),
(409,312,l),
(259,312,l),
(262,291,o),
(263,271,o),
(263,250,cs),
(263,190,o),
(249,135,o),
(218,82,c),
(539,82,l)
);
}
);
width = 574;
},
{
layerId = "E82A1E35-09AC-49BD-B418-47901BDD1DB1";
shapes = (
{
closed = 1;
nodes = (
(520,0,l),
(115,0,l),
(110,35,l),
(170,92,o),
(186,178,o),
(186,250,cs),
(186,269,o),
(184,295,o),
(179,332,c),
(85,332,l),
(85,366,l),
(174,366,l),
(166,418,o),
(161,460,o),
(161,495,cs),
(161,631,o),
(249,697,o),
(352,697,cs),
(412,697,o),
(474,675,o),
(529,634,c),
(509,605,l),
(461,641,o),
(404,662,o),
(351,662,cs),
(268,662,o),
(199,611,o),
(199,488,cs),
(199,453,o),
(204,417,o),
(211,366,c),
(390,366,l),
(390,332,l),
(217,332,l),
(222,293,o),
(224,268,o),
(224,248,cs),
(224,171,o),
(202,85,o),
(154,34,c),
(520,34,l)
);
}
);
width = 574;
}
);
unicode = 163;
}
{
glyphname = currency;
layers = (
{
layerId = "F976A6FE-4F5D-4CD4-867C-EF90278DFFCC";
shapes = (
{
closed = 1;
nodes = (
(477,230,l),
(500,269,o),
(513,301,o),
(513,346,cs),
(513,391,o),
(501,426,o),
(477,462,c),
(557,545,l),
(477,624,l),
(397,541,l),
(356,560,o),
(332,567,o),
(287,567,cs),
(242,567,o),
(219,560,o),
(178,541,c),
(97,624,l),
(17,545,l),
(97,462,l),
(76,427,o),
(61,387,o),
(61,346,cs),
(61,305,o),
(74,265,o),
(97,230,c),
(17,147,l),
(97,68,l),
(178,152,l),
(212,136,o),
(249,125,o),
(287,125,cs),
(325,125,o),
(362,136,o),
(397,152,c),
(477,68,l),
(557,147,l)
);
},
{
closed = 1;
nodes = (
(250,273,o),
(215,307,o),
(215,346,cs),
(215,384,o),
(248,419,o),
(287,419,cs),
(325,419,o),
(359,384,o),
(359,346,cs),
(359,308,o),
(323,273,o),
(287,273,cs)
);
}
);
width = 574;
},
{
layerId = "ECD81CFE-BAA5-49B6-8B8C-C1187BD9FB4D";
shapes = (
{
closed = 1;
nodes = (
(470,227,l),
(494,264,o),
(506,300,o),
(506,345,cs),
(506,390,o),
(494,426,o),
(470,463,c),
(547,542,l),
(478,610,l),
(400,530,l),
(361,551,o),
(331,559,o),
(287,559,cs),
(243,559,o),
(213,551,o),
(174,530,c),
(96,610,l),
(27,542,l),
(104,463,l),
(81,428,o),
(68,387,o),
(68,345,cs),
(68,303,o),
(81,262,o),
(104,227,c),
(27,148,l),
(96,80,l),
(174,160,l),
(209,142,o),
(248,131,o),
(287,131,cs),
(326,131,o),
(365,142,o),
(400,160,c),
(478,80,l),
(547,148,l)
);
},
{
closed = 1;
nodes = (
(235,252,o),
(194,292,o),
(194,345,cs),
(194,398,o),
(234,438,o),
(287,438,cs),
(340,438,o),
(380,398,o),
(380,345,cs),
(380,292,o),
(339,252,o),
(287,252,cs)
);
}
);
width = 574;
},
{
layerId = "05C01135-6C20-4612-9616-E32239DF772F";
shapes = (
{
closed = 1;
nodes = (
(459,222,l),
(485,257,o),
(496,299,o),
(496,343,cs),
(496,388,o),
(484,426,o),
(459,464,c),
(532,537,l),
(480,589,l),
(405,514,l),
(369,537,o),
(329,547,o),
(287,547,cs),
(244,547,o),
(204,537,o),
(168,514,c),
(94,589,l),
(42,537,l),
(115,464,l),
(89,429,o),
(78,387,o),
(78,343,cs),
(78,300,o),
(91,258,o),
(114,222,c),
(42,150,l),
(94,98,l),
(168,172,l),
(204,151,o),
(246,140,o),
(287,140,cs),
(328,140,o),
(369,151,o),
(405,172,c),
(480,98,l),
(532,150,l)
);
},
{
closed = 1;
nodes = (
(212,220,o),
(163,269,o),
(163,344,cs),
(163,419,o),
(213,467,o),
(287,467,cs),
(362,467,o),
(411,419,o),
(411,344,cs),
(411,268,o),
(363,220,o),
(287,220,cs)
);
}
);
width = 574;
},
{
layerId = "E82A1E35-09AC-49BD-B418-47901BDD1DB1";
shapes = (
{
closed = 1;
nodes = (
(432,220,l),
(462,254,o),
(476,298,o),
(476,343,cs),
(476,390,o),
(463,431,o),
(432,467,c),
(512,547,l),
(486,573,l),
(404,491,l),
(369,517,o),
(330,527,o),
(287,527,cs),
(244,527,o),
(205,516,o),
(170,491,c),
(88,573,l),
(62,547,l),
(142,467,l),
(112,433,o),
(98,388,o),
(98,343,cs),
(98,298,o),
(112,254,o),
(142,220,c),
(62,140,l),
(88,114,l),
(170,196,l),
(203,172,o),
(246,160,o),
(287,160,cs),
(328,160,o),
(370,171,o),
(404,196,c),
(486,114,l),
(512,140,l)
);
},
{
closed = 1;
nodes = (
(135,435,o),
(197,493,o),
(287,493,cs),
(377,493,o),
(439,435,o),
(439,344,cs),
(439,253,o),
(377,194,o),
(287,194,cs),
(197,194,o),
(135,253,o),
(135,344,cs)
);
}
);
width = 574;
}
);
unicode = 164;
}
{
glyphname = yen;
layers = (
{
layerId = "F976A6FE-4F5D-4CD4-867C-EF90278DFFCC";
shapes = (
{
closed = 1;
nodes = (
(528,105,l),
(376,105,l),
(376,0,l),
(197,0,l),
(197,105,l),
(45,105,l),
(45,196,l),
(197,196,l),
(197,265,l),
(45,265,l),
(45,355,l),
(158,355,l),
(-6,697,l),
(177,697,l),
(287,434,l),
(394,697,l),
(580,697,l),
(416,355,l),
(528,355,l),
(528,265,l),
(376,265,l),
(376,196,l),
(528,196,l)
);
}
);
width = 574;
},
{
layerId = "ECD81CFE-BAA5-49B6-8B8C-C1187BD9FB4D";
shapes = (
{
closed = 1;
nodes = (
(510,110,l),
(359,110,l),
(359,0,l),
(215,0,l),
(215,110,l),
(64,110,l),
(64,193,l),
(215,193,l),
(215,266,l),
(64,266,l),
(64,349,l),
(183,349,l),
(13,693,l),
(163,693,l),
(287,411,l),
(411,693,l),
(561,693,l),
(391,349,l),
(510,349,l),
(510,266,l),
(359,266,l),
(359,193,l),
(510,193,l)
);
}
);
width = 574;
},
{
layerId = "05C01135-6C20-4612-9616-E32239DF772F";
shapes = (
{
closed = 1;
nodes = (
(483,117,l),
(333,117,l),
(333,0,l),
(242,0,l),
(242,117,l),
(92,117,l),
(92,189,l),
(242,189,l),
(242,268,l),
(92,268,l),
(92,340,l),
(220,340,l),
(41,687,l),
(142,687,l),
(287,376,l),
(436,687,l),
(533,687,l),
(354,340,l),
(483,340,l),
(483,268,l),
(333,268,l),
(333,189,l),
(483,189,l)
);
}
);
width = 574;
},
{
layerId = "E82A1E35-09AC-49BD-B418-47901BDD1DB1";
shapes = (
{
closed = 1;
nodes = (
(467,136,l),
(306,136,l),
(306,0,l),
(269,0,l),
(269,136,l),
(108,136,l),
(108,169,l),
(269,169,l),
(269,286,l),
(108,286,l),
(108,319,l),
(251,319,l),
(64,682,l),
(108,682,l),
(288,326,l),
(467,682,l),
(510,682,l),
(323,319,l),
(467,319,l),
(467,286,l),
(306,286,l),
(306,169,l),
(467,169,l)
);
}
);
width = 574;
}
);
unicode = 165;
}
{
glyphname = brokenbar;
layers = (
{
layerId = "D222E232-D60B-4B2D-8951-17F11CA2060F";
shapes = (
{
closed = 1;
nodes = (
(269,-232,l),
(89,-247,l),
(89,154,l),
(269,169,l)
);
},
{
closed = 1;
nodes = (
(269,352,l),
(89,337,l),
(89,738,l),
(269,753,l)
);
}
);
width = 358;
},
{
layerId = "836ED3A4-1AF9-4FCB-B992-725D22F47718";
shapes = (
{
closed = 1;
nodes = (
(246,-232,l),
(102,-244,l),
(102,161,l),
(246,173,l)
);
},
{
closed = 1;
nodes = (
(246,348,l),
(102,336,l),
(102,741,l),
(246,753,l)
);
}
);
width = 348;
},
{
layerId = "D4BE8965-D6E9-455E-8A03-697C08C086AB";
shapes = (
{
closed = 1;
nodes = (
(212,-232,l),
(121,-240,l),
(121,171,l),
(212,179,l)
);
},
{
closed = 1;
nodes = (
(212,342,l),
(121,334,l),
(121,745,l),
(212,753,l)
);
}
);
width = 333;
},
{
layerId = "26E6130D-B3C9-45B2-A3C5-02C986E91ADD";
shapes = (
{
closed = 1;
nodes = (
(170,-236,l),
(134,-240,l),
(134,159,l),
(170,163,l)
);
},
{
closed = 1;
nodes = (
(170,354,l),
(134,350,l),
(134,749,l),
(170,753,l)
);
}
);
width = 304;
}
);
unicode = 166;
}
{
glyphname = section;
layers = (
{
layerId = "B6DF85F1-EBFC-49D5-83CF-7D86C417AD4B";
shapes = (
{
closed = 1;
nodes = (
(152,74,l),
(210,44,o),
(264,34,o),
(299,34,cs),
(328,34,o),
(361,41,o),
(361,66,cs),
(361,86,o),
(332,100,o),
(243,133,c),
(175,160,o),
(87,194,o),
(87,296,cs),
(87,355,o),
(118,404,o),
(157,441,c),
(127,466,o),
(107,504,o),
(107,555,cs),
(107,667,o),
(211,717,o),
(314,717,cs),
(381,717,o),
(466,698,o),
(524,663,c),
(479,545,l),
(421,575,o),
(367,585,o),
(333,585,cs),
(302,585,o),
(271,576,o),
(271,553,cs),
(271,531,o),
(306,516,o),
(388,486,cs),
(456,461,o),
(544,422,o),
(544,323,cs),
(544,264,o),
(513,215,o),
(474,178,c),
(504,153,o),
(525,115,o),
(525,64,cs),
(525,-48,o),
(420,-98,o),
(317,-98,cs),
(250,-98,o),
(165,-79,o),
(107,-44,c)
);
},
{
closed = 1;
nodes = (
(383,230,l),
(395,249,o),
(403,268,o),
(403,288,cs),
(403,327,o),
(364,343,o),
(271,380,cs),
(248,389,l),
(238,372,o),
(228,352,o),
(228,331,cs),
(228,291,o),
(267,277,o),
(360,239,cs)
);
}
);
width = 631;
},
{
layerId = "D243B678-AA35-4622-BFB2-DA5F5B4AAB22";
shapes = (
{
closed = 1;
nodes = (
(152,53,l),
(208,24,o),
(260,11,o),
(300,11,cs),
(338,11,o),
(376,23,o),
(376,57,cs),
(376,92,o),
(333,109,o),
(258,136,cs),
(185,163,o),
(92,197,o),
(92,298,cs),
(92,359,o),
(127,407,o),
(174,442,c),
(138,467,o),
(112,505,o),
(112,561,cs),
(112,668,o),
(209,717,o),
(312,717,cs),
(375,717,o),
(453,700,o),
(509,665,c),
(470,566,l),
(414,595,o),
(362,608,o),
(322,608,cs),
(283,608,o),
(246,595,o),
(246,562,cs),
(246,526,o),
(293,508,o),
(364,483,cs),
(437,456,o),
(530,421,o),
(530,321,cs),
(530,260,o),
(495,212,o),
(448,177,c),
(484,152,o),
(510,114,o),
(510,58,cs),
(510,-49,o),
(413,-98,o),
(310,-98,cs),
(247,-98,o),
(169,-81,o),
(113,-46,c)
);
},
{
closed = 1;
nodes = (
(370,219,l),
(398,243,o),
(410,267,o),
(410,292,cs),
(410,337,o),
(368,354,o),
(275,391,cs),
(252,400,l),
(225,377,o),
(212,353,o),
(212,327,cs),
(212,282,o),
(254,265,o),
(347,228,cs)
);
}
);
width = 622;
},
{
layerId = "7D45EC82-E8BB-4AC3-AEF4-676BB722768B";
shapes = (
{
closed = 1;
nodes = (
(152,21,l),
(205,-6,o),
(254,-23,o),
(302,-23,cs),
(353,-23,o),
(399,-4,o),
(399,44,cs),
(399,101,o),
(335,123,o),
(280,141,cs),
(200,168,o),
(99,202,o),
(99,301,cs),
(99,365,o),
(140,412,o),
(199,443,c),
(154,468,o),
(120,506,o),
(120,570,cs),
(120,670,o),
(206,717,o),
(309,717,cs),
(366,717,o),
(433,703,o),
(486,668,c),
(456,598,l),
(403,625,o),
(354,642,o),
(306,642,cs),
(255,642,o),
(209,623,o),
(209,575,cs),
(209,518,o),
(273,496,o),
(328,478,c),
(408,449,o),
(509,419,o),
(509,318,cs),
(509,254,o),
(468,207,o),
(409,176,c),
(454,151,o),
(488,113,o),
(488,49,cs),
(488,-51,o),
(402,-98,o),
(299,-98,cs),
(242,-98,o),
(175,-84,o),
(122,-49,c)
);
},
{
closed = 1;
nodes = (
(350,203,l),
(402,234,o),
(420,265,o),
(420,298,cs),
(420,352,o),
(374,370,o),
(281,407,cs),
(258,416,l),
(206,385,o),
(188,354,o),
(188,321,cs),
(188,269,o),
(234,247,o),
(327,212,cs)
);
}
);
width = 608;
},
{
layerId = "0550E5A5-F26C-45AF-9FA2-5FA21B0BB434";
shapes = (
{
closed = 1;
nodes = (
(148,-16,l),
(204,-48,o),
(253,-60,o),
(301,-60,cs),
(384,-60,o),
(435,-25,o),
(435,35,cs),
(435,100,o),
(378,125,o),
(275,170,cs),
(187,210,o),
(110,248,o),
(110,330,cs),
(110,390,o),
(151,431,o),
(232,460,c),
(155,501,o),
(129,535,o),
(129,586,cs),
(129,669,o),
(195,717,o),
(298,717,cs),
(357,717,o),
(413,701,o),
(466,670,c),
(453,639,l),
(397,671,o),
(348,683,o),
(300,683,cs),
(217,683,o),
(166,648,o),
(166,588,cs),
(166,523,o),
(223,498,o),
(326,453,cs),
(414,413,o),
(491,375,o),
(491,293,cs),
(491,233,o),
(450,192,o),
(369,163,c),
(446,122,o),
(472,88,o),
(472,37,cs),
(472,-46,o),
(406,-94,o),
(303,-94,cs),
(244,-94,o),
(188,-78,o),
(135,-47,c)
);
},
{
closed = 1;
nodes = (
(335,180,l),
(407,203,o),
(454,236,o),
(454,296,cs),
(454,360,o),
(398,382,o),
(312,422,cs),
(266,443,l),
(194,420,o),
(147,387,o),
(147,327,cs),
(147,263,o),
(203,241,o),
(289,201,cs)
);
}
);
width = 601;
}
);
unicode = 167;
}
{
glyphname = copyright;
layers = (
{
layerId = "F976A6FE-4F5D-4CD4-867C-EF90278DFFCC";
shapes = (
{
closed = 1;
nodes = (
(196,-27,o),
(36,134,o),
(36,355,cs),
(36,573,o),
(196,734,o),
(419,734,cs),
(641,734,o),
(801,573,o),
(801,355,cs),
(801,137,o),
(644,-27,o),
(419,-27,cs)
);
},
{
closed = 1;
nodes = (
(568,91,o),
(676,202,o),
(676,355,cs),
(676,511,o),
(571,617,o),
(418,617,cs),
(264,617,o),
(161,511,o),
(161,355,cs),
(161,202,o),
(264,91,o),
(418,91,cs)
);
},
{
closed = 1;
nodes = (
(562,202,l),
(525,177,o),
(480,162,o),
(432,162,cs),
(326,162,o),
(237,225,o),
(237,351,cs),
(237,476,o),
(323,545,o),
(430,545,cs),
(480,545,o),
(523,529,o),
(557,506,c),
(521,414,l),
(490,430,o),
(463,437,o),
(442,437,cs),
(397,437,o),
(373,405,o),
(373,351,cs),
(373,302,o),
(395,272,o),
(441,272,cs),
(465,272,o),
(492,279,o),
(524,295,c)
);
}
);
width = 837;
},
{
layerId = "ECD81CFE-BAA5-49B6-8B8C-C1187BD9FB4D";
shapes = (
{
closed = 1;
nodes = (
(200,-20,o),
(43,137,o),
(43,354,cs),
(43,570,o),
(200,727,o),
(418,727,cs),
(636,727,o),
(793,570,o),
(793,354,cs),
(793,140,o),
(639,-20,o),
(418,-20,cs)
);
},
{
closed = 1;
nodes = (
(574,81,o),
(686,194,o),
(686,354,cs),
(686,514,o),
(577,626,o),
(418,626,cs),
(259,626,o),
(150,514,o),
(150,354,cs),
(150,195,o),
(259,81,o),
(418,81,cs)
);
},
{
closed = 1;
nodes = (
(556,199,l),
(521,176,o),
(477,162,o),
(430,162,cs),
(320,162,o),
(244,236,o),
(244,352,cs),
(244,467,o),
(318,545,o),
(429,545,cs),
(477,545,o),
(520,530,o),
(553,509,c),
(520,428,l),
(488,443,o),
(460,450,o),
(437,450,cs),
(381,450,o),
(358,408,o),
(358,352,cs),
(358,299,o),
(380,258,o),
(436,258,cs),
(461,258,o),
(489,265,o),
(522,280,c)
);
}
);
width = 836;
},
{
layerId = "05C01135-6C20-4612-9616-E32239DF772F";
shapes = (
{
closed = 1;
nodes = (
(206,-10,o),
(54,142,o),
(54,353,cs),
(54,565,o),
(206,717,o),
(417,717,cs),
(629,717,o),
(781,565,o),
(781,353,cs),
(781,145,o),
(631,-10,o),
(417,-10,cs)
);
},
{
closed = 1;
nodes = (
(583,66,o),
(701,182,o),
(701,352,cs),
(701,519,o),
(586,639,o),
(418,639,cs),
(251,639,o),
(134,519,o),
(134,352,cs),
(134,184,o),
(251,66,o),
(418,66,cs)
);
},
{
closed = 1;
nodes = (
(547,194,l),
(515,175,o),
(472,162,o),
(427,162,cs),
(311,162,o),
(255,252,o),
(255,353,cs),
(255,453,o),
(311,545,o),
(427,545,cs),
(472,545,o),
(515,532,o),
(547,513,c),
(519,449,l),
(485,463,o),
(455,470,o),
(429,470,cs),
(357,470,o),
(335,412,o),
(335,353,cs),
(335,294,o),
(357,237,o),
(429,237,cs),
(455,237,o),
(485,244,o),
(519,258,c)
);
}
);
width = 835;
},
{
layerId = "E82A1E35-09AC-49BD-B418-47901BDD1DB1";
shapes = (
{
closed = 1;
nodes = (
(216,-10,o),
(62,145,o),
(62,353,cs),
(62,561,o),
(216,717,o),
(426,717,cs),
(637,717,o),
(789,561,o),
(789,353,cs),
(789,147,o),
(638,-10,o),
(426,-10,cs)
);
},
{
closed = 1;
nodes = (
(611,24,o),
(752,163,o),
(752,353,cs),
(752,541,o),
(614,683,o),
(426,683,cs),
(239,683,o),
(99,541,o),
(99,353,cs),
(99,165,o),
(238,24,o),
(426,24,cs)
);
},
{
closed = 1;
nodes = (
(545,204,l),
(514,185,o),
(478,172,o),
(434,172,cs),
(324,172,o),
(273,258,o),
(273,353,cs),
(273,448,o),
(323,535,o),
(435,535,cs),
(478,535,o),
(513,522,o),
(545,503,c),
(530,474,l),
(495,493,o),
(467,502,o),
(435,502,cs),
(346,502,o),
(310,430,o),
(310,353,cs),
(310,277,o),
(346,205,o),
(433,205,cs),
(464,205,o),
(496,214,o),
(530,233,c)
);
}
);
width = 851;
}
);
unicode = 169;
}
{
glyphname = ordfeminine;
layers = (
{
layerId = "B6DF85F1-EBFC-49D5-83CF-7D86C417AD4B";
shapes = (
{
closed = 1;
nodes = (
(344,362,l),
(335,394,o),
(335,431,o),
(335,465,cs),
(335,543,ls),
(335,653,o),
(293,717,o),
(177,717,cs),
(132,717,o),
(80,705,o),
(39,683,c),
(72,601,l),
(99,613,o),
(128,623,o),
(157,623,cs),
(189,623,o),
(219,611,o),
(219,574,cs),
(219,571,l),
(199,571,o),
(182,575,o),
(161,575,cs),
(90,575,o),
(27,546,o),
(27,466,cs),
(27,402,o),
(68,359,o),
(132,359,cs),
(171,359,o),
(202,371,o),
(236,398,c),
(234,386,o),
(238,372,o),
(241,362,c)
);
},
{
closed = 1;
nodes = (
(221,455,l),
(205,450,o),
(192,440,o),
(175,440,cs),
(158,440,o),
(143,453,o),
(143,470,cs),
(143,497,o),
(166,507,o),
(190,507,c),
(199,507,o),
(211,508,o),
(221,505,c)
);
},
{
closed = 1;
nodes = (
(29,226,l),
(366,226,l),
(366,315,l),
(29,315,l)
);
}
);
width = 387;
},
{
layerId = "D243B678-AA35-4622-BFB2-DA5F5B4AAB22";
shapes = (
{
closed = 1;
nodes = (
(335,367,l),
(326,398,o),
(326,432,o),
(326,464,cs),
(326,562,ls),
(326,662,o),
(281,717,o),
(178,717,cs),
(135,717,o),
(82,706,o),
(44,684,c),
(75,612,l),
(102,626,o),
(132,635,o),
(162,635,cs),
(197,635,o),
(227,622,o),
(227,583,cs),
(227,575,l),
(206,577,o),
(186,580,o),
(164,580,cs),
(92,580,o),
(29,551,o),
(29,470,cs),
(29,405,o),
(70,364,o),
(135,364,cs),
(172,364,o),
(206,376,o),
(237,400,c),
(237,389,o),
(239,377,o),
(242,367,c)
);
},
{
closed = 1;
nodes = (
(228,459,l),
(210,449,o),
(189,438,o),
(168,438,cs),
(147,438,o),
(128,452,o),
(128,474,cs),
(128,510,o),
(169,516,o),
(197,516,cs),
(207,516,o),
(218,516,o),
(228,514,c)
);
},
{
closed = 1;
nodes = (
(26,230,l),
(351,230,l),
(351,311,l),
(26,311,l)
);
}
);
width = 377;
},
{
layerId = "7D45EC82-E8BB-4AC3-AEF4-676BB722768B";
shapes = (
{
closed = 1;
nodes = (
(321,375,l),
(313,404,o),
(312,433,o),
(312,463,cs),
(312,590,l),
(312,676,o),
(263,717,o),
(179,717,cs),
(140,717,o),
(85,708,o),
(52,685,c),
(80,628,l),
(107,645,o),
(138,653,o),
(170,653,cs),
(209,653,o),
(239,639,o),
(239,596,cs),
(239,581,l),
(216,586,o),
(192,588,o),
(168,588,cs),
(95,588,o),
(32,558,o),
(32,476,cs),
(32,409,o),
(73,372,o),
(139,372,cs),
(173,372,o),
(212,383,o),
(239,403,c),
(241,394,o),
(241,384,o),
(244,375,c)
);
},
{
closed = 1;
nodes = (
(239,465,l),
(218,448,o),
(185,435,o),
(158,435,cs),
(130,435,o),
(106,450,o),
(106,480,cs),
(106,530,o),
(174,530,o),
(208,530,c),
(219,529,o),
(229,528,o),
(239,527,c)
);
},
{
closed = 1;
nodes = (
(21,236,l),
(329,236,l),
(329,305,l),
(21,305,l)
);
}
);
width = 362;
},
{
layerId = "0550E5A5-F26C-45AF-9FA2-5FA21B0BB434";
shapes = (
{
closed = 1;
nodes = (
(293,375,l),
(286,401,o),
(284,431,o),
(284,458,cs),
(284,601,ls),
(284,679,o),
(236,717,o),
(160,717,cs),
(120,717,o),
(81,708,o),
(45,691,c),
(57,662,l),
(92,677,o),
(125,685,o),
(156,685,cs),
(213,685,o),
(249,660,o),
(249,600,cs),
(249,565,l),
(215,573,o),
(184,577,o),
(157,577,cs),
(89,577,o),
(24,551,o),
(24,473,cs),
(24,408,o),
(68,372,o),
(131,372,cs),
(173,372,o),
(220,390,o),
(250,420,c),
(252,403,o),
(255,388,o),
(258,375,c)
);
},
{
closed = 1;
nodes = (
(249,449,l),
(219,424,o),
(171,404,o),
(132,404,cs),
(89,404,o),
(60,429,o),
(60,473,cs),
(60,522,o),
(95,546,o),
(165,546,cs),
(193,546,o),
(222,543,o),
(249,538,c)
);
},
{
closed = 1;
nodes = (
(25,236,l),
(303,236,l),
(303,268,l),
(25,268,l)
);
}
);
width = 340;
}
);
unicode = 170;
}
{
glyphname = guillemotleft;
layers = (
{
layerId = "D43100D0-4BF9-44C0-ADDC-79172AF58462";
shapes = (
{
closed = 1;
nodes = (
(330,51,l),
(157,51,l),
(23,226,l),
(23,290,l),
(157,465,l),
(330,465,l),
(179,258,l)
);
},
{
closed = 1;
nodes = (
(591,51,l),
(418,51,l),
(284,226,l),
(284,290,l),
(418,465,l),
(591,465,l),
(440,258,l)
);
}
);
width = 614;
},
{
layerId = "B5AFC12C-DAB2-4B68-A31B-D6136A1B144F";
shapes = (
{
alignment = -1;
ref = guilsinglleft;
},
{
alignment = -1;
pos = (240,0);
ref = guilsinglleft;
}
);
width = 589;
},
{
layerId = "5166C0C3-C3D2-4F7F-8540-ACBC385E7743";
shapes = (
{
alignment = -1;
ref = guilsinglleft;
},
{
alignment = -1;
pos = (209,0);
ref = guilsinglleft;
}
);
width = 552;
},
{
layerId = "64AEFF5A-033C-4F54-96AE-A64261A50D57";
shapes = (
{
alignment = -1;
ref = guilsinglleft;
},
{
alignment = -1;
pos = (184,0);
ref = guilsinglleft;
}
);
width = 497;
}
);
unicode = 171;
}
{
glyphname = logicalnot;
layers = (
{
layerId = "F976A6FE-4F5D-4CD4-867C-EF90278DFFCC";
shapes = (
{
closed = 1;
nodes = (
(521,205,l),
(378,205,l),
(378,359,l),
(54,359,l),
(54,490,l),
(521,490,l)
);
}
);
width = 575;
},
{
layerId = "ECD81CFE-BAA5-49B6-8B8C-C1187BD9FB4D";
shapes = (
{
closed = 1;
nodes = (
(508,216,l),
(391,216,l),
(391,366,l),
(60,366,l),
(60,476,l),
(508,476,l)
);
}
);
width = 568;
},
{
layerId = "05C01135-6C20-4612-9616-E32239DF772F";
shapes = (
{
closed = 1;
nodes = (
(489,232,l),
(411,232,l),
(411,377,l),
(69,377,l),
(69,455,l),
(489,455,l)
);
}
);
width = 558;
},
{
layerId = "E82A1E35-09AC-49BD-B418-47901BDD1DB1";
shapes = (
{
closed = 1;
nodes = (
(470,260,l),
(435,260,l),
(435,397,l),
(74,397,l),
(74,430,l),
(470,430,l)
);
}
);
width = 544;
}
);
unicode = 172;
}
{
glyphname = registered;
layers = (
{
layerId = "F976A6FE-4F5D-4CD4-867C-EF90278DFFCC";
shapes = (
{
closed = 1;
nodes = (
(372,429,l),
(356,448,o),
(339,468,o),
(324,487,c),
(348,500,o),
(362,519,o),
(362,546,cs),
(362,591,o),
(326,617,o),
(284,617,cs),
(180,617,l),
(180,398,l),
(247,398,l),
(247,475,l),
(260,475,l),
(274,445,o),
(295,412,o),
(318,389,c)
);
},
{
closed = 1;
nodes = (
(248,518,l),
(248,567,l),
(267,567,ls),
(284,567,o),
(292,558,o),
(292,541,cs),
(292,526,o),
(281,518,o),
(267,518,cs)
);
},
{
closed = 1;
nodes = (
(172,359,o),
(114,419,o),
(114,510,cs),
(114,601,o),
(170,661,o),
(263,661,cs),
(355,661,o),
(412,601,o),
(412,510,cs),
(412,419,o),
(354,359,o),
(263,359,cs)
);
},
{
closed = 1;
nodes = (
(499,648,o),
(403,749,o),
(263,749,cs),
(124,749,o),
(27,648,o),
(27,510,cs),
(27,369,o),
(122,271,o),
(263,271,cs),
(404,271,o),
(499,369,o),
(499,510,cs)
);
}
);
width = 526;
},
{
layerId = "ECD81CFE-BAA5-49B6-8B8C-C1187BD9FB4D";
shapes = (
{
closed = 1;
nodes = (
(363,427,l),
(345,447,o),
(326,467,o),
(310,488,c),
(336,499,o),
(351,520,o),
(351,548,cs),
(351,592,o),
(318,618,o),
(276,618,cs),
(177,618,l),
(177,399,l),
(236,399,l),
(236,479,l),
(251,479,l),
(269,448,o),
(291,417,o),
(316,392,c)
);
},
{
closed = 1;
nodes = (
(237,521,l),
(237,572,l),
(261,572,ls),
(279,572,o),
(290,564,o),
(290,545,cs),
(290,527,o),
(277,521,o),
(261,521,cs)
);
},
{
closed = 1;
nodes = (
(165,356,o),
(104,418,o),
(104,510,cs),
(104,602,o),
(164,664,o),
(257,664,cs),
(350,664,o),
(410,602,o),
(410,510,cs),
(410,418,o),
(349,356,o),
(257,356,cs)
);
},
{
closed = 1;
nodes = (
(482,641,o),
(389,736,o),
(257,736,cs),
(126,736,o),
(32,641,o),
(32,510,cs),
(32,378,o),
(125,284,o),
(257,284,cs),
(389,284,o),
(482,378,o),
(482,510,cs)
);
}
);
width = 514;
},
{
layerId = "05C01135-6C20-4612-9616-E32239DF772F";
shapes = (
{
closed = 1;
nodes = (
(349,424,l),
(328,445,o),
(307,465,o),
(289,489,c),
(318,498,o),
(334,521,o),
(334,551,cs),
(334,594,o),
(306,619,o),
(264,619,cs),
(172,619,l),
(172,400,l),
(220,400,l),
(220,485,l),
(238,485,l),
(261,453,o),
(285,424,o),
(313,396,c)
);
},
{
closed = 1;
nodes = (
(221,525,l),
(221,579,l),
(252,579,ls),
(271,579,o),
(287,573,o),
(287,551,cs),
(287,528,o),
(271,525,o),
(252,525,cs)
);
},
{
closed = 1;
nodes = (
(155,351,o),
(89,417,o),
(89,510,cs),
(89,603,o),
(155,669,o),
(248,669,cs),
(342,669,o),
(407,603,o),
(407,510,cs),
(407,417,o),
(341,351,o),
(248,351,cs)
);
},
{
closed = 1;
nodes = (
(456,630,o),
(368,717,o),
(248,717,cs),
(129,717,o),
(40,630,o),
(40,510,cs),
(40,391,o),
(129,303,o),
(248,303,cs),
(367,303,o),
(456,391,o),
(456,510,cs)
);
}
);
width = 496;
},
{
layerId = "E82A1E35-09AC-49BD-B418-47901BDD1DB1";
shapes = (
{
closed = 1;
nodes = (
(339,415,l),
(314,440,o),
(292,466,o),
(269,493,c),
(304,495,o),
(328,517,o),
(328,553,cs),
(328,595,o),
(298,617,o),
(258,617,cs),
(179,617,l),
(179,400,l),
(210,400,l),
(210,490,l),
(236,490,l),
(261,458,o),
(286,425,o),
(315,396,c)
);
},
{
closed = 1;
nodes = (
(210,519,l),
(210,588,l),
(258,588,ls),
(280,588,o),
(296,576,o),
(296,553,cs),
(296,531,o),
(279,519,o),
(258,519,cs)
);
},
{
closed = 1;
nodes = (
(80,610,o),
(147,679,o),
(247,679,cs),
(347,679,o),
(414,610,o),
(414,510,cs),
(414,411,o),
(346,341,o),
(247,341,cs),
(148,341,o),
(80,412,o),
(80,510,cs)
);
},
{
closed = 1;
nodes = (
(364,310,o),
(448,393,o),
(448,510,cs),
(448,628,o),
(365,710,o),
(247,710,cs),
(130,710,o),
(46,627,o),
(46,510,cs),
(46,393,o),
(130,310,o),
(247,310,cs)
);
}
);
width = 494;
}
);
unicode = 174;
}
